<svg width="314" height="260" viewBox="0 0 314 260" fill="none" xmlns="http://www.w3.org/2000/svg">
<path d="M175.296 163.974C162.249 152.112 162.228 117.304 165.739 103.169C170.736 81.2787 172.801 56.1836 185.583 36.9532C194.711 53.2067 189.751 76.6456 185.64 93.5743C183.051 104.291 177.928 114.271 176.517 125.123C175.748 134.727 178.781 155.564 175.296 163.974Z" fill="#689D71" fill-opacity="0.4"/>
<path d="M184.31 175.589C220.4 155.525 250.021 131.852 270.759 108.473C264.365 128.222 252.863 144.957 234.574 158.707C224.521 166.134 197.128 178.171 184.31 175.589Z" fill="#689D71" fill-opacity="0.4"/>
<path d="M168.099 171.513C162.989 168.499 157.42 167.195 152.272 162.634C143.872 155.496 137.393 144.614 131.132 135.741C125.551 127.166 119.11 117.83 114.847 108.304C111.839 102.011 101.609 88.7131 103.453 81.8767C103.274 81.4148 102.917 80.4923 102.736 80.0303C117.001 93.5745 132.66 109.262 143.787 124.866C152.159 137.728 165.578 157.783 169.097 171.187" fill="#689D71" fill-opacity="0.4"/>
<path d="M181.184 184.92C189.763 192.52 210.034 191.115 221.099 190.631C230.805 189.552 241.511 188.146 250.32 184.758C261.131 180.719 265.293 172.609 271.814 164.771C264.642 166.586 257.868 170.868 250.515 172.223C242.667 173.74 234.996 175.715 227.146 177.233C212.304 181.025 195.309 179.283 181.004 184.459" fill="#689D71" fill-opacity="0.4"/>
<path d="M163.654 181.794C131.226 193.909 92.6736 168.526 72.3253 146.57C82.1482 150.127 92.61 152.44 103.431 155.671C113.751 159.065 124.574 162.3 134.574 166.316C144.255 170.962 153.652 177.774 163.795 180.709" fill="#689D71" fill-opacity="0.4"/>
<path d="M175.804 191.348C174.96 197.858 184.087 214.115 187.417 219.784C196.543 236.039 223.512 247.525 243.067 244.278C234.092 234.209 216.663 228.45 206.188 218.869C196.752 210.51 186.853 203.86 175.804 191.348Z" fill="#689D71" fill-opacity="0.4"/>
<path d="M166.342 188.714C141.895 190.955 120.842 214.958 99.4403 225.042C128.432 230.154 151.843 206.424 167.161 187.926" fill="#689D71" fill-opacity="0.4"/>
<path d="M191.956 159.069C201.218 146.7 214.82 126.685 220.659 118.548C235.618 99.1277 250.323 76.1545 268.78 55.5962C268.854 78.9558 256.75 98.4844 245.71 113.512C239.369 121.81 233.029 130.11 225.471 136.726C218.736 142.556 201.985 157.363 192.493 160.452" fill="#689D71" fill-opacity="0.4"/>
<path d="M179.544 161.076C179.561 142.525 186.816 117.965 196.268 100.749C211.621 72.7879 216.915 57.2327 231.548 34.6489C235.732 29.226 239.502 21.3541 245.457 17.4402C249.442 30.1089 244.229 48.7297 240.77 61.6566C234.282 84.2816 194.924 153.198 179.544 161.076Z" fill="#689D71" fill-opacity="0.4"/>
<path d="M169.423 241.27C165.593 222.381 169.999 203.788 173.692 185.228C177.168 167.765 183.401 151.262 191.323 134.944C199.407 118.294 208.87 102.166 217.042 85.5416C225.558 68.2191 233.279 50.6113 240.687 32.9169C241.075 31.9897 239.359 31.5308 238.974 32.4508C231.562 50.1499 223.786 67.729 215.327 85.0767C206.881 102.403 197.036 119.183 188.62 136.517C180.303 153.645 174.776 170.946 171.085 189.213C167.577 206.577 164.105 223.976 167.681 241.616C167.879 242.588 169.619 242.239 169.423 241.27Z" fill="#838383" fill-opacity="0.4"/>
<path d="M177.63 170.077C162.682 129.836 178.523 90.6536 186.233 50.8583C186.462 49.6769 184.495 49.0957 184.264 50.289C176.49 90.4172 160.558 129.943 175.626 170.509C176.051 171.651 178.06 171.233 177.63 170.077Z" fill="#838383" fill-opacity="0.4"/>
<path d="M174.714 177.275C163.835 166.037 153.239 154.583 144.552 141.817C136.162 129.488 129.116 116.454 120.529 104.226C119.815 103.207 117.996 104.087 118.717 105.116C127.834 118.1 135.393 131.91 144.305 145.006C152.527 157.09 162.92 167.927 173.21 178.558C174.096 179.473 175.596 178.187 174.714 177.275Z" fill="#838383" fill-opacity="0.4"/>
<path d="M172.932 181.477C146.213 179.5 121.07 171.68 98.2023 158.832C97.066 158.192 95.9712 159.786 97.106 160.423C120.259 173.431 145.816 181.359 172.866 183.361C174.193 183.46 174.253 181.575 172.932 181.477Z" fill="#838383" fill-opacity="0.4"/>
<path d="M171.026 182.238C165.605 190.69 155.959 195.166 147.653 200.894C137.109 208.167 126.834 215.386 114.36 219.705C113.139 220.129 113.605 221.972 114.845 221.542C125.932 217.702 135.428 211.734 144.813 205.236C154.391 198.602 166.516 193 172.772 183.251C173.443 182.204 171.698 181.193 171.026 182.238Z" fill="#838383" fill-opacity="0.4"/>
<path d="M171.852 183.949C181.516 205.386 195.864 230.189 221.12 238.709C222.372 239.132 222.974 237.332 221.73 236.911C197.022 228.576 183.114 204.023 173.663 183.06C173.156 181.934 171.347 182.832 171.852 183.949Z" fill="#838383" fill-opacity="0.4"/>
<path d="M172.773 183.779C196.244 190.211 223.195 186.562 245.876 179.404C247.118 179.014 246.648 177.173 245.392 177.569C223.013 184.631 196.532 188.324 173.383 181.982C172.106 181.631 171.498 183.43 172.773 183.779Z" fill="#838383" fill-opacity="0.4"/>
<path d="M176.521 177.559C207.63 172.599 236.901 153.91 255.388 130.894C256.176 129.915 254.422 128.911 253.642 129.881C235.459 152.52 206.61 170.848 176.037 175.724C174.73 175.932 175.217 177.768 176.521 177.559Z" fill="#838383" fill-opacity="0.4"/>
<path d="M178.437 170.176C195.322 162.271 206.889 147.092 218.383 133.789C233.193 116.648 245.424 97.7417 258.481 79.4839C259.208 78.4662 257.459 77.4579 256.734 78.4711C244.738 95.2474 233.314 112.369 220.239 128.471C208.483 142.948 195.378 160.122 177.453 168.513C176.274 169.066 177.254 170.73 178.437 170.176Z" fill="#838383" fill-opacity="0.4"/>
<path d="M147.939 138.452C146.49 138.925 147.296 140.999 148.745 140.527C150.195 140.057 149.388 137.981 147.939 138.452Z" fill="#838383" fill-opacity="0.4"/>
<path d="M145.43 131.995C143.981 132.467 144.787 134.543 146.236 134.071C147.685 133.599 146.879 131.523 145.43 131.995Z" fill="#838383" fill-opacity="0.4"/>
<path d="M131.434 129.277C129.985 129.749 130.791 131.824 132.241 131.352C133.69 130.879 132.884 128.805 131.434 129.277Z" fill="#838383" fill-opacity="0.4"/>
<path d="M115.855 96.415L115.354 96.5787C113.905 97.0493 114.711 99.1252 116.16 98.6531L116.661 98.4909C118.109 98.0188 117.303 95.9429 115.855 96.415Z" fill="#838383" fill-opacity="0.4"/>
<path d="M108.48 171.562C107.031 172.034 107.839 174.11 109.287 173.638C110.736 173.166 109.932 171.091 108.48 171.562Z" fill="#838383" fill-opacity="0.4"/>
<path d="M114.947 175.173C113.497 175.647 114.305 177.721 115.755 177.249C117.204 176.777 116.396 174.703 114.947 175.173Z" fill="#838383" fill-opacity="0.4"/>
<path d="M123.427 165.14L122.926 165.302C121.477 165.774 122.283 167.85 123.734 167.378L124.233 167.214C125.682 166.742 124.876 164.668 123.427 165.14Z" fill="#838383" fill-opacity="0.4"/>
<path d="M128.676 167.067C127.225 167.539 128.035 169.615 129.482 169.143C130.932 168.671 130.124 166.595 128.676 167.067Z" fill="#838383" fill-opacity="0.4"/>
<path d="M134.373 180.281C132.922 180.752 133.73 182.83 135.181 182.356C136.628 181.886 135.822 179.81 134.373 180.281Z" fill="#838383" fill-opacity="0.4"/>
<path d="M198.398 217.638C196.947 218.11 197.755 220.186 199.204 219.714C200.653 219.242 199.846 217.166 198.398 217.638Z" fill="#838383" fill-opacity="0.4"/>
<path d="M204.003 223.737L204.181 224.197C204.699 225.536 206.949 224.805 206.428 223.466L206.249 223.004C205.73 221.667 203.481 222.398 204.003 223.737Z" fill="#838383" fill-opacity="0.4"/>
<path d="M230.984 239.246C229.535 239.718 230.341 241.792 231.792 241.322C233.24 240.85 232.433 238.774 230.984 239.246Z" fill="#838383" fill-opacity="0.4"/>
<path d="M209.081 181.423L208.582 181.586C207.132 182.058 207.938 184.134 209.388 183.662L209.887 183.499C211.336 183.026 210.532 180.951 209.081 181.423Z" fill="#838383" fill-opacity="0.4"/>
<path d="M216.611 180.529L216.112 180.694C214.663 181.165 215.469 183.239 216.918 182.769L217.417 182.606C218.866 182.134 218.06 180.059 216.611 180.529Z" fill="#838383" fill-opacity="0.4"/>
<path d="M251.442 177.506C249.994 177.978 250.801 180.054 252.248 179.58C253.697 179.108 252.893 177.034 251.442 177.506Z" fill="#838383" fill-opacity="0.4"/>
<path d="M256.54 173.247C255.09 173.719 255.898 175.795 257.346 175.323C258.795 174.851 257.989 172.775 256.54 173.247Z" fill="#838383" fill-opacity="0.4"/>
<path d="M226.769 150.203C225.321 150.674 226.126 152.75 227.576 152.278C229.025 151.807 228.217 149.731 226.769 150.203Z" fill="#838383" fill-opacity="0.4"/>
<path d="M233.365 145.458C231.915 145.93 232.723 148.006 234.171 147.533C235.62 147.061 234.814 144.986 233.365 145.458Z" fill="#838383" fill-opacity="0.4"/>
<path d="M245.112 104.74C243.664 105.212 244.47 107.288 245.92 106.815C247.369 106.344 246.563 104.267 245.112 104.74Z" fill="#838383" fill-opacity="0.4"/>
<path d="M248.891 101.432C247.442 101.904 248.25 103.98 249.699 103.506C251.147 103.036 250.341 100.958 248.891 101.432Z" fill="#838383" fill-opacity="0.4"/>
<path d="M228.122 82.7311L227.623 82.8934C226.174 83.3639 226.98 85.4413 228.429 84.9693L228.93 84.8055C230.379 84.335 229.573 82.2591 228.122 82.7311Z" fill="#838383" fill-opacity="0.4"/>
<path d="M230.468 75.7311C229.017 76.2046 229.825 78.2791 231.274 77.8086C232.722 77.3365 231.916 75.2606 230.468 75.7311Z" fill="#838383" fill-opacity="0.4"/>
<path d="M195.131 119.451C193.681 119.925 194.487 121.999 195.937 121.527C197.386 121.057 196.58 118.979 195.131 119.451Z" fill="#838383" fill-opacity="0.4"/>
<path d="M198.936 110.419C197.488 110.891 198.292 112.967 199.742 112.494C201.191 112.025 200.385 109.947 198.936 110.419Z" fill="#838383" fill-opacity="0.4"/>
<path d="M224.797 56.7933C223.347 57.2652 224.154 59.3397 225.605 58.8692C227.052 58.3971 226.247 56.3213 224.797 56.7933Z" fill="#838383" fill-opacity="0.4"/>
<path d="M177.858 99.6137C176.409 100.086 177.217 102.162 178.666 101.69C180.115 101.218 179.308 99.1417 177.858 99.6137Z" fill="#838383" fill-opacity="0.4"/>
<path d="M179.345 91.856L178.846 92.0183C177.396 92.4888 178.203 94.5647 179.652 94.0927L180.151 93.9304C181.601 93.4599 180.794 91.3824 179.345 91.856Z" fill="#838383" fill-opacity="0.4"/>
<path d="M174.929 76.1452C173.479 76.6172 174.285 78.6931 175.735 78.2211C177.184 77.7491 176.378 75.6731 174.929 76.1452Z" fill="#838383" fill-opacity="0.4"/>
<path d="M128.671 207.599L128.172 207.762C126.722 208.234 127.53 210.31 128.977 209.839L129.477 209.675C130.928 209.203 130.12 207.129 128.671 207.599Z" fill="#838383" fill-opacity="0.4"/>
<path d="M136.765 202.367C135.317 202.839 136.123 204.915 137.573 204.443C139.022 203.97 138.214 201.895 136.765 202.367Z" fill="#838383" fill-opacity="0.4"/>
<path d="M139.412 210.988L139.591 211.45C140.11 212.789 142.359 212.056 141.837 210.717L141.659 210.257C141.137 208.918 138.891 209.649 139.412 210.988Z" fill="#838383" fill-opacity="0.4"/>
<g clip-path="url(#clip0)">
<path d="M217.313 126.824C218.084 127.735 218.834 128.653 219.364 129.731C219.828 130.675 221.312 129.937 221.006 128.973C220.875 128.556 220.691 128.093 220.346 127.808C219.448 127.065 218.195 128.398 219.099 129.144C219.173 129.205 219.229 129.394 219.267 129.519C219.815 129.266 220.363 129.014 220.91 128.761C220.312 127.544 219.43 126.516 218.56 125.489C217.803 124.594 216.565 125.941 217.313 126.824Z" fill="#838383" fill-opacity="0.8"/>
<path d="M215.368 124.983C215.79 126.239 216.56 127.439 217.264 128.547C217.945 129.62 218.992 131.407 220.428 131.487C222.153 131.584 222.176 129.111 221.72 128.046C220.93 126.192 219.041 124.646 217.319 123.696C216.292 123.13 215.443 124.748 216.467 125.313C217.685 125.985 218.825 126.964 219.652 128.084C220.01 128.568 220.273 129.085 220.154 129.696C220.063 130.162 220.265 129.574 220.611 129.704C220.459 129.647 220.347 129.531 220.227 129.422C218.918 128.234 217.673 126.119 217.106 124.437C216.732 123.325 214.993 123.869 215.368 124.983Z" fill="#838383" fill-opacity="0.8"/>
<path d="M218.604 78.9693C218.846 78.6339 218.903 78.1669 218.528 77.7975C216.158 75.4711 213.525 72.9144 210.3 71.8724C208.925 71.4281 205.918 71.9087 206.334 73.9543C206.721 75.8675 209.442 77.1337 210.96 77.9336C212.989 79.0038 215.468 80.1533 217.815 80.1358C218.51 80.1327 218.756 79.4909 218.604 78.9693Z" fill="#838383" fill-opacity="0.8"/>
<path d="M225.484 74.4029C225.272 73.963 224.617 73.8602 224.232 74.1144C221.058 76.2185 220.493 80.2872 219.38 83.6506C219.313 83.849 219.332 84.0139 219.382 84.1612C219.137 84.9784 220.32 85.7616 220.914 85.0102C223.323 81.9619 227.551 78.7053 225.484 74.4029Z" fill="#838383" fill-opacity="0.8"/>
<path d="M234.888 71.9827C235.21 68.8458 235.53 61.5769 230.597 62.2152C230.206 62.2653 229.818 62.5088 229.746 62.9336C229.206 66.1965 230.377 70.5961 232.934 72.7755C233.388 73.1622 233.932 73.0025 234.241 72.6548C234.565 72.5949 234.848 72.3809 234.888 71.9827Z" fill="#838383" fill-opacity="0.8"/>
<path d="M247.464 63.9356C246.786 62.603 244.942 62.8883 243.756 63.1529C242.497 63.4345 240.788 63.973 239.886 64.9719C239.619 65.2681 239.606 65.6036 239.721 65.8887C239.736 66.359 240.194 66.8131 240.685 66.8337C242.281 66.9058 243.857 67.4439 245.491 67.1834C246.973 66.9471 248.239 65.4592 247.464 63.9356Z" fill="#838383" fill-opacity="0.8"/>
<path d="M244.201 59.4515C244.265 59.336 244.313 59.2105 244.322 59.0694C244.47 56.8622 243.962 54.1591 242.117 52.7487C241.672 52.4071 240.968 52.413 240.691 52.9922C239.395 55.7076 241.118 58.6273 242.878 60.6532C243.611 61.496 244.748 60.3213 244.201 59.4515Z" fill="#838383" fill-opacity="0.8"/>
<path d="M235.633 86.4246C235.642 86.4188 235.65 86.4201 235.66 86.412C237.433 85.1531 238.074 81.7623 238.074 79.7536C238.074 78.8841 237.06 78.7008 236.507 79.1733C234.403 80.9721 233.48 83.8392 233.819 86.5452C233.963 87.7017 235.781 87.6301 235.635 86.4591C235.634 86.4478 235.634 86.4359 235.633 86.4246Z" fill="#838383" fill-opacity="0.8"/>
<path d="M240.624 83.6152C240.239 83.3989 239.876 83.5015 239.629 83.7438C239.061 83.7204 238.454 84.1978 238.673 84.9026C239.279 86.8556 241.42 93.4224 244.469 90.8481C246.945 88.7572 242.332 84.5802 240.624 83.6152Z" fill="#838383" fill-opacity="0.8"/>
<path d="M224.366 111.178C224.184 110.724 223.731 110.414 223.231 110.58C219.428 111.842 219.942 116.51 219.896 119.719C219.88 120.784 221.353 120.803 221.648 119.928C221.947 119.947 222.266 119.811 222.489 119.462C223.985 117.131 225.469 113.94 224.366 111.178Z" fill="#838383" fill-opacity="0.8"/>
<path d="M233.85 118.316C232.704 116.713 230.747 115.352 228.92 114.651C228.021 114.307 227.055 115.388 227.871 116.129C227.966 116.216 228.054 116.313 228.145 116.404C228.043 116.586 227.983 116.799 228.027 117.049C228.308 118.642 231.605 123.881 233.765 122.248C235.056 121.27 234.663 119.454 233.85 118.316Z" fill="#838383" fill-opacity="0.8"/>
<path d="M237.781 103.364C237.575 102.828 236.955 102.527 236.435 102.865C233.712 104.625 234.747 108.111 233.543 110.681C233.045 111.744 234.648 112.595 235.148 111.526C235.197 111.424 235.228 111.319 235.27 111.215C235.412 111.175 235.55 111.108 235.675 110.976C237.439 109.127 238.726 105.832 237.781 103.364Z" fill="#838383" fill-opacity="0.8"/>
<path d="M205.291 90.5898C205.234 90.1013 204.869 89.6892 204.347 89.7198C200.787 89.9304 200.13 94.5375 198.86 97.0906C198.676 97.4612 198.761 97.7982 198.961 98.0434C198.84 98.7578 199.659 99.3054 200.341 98.9454C203.14 97.4697 205.678 93.8485 205.291 90.5898Z" fill="#838383" fill-opacity="0.8"/>
<path d="M200.276 104.33C200.691 103.95 200.793 103.174 200.157 102.804C197.785 101.422 196.178 98.09 193.219 97.8076C191.972 97.6898 189.685 98.2334 190.509 99.971C191.176 101.379 193.278 102.247 194.562 102.926C196.005 103.69 197.511 104.325 198.964 105.069C199.62 105.404 200.198 104.892 200.276 104.33Z" fill="#838383" fill-opacity="0.8"/>
<path d="M208.6 104.249C208.53 103.848 208.065 103.594 207.694 103.61C203.915 103.76 202.796 107.689 201.351 110.531C201.16 110.908 201.251 111.256 201.461 111.502C201.404 112.104 201.988 112.749 202.622 112.48C205.757 111.154 209.244 107.973 208.6 104.249Z" fill="#838383" fill-opacity="0.8"/>
<path d="M204.348 117.689C202.632 116.476 200.442 115.43 198.292 115.528C197.039 115.584 194.811 116.878 195.371 118.429C195.874 119.819 198.068 119.845 199.26 119.93C200.722 120.035 202.275 120.057 203.731 119.842C204.106 119.786 204.375 119.501 204.502 119.174C204.832 118.779 204.897 118.076 204.348 117.689Z" fill="#838383" fill-opacity="0.8"/>
<path d="M208.759 151.18C208.538 150.472 207.735 150.393 207.229 150.832C204.315 153.354 204.549 157.298 204.262 160.811C204.174 161.89 205.697 161.881 206.011 160.964C206.08 160.905 206.147 160.843 206.2 160.759C207.95 158.014 209.788 154.497 208.759 151.18Z" fill="#838383" fill-opacity="0.8"/>
<path d="M214.458 156.635C214.044 156.41 213.555 156.609 213.288 156.952C212.832 157.074 212.48 157.479 212.721 158.035C213.561 159.978 214.452 162.034 215.866 163.63C216.944 164.851 219.255 165.906 220.319 163.949C221.846 161.142 216.396 157.696 214.458 156.635Z" fill="#838383" fill-opacity="0.8"/>
<path d="M221.405 143.789C221.151 143.176 220.378 142.899 219.875 143.439C217.866 145.598 217.956 149.02 218.512 151.717C218.639 152.335 219.193 152.451 219.646 152.26C220.059 152.592 220.685 152.616 220.94 151.989C222.028 149.3 222.546 146.54 221.405 143.789Z" fill="#838383" fill-opacity="0.8"/>
<path d="M230.251 151.411C229.983 150.226 228.473 149.574 227.482 149.153C226.453 148.714 225.082 148.146 223.925 148.367C223.182 147.963 222.264 149.111 222.93 149.901C224.138 151.335 225.441 152.9 227.286 153.48C228.514 153.864 230.596 152.936 230.251 151.411Z" fill="#838383" fill-opacity="0.8"/>
<path d="M189.354 125.764C188.933 124.167 186.964 125.043 186.088 125.65C184.134 127.008 183.6 130.177 183.073 132.314C182.792 133.458 184.566 133.845 184.849 132.7C184.875 132.592 184.903 132.485 184.929 132.377C186.122 131.804 187.043 130.575 187.787 129.539C188.469 128.594 189.689 127.034 189.354 125.764Z" fill="#838383" fill-opacity="0.8"/>
<path d="M184.884 138.023C183.441 137.243 181.743 135.886 180.026 135.879C178.899 135.875 176.644 135.966 176.349 137.438C176.042 138.969 177.539 140.099 178.866 140.36C180.385 140.659 182.009 140.304 183.512 140.052C183.8 140.003 183.995 139.853 184.142 139.672C185.12 140.06 185.877 138.556 184.884 138.023Z" fill="#838383" fill-opacity="0.8"/>
<path d="M191.713 138.893C191.599 138.288 190.83 138.127 190.367 138.393C187.999 139.744 186.87 142.739 186.969 145.361C186.974 145.53 187.025 145.665 187.094 145.783C187.213 146.335 187.826 146.803 188.456 146.419C190.892 144.937 192.23 141.642 191.713 138.893Z" fill="#838383" fill-opacity="0.8"/>
<path d="M189.03 152.932C188.991 152.775 188.916 152.623 188.744 152.495C187.275 151.37 185.475 149.82 183.525 149.774C182.142 149.741 180.311 150.969 180.682 152.533C181.015 153.932 183.326 154.259 184.451 154.453C185.857 154.696 187.47 154.93 188.898 154.742C189.975 154.597 189.981 153.018 189.03 152.932Z" fill="#838383" fill-opacity="0.8"/>
<path d="M194.773 153.114C194.653 152.395 193.783 151.878 193.204 152.535C191.841 154.085 191.313 156.031 191.12 158.048C191.083 158.439 191.268 158.733 191.525 158.921C191.425 159.796 192.742 160.367 193.225 159.433C194.217 157.516 195.144 155.312 194.773 153.114Z" fill="#838383" fill-opacity="0.8"/>
<path d="M161.245 159.79C161.289 159.537 161.223 159.274 160.943 159.065C159.127 157.708 152.084 153.639 151.91 158.662C151.8 161.837 159.244 162 161.213 161.487C162.135 161.246 161.948 160.075 161.245 159.79Z" fill="#838383" fill-opacity="0.8"/>
<path d="M169.252 159.51C169.193 158.96 168.658 158.458 168.078 158.682C165.149 159.807 163.695 163.545 163.8 166.498C163.806 166.667 163.856 166.803 163.924 166.92C164.034 167.507 164.708 167.967 165.286 167.556C167.73 165.818 169.586 162.567 169.252 159.51Z" fill="#838383" fill-opacity="0.8"/>
<path d="M167.076 174.937C167.018 174.908 166.958 174.888 166.9 174.859C166.918 174.553 166.798 174.241 166.446 174.054C164.57 173.049 162.488 171.576 160.308 171.409C158.915 171.303 157.29 172.541 157.662 174.048C158.02 175.502 160.272 176.076 161.475 176.396C162.644 176.708 164.033 176.958 165.339 176.886C165.646 176.995 165.925 176.932 166.142 176.773C166.404 176.727 166.671 176.7 166.915 176.615C167.648 176.365 167.804 175.3 167.076 174.937Z" fill="#838383" fill-opacity="0.8"/>
<path d="M174.539 174.228C171.406 171.303 169.244 178.893 168.993 180.838C168.917 181.439 169.357 181.828 169.821 181.907C170.008 182.223 170.349 182.414 170.789 182.239C172.787 181.448 176.703 176.249 174.539 174.228Z" fill="#838383" fill-opacity="0.8"/>
<path d="M172.201 190.921C172.346 190.535 172.274 190.076 171.808 189.831C169.804 188.778 167.781 187.912 165.5 188.573C164.113 188.977 163.225 190.182 163.934 191.564C164.556 192.774 166.215 193.391 167.452 193.627C169.226 193.967 171.019 193.497 172.345 192.247C172.798 191.82 172.601 191.243 172.201 190.921Z" fill="#838383" fill-opacity="0.8"/>
<path d="M178.167 188.98C178.253 188.239 177.521 187.543 176.803 188.013C174.75 189.358 173.807 191.652 173.087 193.922C172.924 194.131 172.841 194.38 172.874 194.616C172.84 194.729 172.804 194.842 172.77 194.952C172.431 196.08 174.207 196.461 174.544 195.338C174.552 195.308 174.563 195.276 174.572 195.246C176.655 194.667 177.975 190.653 178.167 188.98Z" fill="#838383" fill-opacity="0.8"/>
<path d="M189.849 195.164C189.789 194.544 189.265 194.203 188.674 194.335C185.733 194.994 184.569 199.426 183.875 201.905C183.557 203.04 185.331 203.423 185.649 202.292C185.661 202.251 185.674 202.198 185.686 202.155C185.86 202.173 186.046 202.146 186.237 202.019C188.356 200.594 190.101 197.766 189.849 195.164Z" fill="#838383" fill-opacity="0.8"/>
<path d="M195.964 204.138C195.235 202.986 194.188 201.715 193.032 200.851C192.918 200.625 192.733 200.501 192.515 200.472C192.5 200.463 192.485 200.451 192.471 200.443C191.533 199.883 190.755 201.24 191.457 201.913C191.732 203.205 192.294 204.473 192.843 205.653C193.312 206.657 194.249 208.55 195.66 208.057C197.412 207.445 196.643 205.211 195.964 204.138Z" fill="#838383" fill-opacity="0.8"/>
<path d="M198.203 198.707C199.755 196.64 201.336 194.318 201.532 191.674C201.579 191.049 200.871 190.72 200.357 190.845C197.094 191.647 196.299 196.418 196.065 199.206C195.968 200.377 197.786 200.28 197.881 199.12C197.886 199.074 197.893 199.014 197.897 198.967C198.006 198.913 198.111 198.831 198.203 198.707Z" fill="#838383" fill-opacity="0.8"/>
<path d="M203.913 197.414C203.905 197.411 203.896 197.415 203.886 197.411C203.286 196.891 202.109 197.413 202.418 198.353C203.149 200.57 204.556 202.659 206.437 204.043C206.922 204.399 207.538 204.354 207.865 203.798C209.504 201.004 206.419 198.104 203.913 197.414Z" fill="#838383" fill-opacity="0.8"/>
<path d="M156.173 231.952C160.214 224.705 165.657 218.523 170.949 212.182C175.579 206.632 179.237 200.68 182.859 194.437C191.458 179.619 197.05 163.785 202.459 147.602C208.117 130.67 213.678 113.711 221.363 97.5636C228.859 81.8153 237.696 65.8456 251.458 54.733C252.285 54.0653 251.412 52.6451 250.578 53.3181C225.583 73.5019 213.96 108.095 204.079 137.5C198.149 155.139 192.686 172.848 183.831 189.295C179.34 197.635 174.352 205.506 168.281 212.78C163.368 218.668 158.445 224.456 154.698 231.175C154.174 232.116 155.65 232.89 156.173 231.952Z" fill="#689D71" fill-opacity="0.8"/>
<path d="M216.775 63.21C216.34 74.4451 219.08 85.4149 219.605 96.5981C219.634 97.1982 220.356 97.6315 220.877 97.2687C230.052 90.8794 239.101 84.5232 250.198 82.0389C251.249 81.8042 250.747 80.2136 249.705 80.4467C239.839 82.6547 231.557 87.828 223.34 93.5237C220.034 95.8146 221.053 92.6484 220.781 89.886C220.487 86.8965 220.035 83.9197 219.628 80.9444C218.815 75.0154 218.209 69.1272 218.44 63.1363C218.481 62.0625 216.816 62.1421 216.775 63.21Z" fill="#689D71" fill-opacity="0.8"/>
<path d="M194.841 84.7707C197.709 91.7478 197.613 99.0035 199.38 106.196C201.388 114.371 204.958 122.057 205.83 130.496C205.887 131.057 206.573 131.578 207.103 131.167C218.386 122.401 230.557 115.021 242.882 107.832C243.813 107.289 242.927 105.877 242.002 106.417C235.157 110.408 228.352 114.453 221.689 118.743C218.377 120.876 215.144 123.128 211.943 125.425C209.225 127.376 207.806 130.205 206.896 125.996C205.263 118.447 201.862 111.354 200.663 103.712C199.619 97.0475 199.024 90.5823 196.434 84.2773C196.028 83.2905 194.431 83.7754 194.841 84.7707Z" fill="#689D71" fill-opacity="0.8"/>
<path d="M180.23 118.037C182.496 134.992 187.13 151.951 194.339 167.479C194.54 167.911 195.127 167.941 195.487 167.746C207.681 161.212 220.637 154.452 230.022 144.047C230.743 143.248 229.526 142.108 228.807 142.906C223.927 148.316 218.026 152.516 211.923 156.436C208.986 158.324 205.954 160.063 202.92 161.789C200.232 163.316 196.087 167.434 194.228 163.225C187.953 149.011 183.95 133.334 181.895 117.963C181.755 116.908 180.087 116.969 180.23 118.037Z" fill="#689D71" fill-opacity="0.8"/>
<path d="M157.464 148.931C162.462 168.017 171.251 185.973 174.46 205.54C174.541 206.033 174.988 206.509 175.538 206.299C187.569 201.721 200.489 200.233 212.432 195.384C213.421 194.982 212.937 193.387 211.939 193.793C204.862 196.665 197.498 198.414 190.09 200.201C186.433 201.084 182.812 202.064 179.223 203.192C174.303 204.742 175.206 200.165 174.312 196.311C170.523 179.977 163.301 164.651 159.056 148.437C158.782 147.397 157.192 147.894 157.464 148.931Z" fill="#689D71" fill-opacity="0.8"/>
<path d="M252.609 51.0059C248.745 48.9699 245.563 55.0095 249.427 57.0456C253.291 59.0816 256.474 53.042 252.609 51.0059Z" fill="#F9C1A6" fill-opacity="0.9"/>
<path d="M220.184 61.1878C216.32 59.1518 213.138 65.1914 217.002 67.2274C220.868 69.2641 224.05 63.2245 220.184 61.1878Z" fill="#F9C1A6" fill-opacity="0.9"/>
<path d="M253.166 78.0497C249.3 76.0131 246.118 82.0527 249.983 84.0893C253.849 86.126 257.031 80.0864 253.166 78.0497Z" fill="#F9C1A6" fill-opacity="0.9"/>
<path d="M197.471 83.2757C196.983 81.6788 195.376 80.7131 193.769 80.9336C192.375 80.719 190.913 81.3774 190.218 82.6962C189.354 84.3359 189.985 86.4451 191.625 87.2953C192.81 87.9121 193.95 87.9418 195.221 87.5459C196.989 86.9942 198.013 85.0443 197.471 83.2757Z" fill="#F9C1A6" fill-opacity="0.9"/>
<path d="M245.868 103.529C242.002 101.492 238.82 107.532 242.686 109.568C246.55 111.604 249.732 105.565 245.868 103.529Z" fill="#F9C1A6" fill-opacity="0.9"/>
<path d="M183.054 115.191C179.188 113.155 176.006 119.195 179.871 121.232C183.737 123.269 186.92 117.228 183.054 115.191Z" fill="#F9C1A6" fill-opacity="0.9"/>
<path d="M230.607 140.245C226.741 138.209 223.558 144.25 227.424 146.286C231.288 148.322 234.471 142.281 230.607 140.245Z" fill="#F9C1A6" fill-opacity="0.9"/>
<path d="M160.275 144.859C156.409 142.822 153.227 148.863 157.092 150.9C160.958 152.937 164.141 146.896 160.275 144.859Z" fill="#F9C1A6" fill-opacity="0.9"/>
<path d="M213.776 191.569C209.912 189.533 206.73 195.572 210.595 197.608C214.46 199.644 217.642 193.605 213.776 191.569Z" fill="#F9C1A6" fill-opacity="0.9"/>
</g>
<path d="M160.586 126.15C167.468 121.036 165.317 108.735 164.757 101.481C163.78 88.8115 160.154 71.3724 168.889 60.5592C169.565 59.7224 168.169 58.8102 167.499 59.6375C160.823 67.9043 161.473 79.9439 162.168 89.9186C162.632 96.5619 163.38 103.188 163.583 109.848C163.734 114.808 163.886 121.629 159.474 124.906C158.613 125.548 159.727 126.787 160.586 126.15Z" fill="#838383"/>
<path d="M169.041 77.8692C166.779 74.7654 162.514 82.6104 161.724 84.0716C161.315 84.831 161.966 85.5695 162.602 85.5872C162.859 85.8084 163.218 85.9124 163.612 85.7412C164.989 85.1403 166.323 83.6951 167.36 82.6557C168.508 81.5081 170.261 79.5479 169.041 77.8692Z" fill="#689D71"/>
<path d="M163.921 94.7424C163.888 94.6782 163.87 94.6097 163.826 94.5439C161.876 91.7849 158.384 83.4235 153.823 85.6209C153.464 85.7946 153.196 86.2763 153.318 86.6802C154.721 91.3775 159.403 93.369 162.841 96.3413C163.777 97.1498 164.814 95.5555 163.921 94.7424Z" fill="#689D71"/>
<path d="M154.67 134.939C149.974 133.119 145.427 130.082 141.371 127.539C136.443 124.577 130.684 121.389 128.391 115.912C126.293 111.385 126.188 105.068 131.886 103.118C137.056 101.472 142.036 107.593 144.963 111.357C150.284 118.2 151.946 126.38 154.554 134.368" fill="#689D71"/>
<path d="M176.28 183.244C173.407 174.911 176.897 161.127 181.514 153.852C184.364 149.506 188.9 140.859 194.871 140.242C202.199 139.546 199.299 150.435 197.88 154.092C194.926 160.833 190.567 166.474 185.753 171.811C182.515 175.24 178.15 178.902 177.111 183.471" fill="#689D71"/>
<path d="M151.969 172.93C144.485 164.15 129.579 161.433 126.423 148.8C125.231 143.893 128.036 137.38 134.012 138.74C139.614 140.177 142.894 146.644 145.219 151.32C147.241 155.466 148.696 159.727 149.963 164.024C150.732 166.841 150.822 170.192 151.969 172.93Z" fill="#689D71"/>
<path d="M173.27 127.791C180.467 131.281 202.141 126.68 199.444 115.343C196.286 102.713 180.086 122.642 175.904 125.276C175.036 125.849 174.169 126.422 173.304 126.992" fill="#689D71"/>
<path d="M126.64 71.4969C119.878 72.0778 104.295 86.3383 107.597 89.0361C110.954 88.1553 113.767 82.6327 116.248 80.3433C118.544 78.0945 121.751 76.4525 124.617 75.0769C123.172 81.5122 116.344 93.3976 120.024 96.0201C122.905 97.6131 125.777 80.7856 128.023 76.3658C129.256 81.465 134.232 95.3116 137.166 92.337C139.878 90.2023 132.534 79.214 130.74 75.2218C132.666 75.0279 149.004 85.7724 149.629 82.0793C150.333 78.7675 136.176 73.9173 133.715 72.4365C136.837 69.425 142.994 68.7686 146.728 66.8209C147.97 66.1725 151.591 64.6421 151.056 62.9713C150.441 60.9152 146.707 62.863 145.614 63.2837C139.804 65.652 133.289 70.3446 127.018 71.4202" fill="#689D71"/>
<path d="M182.223 92.7148C178.468 90.7552 165.549 93.0156 166.399 95.5369C168.459 96.2 171.762 94.2405 173.826 93.8754C175.781 93.4646 178.009 93.6759 179.975 93.9172C177.088 96.8059 169.565 100.758 170.638 103.364C171.629 105.166 178.7 97.2988 181.342 95.732C180.309 98.821 178.354 107.754 180.881 107.177C183.017 106.965 182.778 98.7396 183.152 96.0405C184.233 96.5868 189.286 107.696 190.836 105.969C192.301 104.467 186.446 97.1793 185.637 95.5763C188.279 95.0423 191.738 96.7625 194.346 96.9891C195.218 97.0677 197.628 97.4787 197.901 96.422C198.255 95.1378 195.646 94.9073 194.931 94.7615C191.088 94.0578 186.104 94.3385 182.446 92.8001" fill="#689D71"/>
<path d="M169.12 58.752C166.89 55.1301 154.631 50.3895 154.077 52.9893C155.509 54.6208 159.345 54.6509 161.309 55.4043C163.198 56.0627 165.005 57.3975 166.57 58.6183C162.617 59.5998 154.137 59.0983 153.73 61.8858C153.662 63.9392 163.752 60.8577 166.823 60.8799C164.358 62.9904 158.125 69.6338 160.594 70.4452C162.536 71.3676 166.523 64.1981 168.222 62.0801C168.871 63.1047 167.554 75.2379 169.766 74.5586C171.791 74.0286 170.472 64.7576 170.594 62.9668C173.136 63.8748 175.237 67.1364 177.362 68.6803C178.074 69.1969 179.936 70.7967 180.706 70.0308C181.666 69.1119 179.541 67.568 179 67.0713C176.053 64.4835 171.628 62.1473 169.267 58.9398" fill="#689D71"/>
<path d="M129.16 73.0418C129.68 64.5195 133.835 53.5117 143.595 51.8171C153.737 50.1468 151.678 58.5681 144.517 61.9891C137.76 65.0465 133.002 67.0691 129.496 73.8401" fill="#F9C1A6"/>
<path d="M127.898 73.8164C126.225 71.3821 123.98 68.0735 121.327 66.633C115.947 63.3697 103.553 64.3014 100.429 58.5988C98.5228 55.024 100.169 51.5195 104.022 51.1324C108.253 50.6686 113.19 55.6072 116.375 57.7356C122.364 62.0658 126.052 66.6635 128.954 73.206" fill="#F9C1A6"/>
<path d="M129.031 73.5861C122.234 74.9672 112.116 77.4191 111.93 86.1728C111.441 95.3853 119.441 92.1748 123.12 87.0678C125.823 82.9552 125.494 77.4751 128.732 74.0428" fill="#F9C1A6"/>
<path d="M183.04 94.3678C186.13 90.0717 191.954 85.6857 197.656 88.0687C203.55 90.5894 199.682 94.3183 194.78 93.7144C190.212 93.0548 187.036 92.5217 182.952 94.8999" fill="#F9C1A6"/>
<path d="M182.118 94.3533C182.044 92.5153 181.952 90.0277 181.032 88.3832C179.277 84.8676 172.442 81.2047 172.681 77.1642C172.856 74.6481 174.879 73.3609 177.039 74.4499C179.42 75.6248 180.387 79.8718 181.363 82.0546C183.087 86.3344 183.508 89.9796 182.877 94.3881" fill="#F9C1A6"/>
<path d="M182.791 94.6124C178.756 93.0566 172.616 90.9558 169.628 95.4869C166.325 100.157 171.597 101.152 175.224 99.7051C178.009 98.4535 179.646 95.469 182.484 94.7496" fill="#F9C1A6"/>
<path d="M168.977 60.5879C173.824 58.5052 181.066 57.7615 184.753 62.7473C188.535 67.9545 183.312 69.149 179.404 66.0953C175.813 63.1719 173.355 61.0726 168.631 60.9997" fill="#F9C1A6"/>
<path d="M168.194 60.0987C169.063 58.4839 170.255 56.3083 170.302 54.4226C170.586 50.5036 166.573 43.833 168.838 40.4952C170.272 38.4323 172.671 38.3748 173.971 40.4238C175.419 42.6629 174.086 46.7977 173.814 49.1742C173.114 53.7315 171.617 57.0737 168.826 60.5198" fill="#F9C1A6"/>
<path d="M168.639 60.6699C165.963 57.2531 161.755 52.2781 156.875 54.6138C151.657 56.9068 155.682 60.4876 159.538 61.1219C162.567 61.4861 165.499 59.7774 168.304 60.6278" fill="#F9C1A6"/>
<path d="M129.485 73.8899C124.54 66.9706 110.912 61.8171 103.988 68.375C101.43 71.2718 99.4137 76.8299 103.731 78.7269C107.139 80.0168 110.298 76.2048 113.161 74.8298C118.218 72.6146 124.114 72.6044 129.186 74.3479" fill="#FFDAB9"/>
<path d="M129.109 73.9664C126.584 67.3485 110.755 43.6214 123.206 39.1117C133.091 35.5181 129.613 68.7141 129.485 73.8899" fill="#FFDAB9"/>
<path d="M129.109 73.9664C133.503 76.2423 143.491 78.968 147.406 75.0038C153.274 69.0563 144.494 66.4822 139.663 67.8612C136.264 68.5518 133.631 71.0678 130.386 72.519" fill="#FFDAB9"/>
<path d="M182.932 94.9238C182.614 89.6359 177.138 82.3647 171.326 83.4857C169.02 84.1489 166.124 86.3919 167.771 88.8328C169.137 90.6504 172.061 89.7108 174.022 89.9478C177.417 90.4784 180.526 92.4481 182.622 95.0631" fill="#FFDAB9"/>
<path d="M182.707 94.8354C183.562 90.5174 183.064 72.7678 191.113 74.5719C197.506 75.9994 184.709 92.2485 182.932 94.9238" fill="#FFDAB9"/>
<path d="M182.707 94.8354C184.271 97.5041 188.631 102.281 192.003 101.51C197.06 100.357 193.284 96.0647 190.285 95.1665C188.267 94.3942 186.048 94.8315 183.859 94.5061" fill="#FFDAB9"/>
<path d="M168.601 61.0085C171.022 56.3137 170.021 47.2556 164.453 45.2113C162.132 44.5891 158.499 45.0102 158.667 47.953C158.918 50.2178 161.915 50.9233 163.479 52.1428C166.128 54.3489 167.794 57.6459 168.263 60.967" fill="#FFDAB9"/>
<path d="M168.453 60.818C171.39 57.5626 180.009 42.0968 186.01 47.8027C190.78 52.3317 171.492 59.6373 168.601 61.0085" fill="#FFDAB9"/>
<path d="M168.453 60.818C168.436 63.9112 169.752 70.2564 173.043 71.3427C177.979 72.9658 176.918 67.3403 174.796 65.019C173.459 63.3124 171.327 62.5403 169.612 61.1309" fill="#FFDAB9"/>
<path d="M126.622 72.3592C128.184 77.7194 131.846 81.2788 135.641 85.218C141.201 90.9864 146.726 96.5266 150.838 103.471C159.804 118.61 160.272 138.045 161.871 155.086C164.758 185.873 175.192 216.255 199.02 237.161C199.817 237.86 201.072 236.759 200.264 236.051C174.95 213.84 166.012 182.202 163.047 149.817C161.635 134.414 160.203 118.585 153.293 104.505C150.682 99.1908 146.832 94.5975 142.847 90.2751C137.763 84.7583 130.425 79.4804 128.255 72.0273C127.957 71.0034 126.321 71.3264 126.622 72.3592Z" fill="#838383"/>
<path d="M180.019 239.635C172.699 230.054 169.187 216.864 165.4 205.565C160.646 191.386 157.699 176.366 159.982 161.441C163.634 137.564 184.517 120.039 182.683 94.7784C182.604 93.7086 180.972 94.0538 181.049 95.1103C182.185 110.738 174.347 123.695 167.205 136.867C161.613 147.179 158.089 158.071 157.446 169.813C156.735 182.794 160.383 196.285 164.616 208.421C168.403 219.279 171.713 231.502 178.775 240.746C179.427 241.6 180.668 240.485 180.019 239.635Z" fill="#838383"/>
<path d="M162.737 150.139C157.979 134.401 146.487 121.215 134.384 110.503C133.589 109.801 132.335 110.901 133.14 111.615C145.011 122.12 156.436 135.031 161.104 150.471C161.412 151.492 163.049 151.169 162.737 150.139Z" fill="#838383"/>
<path d="M176.729 204.81C172.609 184.292 183.506 164.516 193.076 147.151C193.59 146.215 192.206 145.287 191.684 146.231C181.88 164.026 170.88 184.145 175.096 205.142C175.308 206.197 176.941 205.864 176.729 204.81Z" fill="#838383"/>
<path d="M162.482 196.612C158.751 177.591 146.443 161.615 134.446 146.94C133.766 146.106 132.523 147.219 133.202 148.051C145.021 162.506 157.173 178.203 160.849 196.944C161.055 198 162.688 197.666 162.482 196.612Z" fill="#838383"/>
<path d="M173.852 127.9C181.623 127.474 190.077 124.599 194.44 117.752C195.017 116.846 193.629 115.924 193.05 116.83C189.026 123.145 181.142 125.842 173.966 126.237C172.906 126.296 172.783 127.96 173.852 127.9Z" fill="#838383"/>
<path d="M188.467 161.948L188.545 162.328C188.794 163.554 190.68 163.17 190.431 161.945L190.354 161.564C190.105 160.339 188.218 160.722 188.467 161.948Z" fill="#838383"/>
<path d="M190.633 156.158C189.416 156.406 189.803 158.309 191.02 158.062C192.237 157.815 191.851 155.911 190.633 156.158Z" fill="#838383"/>
<path d="M184.268 152.897L184.079 152.935C182.863 153.183 183.249 155.084 184.465 154.836L184.655 154.798C185.873 154.551 185.486 152.649 184.268 152.897Z" fill="#838383"/>
<path d="M196.133 143.55C194.914 143.798 195.301 145.7 196.52 145.453C197.735 145.206 197.348 143.303 196.133 143.55Z" fill="#838383"/>
<path d="M186.498 119.359L186.309 119.398C185.092 119.645 185.479 121.546 186.695 121.299L186.885 121.261C188.101 121.013 187.715 119.112 186.498 119.359Z" fill="#838383"/>
<path d="M189.126 115.853C187.909 116.1 188.295 118.004 189.513 117.757C190.731 117.509 190.344 115.606 189.126 115.853Z" fill="#838383"/>
<path d="M196.668 120.066C195.45 120.313 195.837 122.216 197.055 121.968C198.271 121.721 197.885 119.819 196.668 120.066Z" fill="#838383"/>
<path d="M137.016 109.009L137.093 109.389C137.342 110.616 139.229 110.233 138.98 109.006L138.902 108.626C138.653 107.399 136.766 107.782 137.016 109.009Z" fill="#838383"/>
<path d="M141.408 111.285C140.191 111.533 140.577 113.435 141.795 113.188C143.013 112.94 142.626 111.038 141.408 111.285Z" fill="#838383"/>
<path d="M134.476 115.866C133.259 116.113 133.646 118.014 134.862 117.767C136.079 117.52 135.692 115.618 134.476 115.866Z" fill="#838383"/>
<path d="M142.867 124.263C141.649 124.51 142.035 126.413 143.253 126.165C144.471 125.918 144.084 124.015 142.867 124.263Z" fill="#838383"/>
<path d="M133.976 155.983L134.015 156.173C134.264 157.398 136.153 157.014 135.904 155.789L135.866 155.599C135.617 154.374 133.727 154.758 133.976 155.983Z" fill="#838383"/>
<path d="M131.002 150.05C129.786 150.298 130.172 152.2 131.389 151.953C132.607 151.705 132.22 149.803 131.002 150.05Z" fill="#838383"/>
<path d="M140.409 148.931C139.191 149.178 139.578 151.081 140.796 150.833C142.012 150.586 141.626 148.684 140.409 148.931Z" fill="#838383"/>
<g opacity="0.600006">
<path d="M128.239 73.2556C123.081 75.622 118.339 79.0129 116.475 84.5972C116.271 85.21 117.219 85.5318 117.423 84.9201C119.207 79.5698 123.77 76.4059 128.691 74.1475C129.277 73.8774 128.825 72.9869 128.239 73.2556Z" fill="#FFE1AD"/>
<path d="M129.02 73.8316C134.551 75.5146 140.702 74.0988 146.21 72.9824C146.841 72.8541 146.642 71.8742 146.011 72.0024C140.673 73.0843 134.696 74.5137 129.343 72.8842C128.726 72.6968 128.402 73.6441 129.02 73.8316Z" fill="#FFE1AD"/>
<path d="M129.408 73.9055C128.196 70.0292 124.593 67.1123 121.605 64.5437C119.598 62.8183 117.152 61.6431 114.762 60.5545C111.62 59.1236 108.175 59.312 104.936 58.2325C104.325 58.0289 104.003 58.9759 104.615 59.1809C109.156 60.6935 113.452 60.8085 117.807 63.1781C121.629 65.2573 127.084 69.8035 128.429 74.1046C128.619 74.7148 129.601 74.5194 129.408 73.9055Z" fill="#FFE1AD"/>
<path d="M128.098 73.0185C121.88 68.298 114.427 67.6831 107.211 70.397C106.608 70.6229 107.066 71.5135 107.663 71.2889C114.547 68.701 121.623 69.3558 127.545 73.8533C128.06 74.2439 128.608 73.4073 128.098 73.0185Z" fill="#FFE1AD"/>
<path d="M183.507 94.4775C184.469 91.9624 185.56 89.4929 186.456 86.9516C187.199 84.8415 187.562 82.663 188.902 80.8083C189.278 80.2842 188.444 79.7326 188.067 80.2555C186.827 81.9754 186.304 84.007 185.705 86.0131C184.873 88.7916 183.595 91.4486 182.56 94.1543C182.329 94.759 183.277 95.078 183.507 94.4775Z" fill="#FFE1AD"/>
<path d="M183.518 94.6214C186.81 92.0409 190.391 90.6725 194.601 91.2728C195.242 91.3645 195.303 90.3669 194.67 90.2766C190.193 89.6366 186.35 91.1331 182.851 93.8753C182.342 94.2725 183.011 95.0183 183.518 94.6214Z" fill="#FFE1AD"/>
<path d="M182.489 93.9829C178.908 93.4996 175.323 93.719 172.404 96.0524C171.901 96.4553 172.569 97.1998 173.072 96.7984C175.774 94.6384 179.129 94.5376 182.421 94.9804C183.061 95.0666 183.124 94.0675 182.489 93.9829Z" fill="#FFE1AD"/>
<path d="M182.576 94.8753C184.916 97.6394 188.705 98.9703 191.987 100.233C192.591 100.465 192.909 99.5159 192.31 99.284C189.181 98.0829 185.551 96.8436 183.322 94.2081C182.905 93.7159 182.16 94.3816 182.576 94.8753Z" fill="#FFE1AD"/>
<path d="M183.069 94.9559C183.683 92.3794 182.77 89.5989 181.984 87.1449C180.722 83.2081 177.844 81.307 175.306 78.3425C174.886 77.8521 174.14 78.5194 174.56 79.0097C176.498 81.2717 178.636 82.8129 180.155 85.488C181.453 87.7712 182.758 91.9714 182.122 94.6327C181.972 95.2563 182.919 95.5824 183.069 94.9559Z" fill="#FFE1AD"/>
<path d="M182.649 93.9012C180.976 89.3622 177.173 86.4287 172.487 85.4638C171.864 85.336 171.535 86.2817 172.164 86.4124C176.625 87.3304 180.162 90.0254 181.757 94.3532C181.981 94.9568 182.87 94.4999 182.649 93.9012Z" fill="#FFE1AD"/>
<path d="M169.331 60.9147C171.282 59.3822 173.282 57.9133 175.233 56.3807C177.149 54.8744 178.655 53.0022 180.935 51.9948C181.525 51.7333 181.072 50.843 180.483 51.1029C178.389 52.0277 176.823 53.6425 175.14 55.1533C173.117 56.9685 170.8 58.4909 168.664 60.1686C168.155 60.5671 168.825 61.3114 169.331 60.9147Z" fill="#FFE1AD"/>
<path d="M169.266 61.0486C173.394 60.523 177.239 61.2261 180.502 63.9209C181 64.3312 181.547 63.4936 181.055 63.0861C177.588 60.2272 173.445 59.5111 169.067 60.0687C168.428 60.1496 168.631 61.1301 169.266 61.0486Z" fill="#FFE1AD"/>
<path d="M168.694 59.9665C165.895 57.7189 162.658 56.0174 158.974 56.5347C158.335 56.625 158.538 57.6042 159.173 57.5146C162.587 57.0359 165.569 58.7348 168.142 60.8013C168.644 61.2053 169.194 60.3671 168.694 59.9665Z" fill="#FFE1AD"/>
<path d="M168.32 60.7907C168.959 64.3834 171.496 67.4515 173.685 70.2503C174.084 70.7585 174.828 70.0902 174.433 69.5828C172.349 66.9217 169.907 64.011 169.3 60.5915C169.187 59.9559 168.207 60.1577 168.32 60.7907Z" fill="#FFE1AD"/>
<path d="M168.713 61.0974C170.551 59.2138 171.179 56.3378 171.75 53.8475C172.685 49.7772 171.174 46.725 170.495 42.856C170.384 42.2201 169.404 42.4218 169.515 43.0551C170.023 45.9506 171.08 48.4733 171.023 51.4945C170.973 54.1291 169.942 58.4082 168.046 60.3514C167.599 60.8096 168.261 61.5593 168.713 61.0974Z" fill="#FFE1AD"/>
<path d="M168.881 59.9843C169.719 55.1651 167.97 50.7965 164.436 47.4927C163.968 47.0585 163.216 47.7187 163.688 48.1602C167.05 51.3003 168.68 55.3257 167.884 59.9162C167.774 60.5522 168.772 60.6119 168.881 59.9843Z" fill="#FFE1AD"/>
<path d="M129.594 72.8778C128.82 68.9398 128.16 64.9826 127.386 61.0459C126.617 57.1396 125.051 53.5978 125.224 49.534C125.254 48.8898 124.255 48.8207 124.228 49.4656C124.071 53.0893 125.158 56.4456 126.094 59.9098C127.255 64.2033 127.757 68.7151 128.614 73.077C128.739 73.7089 129.719 73.5097 129.594 72.8778Z" fill="#FFE1AD"/>
<path d="M129.727 72.9106C131.945 66.5347 135.738 61.3367 142.036 58.5602C142.627 58.3001 142.174 57.4098 141.584 57.6684C135.062 60.542 131.077 65.9804 128.78 72.5874C128.567 73.1981 129.515 73.5184 129.727 72.9106Z" fill="#FFE1AD"/>
</g>
<path d="M132.263 70.2709C131.091 68.8368 128.871 68.5641 127.245 69.2209C126.132 69.6689 125.438 70.6207 125.083 71.7107C124.342 72.7022 124.096 73.9656 124.673 75.1505C125.401 76.6503 127.379 77.5069 128.954 77.1692C129.049 77.1472 129.136 77.1119 129.228 77.0836C130.839 77.1712 132.234 76.0169 132.882 74.6063C133.539 73.1721 133.246 71.4725 132.263 70.2709Z" fill="#F48B58"/>
<path d="M185.589 93.9563C185.445 92.8099 184.368 91.9241 183.292 91.7221C182.56 91.5853 181.88 91.8499 181.332 92.3042C180.614 92.5765 180.068 93.1569 179.98 93.9748C179.869 95.0028 180.625 96.116 181.568 96.4659C181.625 96.4869 181.683 96.4956 181.739 96.514C182.562 97.098 183.677 96.9583 184.484 96.4352C185.301 95.9045 185.709 94.9182 185.589 93.9563Z" fill="#F48B58"/>
<path d="M171.378 61.555C171.841 60.4976 171.362 59.1799 170.544 58.4536C169.982 57.9557 169.264 57.8308 168.562 57.938C167.806 57.8018 167.037 58.0151 166.548 58.667C165.928 59.4936 166.009 60.8377 166.642 61.6262C166.683 61.6737 166.727 61.7109 166.765 61.7576C167.173 62.6802 168.206 63.137 169.166 63.1066C170.141 63.0743 170.991 62.4392 171.378 61.555Z" fill="#F48B58"/>
<path d="M173.966 222.94C152.779 231.799 128.335 223.778 112.486 216.762C114.986 213.287 116.326 210.358 117.781 205.839C114.225 206.196 108.539 211.494 105.79 213.992C90.2142 198.848 75.7387 181.876 61.5101 165.879C67.585 166.204 94.878 165.981 99.0494 165.994C99.6133 169.235 99.7446 171.802 100.617 175.229C102.694 173.156 103.792 171.326 105.803 167.97C117.292 173.202 128.79 180.509 139.364 187.265C151.907 195.614 168.586 211.006 173.966 222.94Z" fill="#689D71"/>
<path d="M77.3943 175.629C88.5046 181.198 99.1841 187.558 110.111 193.466C120.359 199.007 130.917 203.487 141.79 207.629C147.541 209.821 153.239 212.118 158.739 214.89C163.926 217.505 168.367 221.027 173.217 224.15C180.923 229.113 190.65 229.383 199.324 227.401C200.015 227.242 199.748 226.177 199.056 226.335C193.566 227.59 188.162 227.848 182.623 226.744C177.282 225.678 173.099 222.767 168.789 219.652C160.29 213.51 150.344 209.718 140.62 206.013C129.797 201.889 119.375 197.228 109.184 191.717C98.7525 186.077 88.5654 180.003 77.9591 174.687C77.3294 174.372 76.76 175.312 77.3943 175.629Z" fill="#838383"/>
<path d="M84.0236 185.321C87.7387 185.121 91.4263 184.587 95.1066 185.397C95.3473 185.45 95.594 185.368 95.725 185.15L95.9076 184.845C96.0039 184.685 96.0174 184.462 95.9183 184.299C93.3807 180.104 92.5038 175.078 89.4083 171.207C88.9652 170.653 88.1752 171.417 88.6136 171.965C91.2748 175.294 92.2453 179.577 94.1058 183.346C94.5579 184.261 95.1494 184.283 94.4932 184.138C93.5494 183.93 92.5593 183.89 91.5991 183.844C89.0859 183.722 86.5428 184.088 84.0356 184.223C83.3327 184.26 83.3139 185.36 84.0236 185.321Z" fill="#838383"/>
<path d="M91.3484 192.616C96.3948 192.599 101.345 191.552 106.372 191.258C106.807 191.233 107.027 190.834 106.86 190.445C105.15 186.451 104.201 182.149 101.971 178.39C101.61 177.781 100.646 178.31 101.007 178.919C103.233 182.67 104.189 186.984 105.896 190.973L106.384 190.16C101.358 190.453 96.4041 191.5 91.3604 191.518C90.6539 191.521 90.6387 192.619 91.3484 192.616Z" fill="#838383"/>
<path d="M102.935 202.781C108.81 201.29 114.584 199.436 120.46 197.945C120.812 197.855 120.965 197.464 120.807 197.148C117.876 191.261 115.86 185.007 112.156 179.521C111.762 178.937 110.797 179.463 111.193 180.049C114.364 184.747 116.312 189.968 118.606 195.114C120.011 198.265 114.564 198.39 112.224 199.066C109.048 199.986 105.874 200.902 102.668 201.715C101.981 201.889 102.248 202.955 102.935 202.781Z" fill="#838383"/>
<path d="M120.447 211.209C126.194 209.501 131.819 207.552 137.239 204.975C137.504 204.849 137.601 204.477 137.457 204.229C134.359 198.935 132.051 193.261 129.36 187.763C129.049 187.124 128.087 187.657 128.398 188.291C130.64 192.874 132.623 197.575 134.984 202.1C136.779 205.537 131.937 206.161 129.367 207.139C126.357 208.285 123.266 209.226 120.179 210.143C119.502 210.344 119.766 211.411 120.447 211.209Z" fill="#838383"/>
<path d="M130.531 218.085C137.504 216.071 144.279 213.581 150.937 210.7C151.142 210.61 151.287 210.296 151.206 210.084C149.413 205.359 147.52 200.659 144.338 196.679C143.895 196.124 143.104 196.889 143.543 197.437C145.226 199.542 146.47 201.8 147.629 204.22C148.894 206.864 151.016 209.493 147.515 210.975C141.895 213.351 136.124 215.327 130.264 217.018C129.585 217.215 129.849 218.281 130.531 218.085Z" fill="#838383"/>
<path d="M147.289 221.498C152.405 219.557 157.895 218.759 162.735 216.114C163.002 215.968 163.089 215.633 162.951 215.368C160.999 211.607 159.406 207.673 157.206 204.045C156.839 203.44 155.875 203.967 156.243 204.573C157.458 206.576 158.49 208.653 159.49 210.772C160.38 212.658 162.557 215.066 160.031 216.255C155.922 218.186 151.262 218.825 147.022 220.432C146.367 220.681 146.627 221.748 147.289 221.498Z" fill="#838383"/>
<path d="M120.084 185.968L120.391 186.152C121.878 187.044 123.25 184.757 121.763 183.865L121.455 183.681C119.969 182.79 118.597 185.077 120.084 185.968Z" fill="#838383"/>
<path d="M116.264 181.19L116.571 181.374C118.057 182.265 119.429 179.977 117.943 179.086L117.636 178.902C116.149 178.01 114.777 180.298 116.264 181.19Z" fill="#838383"/>
<path d="M122.12 180.657C121.235 182.133 123.541 183.516 124.427 182.04C125.311 180.565 123.005 179.182 122.12 180.657Z" fill="#838383"/>
<path d="M105.535 207.62C104.651 209.095 106.956 210.477 107.841 209.002C108.726 207.526 106.42 206.144 105.535 207.62Z" fill="#838383"/>
<path d="M99.0726 201.672C98.1883 203.147 100.494 204.529 101.378 203.054C102.263 201.579 99.9575 200.196 99.0726 201.672Z" fill="#838383"/>
<path d="M81.2292 169.409C80.3444 170.884 82.6491 172.266 83.5339 170.791C84.4183 169.316 82.1136 167.934 81.2292 169.409Z" fill="#838383"/>
<path d="M74.4817 169.51C73.5969 170.985 75.9023 172.368 76.7871 170.892C77.6715 169.417 75.366 168.035 74.4817 169.51Z" fill="#838383"/>
<path d="M138.459 220.311C137.574 221.787 139.878 223.169 140.764 221.693C141.648 220.218 139.343 218.836 138.459 220.311Z" fill="#838383"/>
<path d="M137.869 193.417C136.984 194.893 139.289 196.275 140.174 194.799C141.059 193.324 138.754 191.942 137.869 193.417Z" fill="#838383"/>
<path d="M77.5037 119.22C76.5202 119.736 75.6529 120.489 74.7632 121.598C72.9085 123.915 72.272 126.468 73.0328 128.597C73.3872 129.602 74.0532 130.531 75.0561 131.446C76.7036 132.918 78.6461 133.769 80.5293 133.861C80.8727 133.877 81.1983 133.872 81.5449 133.837C84.0122 133.59 86.3761 131.901 87.7082 129.423C88.6799 127.581 88.88 125.692 88.2586 124.112C87.8982 123.213 87.3078 122.519 86.9034 122.071C84.5631 119.536 80.8725 117.454 77.5037 119.22" fill="#F9C1A6"/>
<path d="M97.9814 115.607C98.043 115.776 98.1554 116.127 98.1517 116.242C98.1434 116.335 98.0391 116.558 97.8372 116.902C97.0904 118.178 96.4138 118.865 95.804 118.944C95.246 119.01 94.5757 118.593 94.0994 117.925C93.4123 116.958 93.2246 115.637 93.6322 114.632C93.9966 113.75 94.6358 113.214 95.4141 113.16C96.178 113.102 97.0121 113.589 97.518 114.469C97.7019 114.77 97.8421 115.191 97.9814 115.607V115.607ZM101.932 116.428C101.966 115.596 101.723 114.868 101.558 114.395C101.381 113.86 101.164 113.194 100.776 112.561C99.5569 110.452 97.4167 109.233 95.1493 109.391C92.9217 109.545 91.048 110.968 90.1285 113.199L90.1287 113.2C89.2217 115.427 89.5588 118.081 91.0226 120.122C92.1464 121.696 93.7821 122.644 95.4453 122.726C95.7335 122.738 96.004 122.729 96.2957 122.691C98.7482 122.372 100.209 120.324 101.109 118.803C101.482 118.162 101.884 117.396 101.932 116.428Z" fill="#F9C1A6"/>
<path d="M80.0227 107.084C80.0474 106.47 80.2253 105.942 80.5218 105.661C80.7375 105.451 80.9369 105.361 81.184 105.372L81.4658 105.419C82.1903 105.636 82.9582 106.466 83.1294 107.239C83.2479 107.687 83.1303 108.045 83.0607 108.104C82.941 108.184 82.5351 108.195 81.826 108.12C80.3939 107.97 80.1378 107.714 80.0954 107.64C80.0941 107.634 80.0125 107.501 80.0227 107.084V107.084ZM81.4492 111.879C81.6713 111.9 81.9217 111.927 82.1968 111.941C83.0626 111.984 84.1633 111.91 85.1576 111.248C86.6072 110.283 87.269 108.323 86.8171 106.373C86.3225 104.281 84.5642 102.397 82.5236 101.798C80.8434 101.298 79.1607 101.72 77.8867 102.946C76.8878 103.92 76.3077 105.346 76.2575 106.968C76.2304 107.97 76.4138 108.803 76.8181 109.518C77.9608 111.519 80.4064 111.769 81.4492 111.879" fill="#F9C1A6"/>
<defs>
<clipPath id="clip0">
<rect width="99.769" height="232.795" fill="white" transform="matrix(0.925693 0.378276 -0.561918 0.827193 221.645 20.3902)"/>
</clipPath>
</defs>
</svg>
