<svg width="1000" height="667" viewBox="0 0 1000 667" fill="none" xmlns="http://www.w3.org/2000/svg">
<g clip-path="url(#clip0)">
<path d="M929.265 170.956C917.28 149.904 890.5 142.554 869.448 154.54C858.722 160.646 851.578 170.598 848.712 181.672L788.842 170.864C789.217 166.448 789.142 161.928 788.548 157.353C785.506 133.968 769.996 115.27 749.576 107.042L751.533 99.4009L751.498 99.3929L755.75 83.1875C761.512 84.0062 767.565 83.2369 773.232 80.5929C788.78 73.3342 795.5 54.8462 788.24 39.2982C780.982 23.7502 762.494 17.0302 746.946 24.2889C731.398 31.5462 724.678 50.0342 731.937 65.5822C735.634 73.5035 742.253 79.1169 749.906 81.7742L743.738 105.017C735.621 102.644 726.896 101.861 717.969 103.022C683.477 107.509 659.152 139.108 663.638 173.6C665.924 191.169 675.252 206.088 688.404 215.917L664.593 253.274C634.786 233.705 594.35 238.138 569.594 265.349C542.17 295.492 544.374 342.158 574.516 369.582C604.66 397.006 651.326 394.802 678.749 364.66C706.045 334.658 703.978 288.297 674.24 260.822L698.798 222.226C709.437 227.356 721.63 229.568 734.217 227.932C761.034 224.444 781.697 204.564 787.46 179.68L824.093 185.969L824.102 185.917L847.389 190.054C846.894 198.254 848.665 206.685 853.032 214.356C865.016 235.408 891.797 242.757 912.848 230.772C933.9 218.788 941.249 192.006 929.265 170.956Z" fill="#6BC0DE"/>
<g opacity="0.509995">
<g opacity="0.509995">
<g opacity="0.509995">
<g opacity="0.509995">
<g opacity="0.509995">
<g opacity="0.509995">
<path opacity="0.509995" d="M785.053 209.243C785.053 212.119 759.436 214.451 727.836 214.451C696.235 214.451 670.619 212.119 670.619 209.243C670.619 206.367 696.235 204.035 727.836 204.035C759.436 204.035 785.053 206.367 785.053 209.243Z" fill="url(#paint0_radial)"/>
</g>
</g>
</g>
</g>
</g>
</g>
<g opacity="0.509995">
<g opacity="0.509995">
<g opacity="0.509995">
<g opacity="0.509995">
<g opacity="0.509995">
<g opacity="0.509995">
<path opacity="0.509995" d="M889.653 142.576C889.653 144.203 873.716 145.522 854.057 145.522C834.4 145.522 818.461 144.203 818.461 142.576C818.461 140.95 834.4 139.631 854.057 139.631C873.716 139.631 889.653 140.95 889.653 142.576Z" fill="url(#paint1_radial)"/>
</g>
</g>
</g>
</g>
</g>
</g>
<g opacity="0.509995">
<g opacity="0.509995">
<g opacity="0.509995">
<g opacity="0.509995">
<g opacity="0.509995">
<g opacity="0.509995">
<path opacity="0.509995" d="M687.512 364.656C687.512 367.332 659.003 369.502 623.836 369.502C588.668 369.502 560.16 367.332 560.16 364.656C560.16 361.98 588.668 359.811 623.836 359.811C659.003 359.811 687.512 361.98 687.512 364.656Z" fill="url(#paint2_radial)"/>
</g>
</g>
</g>
</g>
</g>
</g>
<g opacity="0.600006">
<g opacity="0.600006">
<path opacity="0.600006" d="M598.552 282.666V274.743C598.552 268.702 603.63 263.804 609.894 263.804C616.158 263.804 621.237 268.702 621.237 274.743V322.652C621.237 323.871 622.266 324.835 623.482 324.755C624.592 324.683 625.453 323.763 625.453 322.652V274.743C625.453 268.702 630.532 263.804 636.797 263.804C643.061 263.804 648.138 268.702 648.138 274.743V282.943" stroke="#99E4FF" stroke-width="3.41867" stroke-miterlimit="10" stroke-linecap="round"/>
</g>
</g>
<path d="M600.834 365.76C596.474 365.76 592.94 362.227 592.94 357.867V279.046H608.728V357.867C608.728 362.227 605.194 365.76 600.834 365.76Z" fill="#EDFAFF"/>
<path d="M608.728 279.046H592.94V301.71H608.728V279.046Z" fill="#EDFAFF"/>
<path d="M594.816 304.679V356.587C594.816 360.358 597.511 363.415 600.835 363.415C604.157 363.415 606.851 360.358 606.851 356.587V304.679H594.816Z" fill="url(#paint3_linear)"/>
<g opacity="0.220001">
<g opacity="0.220001">
<path opacity="0.220001" d="M601.381 278.429L608.797 278.268L608.758 280.871L608.572 301.709V357.867C608.572 361.988 605.409 365.371 601.381 365.727V278.429Z" fill="white"/>
</g>
</g>
<path d="M622.488 365.76C618.128 365.76 614.593 362.227 614.593 357.867V279.045H630.381V357.867C630.381 362.227 626.848 365.76 622.488 365.76Z" fill="#EDFAFF"/>
<path d="M630.381 279.046H614.593V301.71H630.381V279.046Z" fill="#EDFAFF"/>
<path d="M616.469 304.679V356.587C616.469 360.358 619.163 363.415 622.488 363.415C625.811 363.415 628.505 360.358 628.505 356.587V304.679H616.469Z" fill="url(#paint4_linear)"/>
<g opacity="0.220001">
<g opacity="0.220001">
<path opacity="0.220001" d="M623.035 278.429L630.389 278.315L630.4 280.871L630.225 301.709V357.867C630.225 361.988 627.063 365.371 623.035 365.727V278.429Z" fill="white"/>
</g>
</g>
<path d="M603.001 321.163C602.776 320.315 603.281 319.445 604.13 319.22C604.977 318.996 605.848 319.5 606.073 320.348C606.297 321.196 605.792 322.065 604.944 322.291C604.096 322.516 603.226 322.011 603.001 321.163Z" fill="#40B8E7"/>
<path d="M604.588 326.521C604.993 328.048 604.084 329.612 602.559 330.017C601.032 330.421 599.467 329.513 599.063 327.988C598.659 326.463 599.567 324.897 601.092 324.492C602.617 324.087 604.183 324.996 604.588 326.521Z" fill="#3B4295"/>
<path d="M602.021 333.654C602.294 334.682 601.682 335.737 600.654 336.009C599.626 336.282 598.571 335.67 598.299 334.642C598.026 333.614 598.639 332.559 599.666 332.287C600.694 332.014 601.749 332.626 602.021 333.654Z" fill="#40B8E7"/>
<path d="M603.016 311.346C603.223 312.127 602.759 312.929 601.978 313.137C601.196 313.343 600.394 312.878 600.187 312.097C599.98 311.317 600.444 310.514 601.226 310.307C602.007 310.099 602.81 310.565 603.016 311.346Z" fill="#3B4295"/>
<path d="M601.627 305.868C601.696 306.128 601.542 306.394 601.282 306.463C601.022 306.532 600.756 306.376 600.687 306.118C600.618 305.859 600.772 305.592 601.032 305.523C601.291 305.454 601.558 305.61 601.627 305.868Z" fill="#40B8E7"/>
<path d="M600.397 302.06C600.499 302.45 600.267 302.848 599.879 302.951C599.49 303.055 599.091 302.823 598.987 302.434C598.885 302.044 599.117 301.646 599.506 301.543C599.894 301.44 600.294 301.671 600.397 302.06Z" fill="#40B8E7"/>
<path d="M624.418 332.553C624.192 331.705 624.698 330.836 625.546 330.61C626.394 330.385 627.263 330.89 627.488 331.738C627.714 332.586 627.208 333.456 626.36 333.681C625.512 333.906 624.643 333.401 624.418 332.553Z" fill="#F06522"/>
<path d="M626.005 337.911C626.41 339.438 625.501 341.002 623.975 341.407C622.449 341.813 620.883 340.903 620.478 339.378C620.075 337.853 620.982 336.287 622.509 335.883C624.034 335.478 625.599 336.386 626.005 337.911Z" fill="#FBBE41"/>
<path d="M623.437 345.045C623.71 346.073 623.098 347.128 622.07 347.4C621.042 347.673 619.988 347.06 619.716 346.032C619.442 345.005 620.054 343.951 621.082 343.679C622.11 343.405 623.165 344.017 623.437 345.045Z" fill="#F06522"/>
<path d="M624.433 322.737C624.64 323.518 624.176 324.319 623.394 324.527C622.613 324.734 621.81 324.269 621.604 323.487C621.397 322.706 621.861 321.905 622.642 321.698C623.424 321.49 624.226 321.955 624.433 322.737Z" fill="#FBBE41"/>
<path d="M623.043 317.259C623.112 317.517 622.959 317.784 622.697 317.853C622.439 317.923 622.173 317.767 622.104 317.508C622.035 317.248 622.189 316.983 622.449 316.913C622.708 316.844 622.975 316.999 623.043 317.259Z" fill="#F06522"/>
<path d="M621.813 313.451C621.916 313.84 621.684 314.239 621.296 314.342C620.907 314.446 620.508 314.214 620.404 313.824C620.301 313.435 620.533 313.036 620.923 312.934C621.311 312.83 621.711 313.062 621.813 313.451Z" fill="#F06522"/>
<path d="M608.912 279.033H592.911C592.188 279.033 591.603 278.448 591.603 277.724C591.603 277.001 592.188 276.414 592.911 276.414H608.912C609.635 276.414 610.22 277.001 610.22 277.724C610.22 278.448 609.635 279.033 608.912 279.033Z" fill="#EDFAFF"/>
<path d="M630.586 279.033H614.546C613.834 279.033 613.256 278.456 613.256 277.744V277.704C613.256 276.992 613.834 276.414 614.546 276.414H630.586C631.298 276.414 631.875 276.992 631.875 277.704V277.744C631.875 278.456 631.298 279.033 630.586 279.033Z" fill="#EDFAFF"/>
<path d="M643.69 365.76C639.33 365.76 635.796 362.227 635.796 357.867V279.045H651.583V357.867C651.583 362.227 648.05 365.76 643.69 365.76Z" fill="#EDFAFF"/>
<path d="M651.583 279.046H635.796V301.71H651.583V279.046Z" fill="#EDFAFF"/>
<path d="M637.671 304.679V356.587C637.671 360.358 640.365 363.415 643.691 363.415C647.013 363.415 649.707 360.358 649.707 356.587V304.679H637.671Z" fill="url(#paint5_linear)"/>
<g opacity="0.220001">
<g opacity="0.220001">
<path opacity="0.220001" d="M644.237 278.429L651.593 278.315L651.602 280.871L651.427 301.709V357.867C651.427 361.988 648.266 365.371 644.237 365.727V278.429Z" fill="white"/>
</g>
</g>
<path d="M645.619 332.553C645.394 331.705 645.899 330.836 646.749 330.61C647.595 330.385 648.466 330.89 648.691 331.738C648.915 332.586 648.411 333.456 647.562 333.681C646.714 333.906 645.845 333.401 645.619 332.553Z" fill="#FFCAFE"/>
<path d="M643.711 335.883C642.185 336.287 641.277 337.852 641.681 339.378C642.087 340.904 643.652 341.812 645.177 341.408C646.703 341.002 647.612 339.438 647.207 337.911C646.867 336.631 645.712 335.786 644.447 335.787C644.204 335.787 643.956 335.818 643.711 335.883" fill="url(#paint6_linear)"/>
<path d="M644.639 345.045C644.912 346.073 644.3 347.128 643.272 347.4C642.244 347.673 641.19 347.06 640.918 346.032C640.644 345.005 641.258 343.951 642.284 343.679C643.312 343.405 644.367 344.017 644.639 345.045Z" fill="#FFCAFE"/>
<path d="M643.845 321.698C643.064 321.904 642.599 322.706 642.805 323.487C643.012 324.268 643.815 324.734 644.596 324.527C645.377 324.32 645.841 323.518 645.636 322.738C645.461 322.082 644.869 321.648 644.221 321.648C644.097 321.648 643.971 321.664 643.845 321.698" fill="url(#paint7_linear)"/>
<path d="M644.246 317.259C644.315 317.518 644.16 317.784 643.9 317.854C643.642 317.923 643.375 317.767 643.306 317.508C643.236 317.248 643.391 316.983 643.651 316.914C643.91 316.844 644.176 316.999 644.246 317.259Z" fill="#FFCAFE"/>
<path d="M643.015 313.451C643.118 313.84 642.886 314.239 642.498 314.342C642.109 314.446 641.71 314.214 641.607 313.824C641.503 313.435 641.735 313.036 642.125 312.934C642.514 312.83 642.913 313.062 643.015 313.451Z" fill="#FFCAFE"/>
<path d="M651.787 279.033H635.749C635.037 279.033 634.458 278.456 634.458 277.744V277.704C634.458 276.992 635.037 276.414 635.749 276.414H651.787C652.499 276.414 653.077 276.992 653.077 277.704V277.744C653.077 278.456 652.499 279.033 651.787 279.033Z" fill="#EDFAFF"/>
<path d="M753.04 132.722C753.699 131.586 752.881 130.165 751.568 130.163L748.944 130.158V130.153H746.195L741.441 130.145L741.447 130.153H705.281C704.34 130.153 703.576 130.917 703.576 131.858V208.063C703.576 209.004 704.34 209.768 705.281 209.768H747.239C748.18 209.768 748.944 209.004 748.944 208.063V140.247C748.944 139.947 749.023 139.652 749.175 139.392L753.04 132.722Z" fill="#EDFAFF"/>
<path d="M706.373 208.713H746.313V150.087H706.373V208.713Z" fill="url(#paint8_linear)"/>
<g opacity="0.600006">
<g opacity="0.600006">
<path opacity="0.600006" d="M731.502 197.924L728.434 198.51L711.93 111.364L714.998 110.777L731.502 197.924Z" fill="#99E4FF"/>
</g>
</g>
<path d="M743.505 199.808H727.496V201.326H743.505V199.808Z" fill="white"/>
<path d="M743.505 195.863H735.263V197.38H743.505V195.863Z" fill="white"/>
<path d="M743.505 192.526H735.263V194.043H743.505V192.526Z" fill="white"/>
<path d="M743.505 189.187H735.263V190.704H743.505V189.187Z" fill="white"/>
<path d="M743.505 185.848H735.263V187.366H743.505V185.848Z" fill="white"/>
<path d="M743.505 182.51H735.263V184.027H743.505V182.51Z" fill="white"/>
<path d="M743.505 177.502H727.496V179.019H743.505V177.502Z" fill="white"/>
<path d="M743.505 173.556H735.263V175.074H743.505V173.556Z" fill="white"/>
<path d="M743.505 170.218H735.263V171.735H743.505V170.218Z" fill="white"/>
<path d="M743.505 166.879H735.263V168.397H743.505V166.879Z" fill="white"/>
<path d="M743.505 163.54H735.263V165.058H743.505V163.54Z" fill="white"/>
<path d="M743.505 160.203H735.263V161.72H743.505V160.203Z" fill="white"/>
<g opacity="0.220001">
<path opacity="0.220001" d="M755.484 215.138H724.151V122.471H755.484V215.138Z" fill="white"/>
</g>
<g opacity="0.5">
<g opacity="0.5">
<path opacity="0.5" d="M601.148 254.162C597.353 255.686 593.599 257.979 590.207 260.491C586.807 263.054 583.671 265.954 580.887 269.151C575.289 275.539 571.233 283.142 568.688 291.187C566.132 299.25 565.16 307.765 565.259 316.258C565.34 324.762 566.552 333.266 568.453 341.614C568.905 343.598 567.665 345.573 565.681 346.025C563.699 346.478 561.724 345.237 561.272 343.254C561.261 343.21 561.249 343.15 561.24 343.106C559.603 334.275 558.681 325.257 558.961 316.205C559.221 307.17 560.629 298.082 563.733 289.509C566.823 280.955 571.541 272.938 577.799 266.354C580.915 263.055 584.379 260.107 588.093 257.537C591.861 254.998 595.732 252.799 600.157 251.226C600.963 250.939 601.847 251.359 602.133 252.165C602.412 252.95 602.02 253.81 601.256 254.118L601.148 254.162Z" fill="#EDFAFF"/>
</g>
</g>
<g opacity="0.5">
<g opacity="0.5">
<path opacity="0.5" d="M706.425 116.45C703.473 117.636 700.551 119.421 697.911 121.374C695.267 123.369 692.825 125.625 690.659 128.114C686.304 133.084 683.148 139.001 681.168 145.26C679.179 151.534 678.421 158.16 678.5 164.769C678.563 171.386 679.505 178.004 680.984 184.5C681.337 186.042 680.371 187.58 678.828 187.932C677.285 188.284 675.748 187.318 675.397 185.776C675.389 185.741 675.38 185.694 675.373 185.66C674.099 178.789 673.381 171.772 673.599 164.728C673.8 157.697 674.897 150.625 677.312 143.954C679.716 137.3 683.388 131.061 688.257 125.937C693.155 120.834 698.905 116.661 705.655 114.165C706.279 113.934 706.971 114.253 707.201 114.877C707.428 115.489 707.124 116.169 706.523 116.41L706.425 116.45Z" fill="#EDFAFF"/>
</g>
</g>
<g opacity="0.5">
<g opacity="0.5">
<path opacity="0.5" d="M878.539 156.573C876.271 157.498 874.037 158.879 871.993 160.362C871.021 161.187 869.963 161.905 869.081 162.827L867.707 164.146C867.251 164.587 866.868 165.099 866.445 165.571C863.113 169.403 860.692 173.938 859.128 178.737L858.159 182.403C857.832 183.622 857.765 184.907 857.553 186.153C857.063 188.639 857.205 191.213 857.083 193.741C857.039 194.373 857.081 195.009 857.145 195.646L857.3 197.553L857.605 201.362L858.971 208.914L859.007 209.11C859.223 210.309 858.427 211.455 857.229 211.671C856.031 211.889 854.885 211.093 854.668 209.895C854.664 209.869 854.659 209.833 854.655 209.806L853.54 201.807L853.377 197.755L853.297 195.733C853.259 195.059 853.241 194.385 853.313 193.706C853.545 191.001 853.517 188.287 854.144 185.622C854.423 184.291 854.557 182.935 854.959 181.633L856.164 177.731C858.053 172.626 860.869 167.847 864.597 163.897C868.329 159.939 872.768 156.754 877.947 154.815C878.425 154.635 878.957 154.878 879.137 155.358C879.313 155.827 879.083 156.35 878.621 156.539L878.539 156.573Z" fill="#EDFAFF"/>
</g>
</g>
<g opacity="0.5">
<g opacity="0.5">
<path opacity="0.5" d="M830.99 86.6769C829.15 87.0756 827.278 87.8262 825.533 88.6769C823.814 89.6076 822.125 90.6102 820.644 91.8822C817.614 94.3422 815.181 97.4529 813.361 100.877L812.141 103.524C811.732 104.402 811.512 105.366 811.185 106.28C810.484 108.097 810.25 110.064 809.822 111.961C809.504 113.886 809.424 115.858 809.208 117.797L809.24 123.694L809.241 123.848C809.245 124.784 808.492 125.545 807.556 125.55C806.621 125.556 805.858 124.802 805.853 123.866C805.853 123.845 805.853 123.818 805.854 123.797L806.073 117.596C806.378 115.538 806.553 113.469 806.974 111.434C807.509 109.418 807.849 107.361 808.676 105.426C809.064 104.456 809.345 103.449 809.821 102.516L811.25 99.7222C813.357 96.1102 816.124 92.8662 819.468 90.3716C822.816 87.8702 826.598 86.0489 830.774 85.2676C831.161 85.1956 831.532 85.4502 831.605 85.8369C831.676 86.2156 831.432 86.5809 831.057 86.6622L830.99 86.6769Z" fill="#EDFAFF"/>
</g>
</g>
<path d="M730.187 504.945C734.222 484.082 729.239 463.574 717.979 447.416L822.447 362.424C849.359 393.857 895.556 402.986 932.995 381.936C975.603 357.98 990.72 304.022 966.766 261.416C942.81 218.809 888.851 203.69 846.244 227.645C803.638 251.601 788.519 305.56 812.475 348.166C812.843 348.821 813.241 349.45 813.623 350.092L781.19 376.981L781.246 377.052L708.53 436.306C698.355 426.449 685.31 419.322 670.363 416.432C638.517 410.273 607.483 425.098 591.522 451.25L552.194 430.253L552.163 430.308L494.782 399.046C498.454 389.89 499.626 379.612 497.549 369.214C491.858 340.722 464.146 322.24 435.654 327.932C407.161 333.622 388.678 361.334 394.37 389.826C397.661 406.305 408.338 419.394 422.251 426.437L414.079 460.173L414.141 460.189L398.221 523.565C388.438 522.3 378.191 523.734 368.645 528.345C342.481 540.98 331.514 572.433 344.15 598.597C356.785 624.761 388.238 635.729 414.402 623.092C440.566 610.457 451.533 579.004 438.898 552.841C432.462 539.514 421.135 530.16 408.122 525.829L432.211 430.254C439.825 432.324 448.003 432.761 456.266 431.11C470.777 428.212 482.667 419.584 490.114 408.068L586.627 460.748C584.529 465.638 582.902 470.817 581.85 476.257C573.929 517.22 600.714 556.848 641.675 564.769C682.638 572.692 722.266 545.908 730.187 504.945Z" fill="#9FDAF6"/>
<g opacity="0.509995">
<g opacity="0.509995">
<g opacity="0.509995">
<g opacity="0.509995">
<g opacity="0.509995">
<g opacity="0.509995">
<path opacity="0.509995" d="M506.793 408.531C506.793 411.362 479.243 413.658 445.256 413.658C411.269 413.658 383.719 411.362 383.719 408.531C383.719 405.7 411.269 403.404 445.256 403.404C479.243 403.404 506.793 405.7 506.793 408.531Z" fill="url(#paint9_radial)"/>
</g>
</g>
</g>
</g>
</g>
</g>
<path d="M451.392 341.83L432.904 341.936C431.365 341.946 430.279 343.442 430.745 344.907L433.869 354.72L450.599 354.624L453.587 344.77C454.032 343.304 452.933 341.83 451.404 341.828C451.4 341.828 451.396 341.828 451.392 341.83" fill="url(#paint10_linear)"/>
<g opacity="0.899994">
<g opacity="0.899994">
<path opacity="0.899994" d="M454.783 352.659V348.991H429.549V352.659H428.027V406.029H456.305V352.659H454.783Z" fill="#EDFAFF"/>
</g>
</g>
<path d="M429.375 405.436H454.956V361.802H429.375V405.436Z" fill="url(#paint11_linear)"/>
<path d="M456.873 349H427.459C426.965 349 426.561 348.596 426.561 348.102C426.561 347.61 426.965 347.206 427.459 347.206H456.873C457.367 347.206 457.771 347.61 457.771 348.102C457.771 348.596 457.367 349 456.873 349Z" fill="#EDFAFF"/>
<path d="M443.753 371.666C443.877 372.541 443.267 373.353 442.391 373.477C441.515 373.601 440.705 372.993 440.581 372.117C440.455 371.241 441.065 370.429 441.941 370.305C442.817 370.181 443.629 370.79 443.753 371.666Z" fill="#FFB650"/>
<path d="M442.801 366.11C442.577 364.534 443.673 363.076 445.249 362.852C446.825 362.628 448.284 363.724 448.508 365.301C448.733 366.876 447.636 368.336 446.06 368.56C444.484 368.784 443.025 367.688 442.801 366.11Z" fill="#DE6422"/>
<path d="M434.705 386.189C434.481 384.613 435.577 383.154 437.153 382.93C438.731 382.706 440.189 383.802 440.413 385.378C440.637 386.954 439.54 388.413 437.965 388.637C436.389 388.861 434.929 387.766 434.705 386.189Z" fill="#DE6422"/>
<path d="M446.22 359.273C446.069 358.211 446.808 357.229 447.869 357.079C448.932 356.927 449.914 357.665 450.065 358.727C450.216 359.789 449.477 360.772 448.416 360.921C447.354 361.073 446.37 360.335 446.22 359.273Z" fill="#DE6422"/>
<path d="M436.947 378.39C436.841 377.642 437.361 376.953 438.107 376.846C438.853 376.741 439.543 377.258 439.65 378.006C439.755 378.752 439.237 379.442 438.491 379.549C437.745 379.654 437.054 379.137 436.947 378.39Z" fill="#FFB650"/>
<path d="M434.985 368.677C434.834 367.615 435.571 366.633 436.634 366.482C437.695 366.33 438.679 367.069 438.83 368.131C438.981 369.193 438.242 370.175 437.181 370.326C436.119 370.478 435.135 369.739 434.985 368.677Z" fill="#DE6422"/>
<path d="M442.543 395.959C442.393 394.898 443.131 393.915 444.193 393.765C445.254 393.613 446.238 394.351 446.389 395.414C446.539 396.475 445.801 397.458 444.739 397.609C443.678 397.761 442.694 397.022 442.543 395.959Z" fill="#FFB650"/>
<path d="M438.741 355.603C438.591 354.541 439.329 353.559 440.391 353.408C441.452 353.256 442.436 353.995 442.587 355.057C442.737 356.119 441.999 357.101 440.937 357.252C439.876 357.404 438.892 356.665 438.741 355.603Z" fill="#FFB650"/>
<path d="M433.726 372.619C434.006 372.246 434.537 372.17 434.91 372.451C435.283 372.731 435.358 373.261 435.078 373.635C434.798 374.009 434.267 374.083 433.894 373.803C433.521 373.523 433.446 372.993 433.726 372.619Z" fill="#DE6422"/>
<path d="M446.411 387.709C446.691 387.336 447.22 387.261 447.595 387.541C447.967 387.821 448.043 388.351 447.763 388.725C447.482 389.099 446.952 389.173 446.579 388.893C446.206 388.613 446.131 388.083 446.411 387.709Z" fill="#DE6422"/>
<path d="M444.719 376.303C444.999 375.93 445.53 375.854 445.903 376.135C446.275 376.415 446.351 376.944 446.071 377.319C445.791 377.691 445.26 377.767 444.887 377.487C444.514 377.206 444.439 376.675 444.719 376.303Z" fill="#DE6422"/>
<g opacity="0.220001">
<g opacity="0.220001">
<path opacity="0.220001" d="M442.384 406.169V352.829C442.384 352.829 457.573 352.8 456.326 352.8L456.362 353.997V406.169H442.384Z" fill="white"/>
</g>
</g>
<path d="M469.231 361.223L450.741 361.33C449.204 361.34 448.115 362.838 448.583 364.302L451.707 374.115L468.436 374.018L471.425 364.164C471.869 362.7 470.772 361.223 469.244 361.223C469.239 361.223 469.235 361.223 469.231 361.223" fill="url(#paint12_linear)"/>
<g opacity="0.899994">
<g opacity="0.899994">
<path opacity="0.899994" d="M472.621 372.052V368.384H447.386V372.052H445.865V409.325H474.142V372.052H472.621Z" fill="#EDFAFF"/>
</g>
</g>
<path d="M447.213 408.732H472.793V381.195H447.213V408.732Z" fill="url(#paint13_linear)"/>
<path d="M474.71 368.394H445.296C444.802 368.394 444.398 367.99 444.398 367.497C444.398 367.004 444.802 366.6 445.296 366.6H474.71C475.204 366.6 475.608 367.004 475.608 367.497C475.608 367.99 475.204 368.394 474.71 368.394Z" fill="#EDFAFF"/>
<path d="M461.59 391.06C461.714 391.936 461.105 392.748 460.229 392.872C459.354 392.996 458.542 392.386 458.418 391.512C458.294 390.636 458.902 389.824 459.779 389.7C460.654 389.576 461.466 390.185 461.59 391.06Z" fill="#EE2C90"/>
<path d="M460.638 385.505C460.414 383.929 461.51 382.47 463.086 382.246C464.662 382.022 466.122 383.118 466.346 384.694C466.57 386.27 465.473 387.729 463.897 387.953C462.322 388.177 460.862 387.082 460.638 385.505Z" fill="#FF98D6"/>
<path d="M449.005 381.864C448.781 380.288 449.877 378.83 451.453 378.606C453.029 378.382 454.489 379.478 454.713 381.055C454.937 382.63 453.839 384.09 452.263 384.314C450.687 384.538 449.229 383.442 449.005 381.864Z" fill="#FF98D6"/>
<path d="M464.057 378.668C463.907 377.605 464.644 376.622 465.707 376.472C466.768 376.32 467.752 377.06 467.901 378.121C468.053 379.182 467.315 380.165 466.252 380.316C465.191 380.468 464.208 379.729 464.057 378.668Z" fill="#FF98D6"/>
<path d="M454.785 397.784C454.678 397.037 455.198 396.346 455.945 396.241C456.69 396.134 457.382 396.653 457.487 397.4C457.594 398.145 457.074 398.837 456.329 398.944C455.582 399.049 454.891 398.53 454.785 397.784Z" fill="#EE2C90"/>
<path d="M452.822 388.071C452.671 387.01 453.41 386.027 454.471 385.877C455.532 385.725 456.516 386.463 456.667 387.526C456.818 388.587 456.079 389.57 455.018 389.721C453.956 389.873 452.972 389.134 452.822 388.071Z" fill="#EE2C90"/>
<path d="M456.578 374.997C456.428 373.936 457.166 372.953 458.228 372.802C459.289 372.65 460.273 373.389 460.424 374.45C460.574 375.513 459.836 376.496 458.774 376.646C457.713 376.797 456.729 376.058 456.578 374.997Z" fill="#EE2C90"/>
<path d="M451.563 392.014C451.843 391.641 452.374 391.565 452.747 391.846C453.121 392.126 453.197 392.655 452.915 393.03C452.635 393.402 452.105 393.478 451.731 393.198C451.358 392.917 451.283 392.386 451.563 392.014Z" fill="#FF98D6"/>
<path d="M462.556 395.696C462.836 395.324 463.367 395.248 463.74 395.528C464.114 395.81 464.188 396.339 463.908 396.712C463.628 397.086 463.098 397.162 462.724 396.88C462.351 396.6 462.276 396.07 462.556 395.696Z" fill="#EE2C90"/>
<g opacity="0.220001">
<g opacity="0.220001">
<path opacity="0.220001" d="M460.025 409.466V372.223C460.025 372.223 475.213 372.193 473.968 372.193L474.004 373.39V409.466H460.025Z" fill="white"/>
</g>
</g>
<path d="M437.289 375.787L418.189 375.896C416.601 375.904 415.477 377.451 415.959 378.964L419.188 389.103L436.469 389.003L439.557 378.824C440.016 377.311 438.883 375.787 437.304 375.787C437.299 375.787 437.293 375.787 437.289 375.787" fill="url(#paint14_linear)"/>
<g opacity="0.899994">
<g opacity="0.899994">
<path opacity="0.899994" d="M440.847 386.563V382.742H414.559V386.563H412.973V409.319H442.431V386.563H440.847Z" fill="#EDFAFF"/>
</g>
</g>
<path d="M414.377 408.702H441.027V396.088H414.377V408.702Z" fill="url(#paint15_linear)"/>
<path d="M443.024 382.752H412.381C411.868 382.752 411.446 382.332 411.446 381.819C411.446 381.304 411.868 380.884 412.381 380.884H443.024C443.537 380.884 443.958 381.304 443.958 381.819C443.958 382.332 443.537 382.752 443.024 382.752Z" fill="#EDFAFF"/>
<path d="M425.17 386.237C424.915 385.277 425.486 384.294 426.446 384.039C427.404 383.785 428.388 384.357 428.643 385.315C428.898 386.274 428.327 387.259 427.367 387.513C426.408 387.767 425.424 387.197 425.17 386.237Z" fill="#40B8E7"/>
<path d="M426.965 392.299C427.422 394.026 426.394 395.797 424.669 396.254C422.942 396.713 421.173 395.685 420.714 393.958C420.257 392.231 421.285 390.462 423.01 390.003C424.737 389.546 426.507 390.574 426.965 392.299Z" fill="#3B4295"/>
<path d="M437.614 388.69C437.945 389.935 437.204 391.213 435.958 391.543C434.713 391.874 433.436 391.131 433.106 389.886C432.776 388.642 433.517 387.365 434.762 387.034C436.006 386.705 437.284 387.445 437.614 388.69Z" fill="#3B4295"/>
<path d="M424.06 400.369C424.368 401.532 423.676 402.725 422.514 403.033C421.351 403.341 420.158 402.649 419.85 401.487C419.54 400.324 420.234 399.131 421.396 398.823C422.559 398.513 423.752 399.207 424.06 400.369Z" fill="#40B8E7"/>
<path d="M434.113 400.531C434.348 401.415 433.821 402.322 432.938 402.556C432.054 402.79 431.146 402.264 430.913 401.38C430.678 400.496 431.204 399.59 432.088 399.355C432.973 399.12 433.878 399.647 434.113 400.531Z" fill="#3B4295"/>
<path d="M432.541 394.333C432.619 394.628 432.445 394.928 432.151 395.006C431.857 395.082 431.557 394.909 431.478 394.616C431.401 394.321 431.575 394.021 431.869 393.944C432.162 393.865 432.463 394.04 432.541 394.333Z" fill="#40B8E7"/>
<path d="M431.149 390.026C431.265 390.466 431.004 390.916 430.564 391.034C430.124 391.15 429.673 390.887 429.556 390.447C429.44 390.007 429.701 389.556 430.141 389.44C430.581 389.324 431.033 389.586 431.149 390.026Z" fill="#40B8E7"/>
<g opacity="0.220001">
<g opacity="0.220001">
<path opacity="0.220001" d="M427.725 409.466V382.742C427.725 382.742 436.598 382.795 440.509 382.786C440.664 382.786 440.809 386.715 440.946 386.714C441.982 386.713 442.537 386.71 442.25 386.71L442.286 387.958V409.466H427.725Z" fill="white"/>
</g>
</g>
<g opacity="0.5">
<g opacity="0.5">
<path opacity="0.5" d="M856.912 234.737C852.78 236.397 848.69 238.896 844.995 241.631C841.292 244.423 837.876 247.581 834.843 251.064C828.748 258.021 824.33 266.304 821.558 275.065C820.108 279.435 819.268 283.989 818.599 288.543C818.339 290.839 818.046 293.124 817.974 295.439C817.794 297.741 817.815 300.06 817.823 302.373C817.91 311.636 819.23 320.899 821.3 329.992C821.794 332.153 820.442 334.303 818.282 334.796C816.122 335.289 813.972 333.937 813.479 331.777C813.468 331.731 813.454 331.665 813.446 331.617C811.662 321.999 810.659 312.175 810.962 302.316C811.052 299.851 811.134 297.391 811.424 294.933C811.604 292.472 812.012 290.029 812.392 287.588C813.304 282.731 814.412 277.887 816.16 273.237C819.524 263.921 824.663 255.188 831.482 248.017C834.875 244.425 838.648 241.213 842.694 238.412C846.798 235.648 851.014 233.253 855.834 231.539C856.711 231.227 857.675 231.685 857.987 232.563C858.291 233.417 857.864 234.353 857.031 234.689L856.912 234.737Z" fill="#EDFAFF"/>
</g>
</g>
<g opacity="0.5">
<g opacity="0.5">
<path opacity="0.5" d="M631.148 430.607C627.353 432.131 623.599 434.424 620.207 436.936C616.807 439.499 613.671 442.399 610.887 445.596C605.289 451.983 601.233 459.587 598.688 467.632C596.132 475.695 595.16 484.209 595.259 492.703C595.34 501.207 596.552 509.711 598.453 518.06C598.905 520.043 597.665 522.017 595.681 522.469C593.699 522.921 591.724 521.681 591.272 519.697C591.261 519.655 591.249 519.595 591.24 519.551C589.603 510.72 588.681 501.701 588.961 492.649C589.221 483.615 590.629 474.525 593.733 465.953C596.823 457.4 601.541 449.383 607.799 442.799C610.915 439.501 614.379 436.552 618.093 433.98C621.861 431.443 625.732 429.245 630.157 427.671C630.963 427.384 631.847 427.804 632.133 428.609C632.412 429.395 632.02 430.255 631.256 430.564L631.148 430.607Z" fill="#EDFAFF"/>
</g>
</g>
<g opacity="0.5">
<g opacity="0.5">
<path opacity="0.5" d="M424.761 341.462C422.493 342.386 420.261 343.767 418.215 345.251C417.243 346.075 416.185 346.793 415.303 347.715L413.929 349.035C413.473 349.477 413.09 349.989 412.667 350.459C409.335 354.291 406.914 358.826 405.351 363.626L404.381 367.293C404.053 368.511 403.987 369.797 403.775 371.042C403.285 373.529 403.427 376.101 403.305 378.629C403.261 379.262 403.303 379.898 403.369 380.535L403.523 382.442L403.827 386.251L405.193 393.803L405.229 393.999C405.445 395.198 404.65 396.343 403.451 396.561C402.254 396.777 401.107 395.982 400.89 394.783C400.886 394.758 400.879 394.722 400.877 394.695L399.762 386.697L399.599 382.645L399.519 380.621C399.482 379.947 399.465 379.273 399.535 378.595C399.767 375.89 399.739 373.175 400.366 370.51C400.646 369.179 400.779 367.823 401.182 366.522L402.386 362.619C404.275 357.515 407.093 352.735 410.819 348.785C414.551 344.827 418.989 341.643 424.169 339.705C424.647 339.525 425.181 339.767 425.359 340.246C425.535 340.715 425.305 341.239 424.843 341.429L424.761 341.462Z" fill="#EDFAFF"/>
</g>
</g>
<path d="M896.401 219.526C896.401 224.456 892.405 228.45 887.475 228.45C882.545 228.45 878.549 224.456 878.549 219.526C878.549 214.597 882.545 210.601 887.475 210.601C892.405 210.601 896.401 214.597 896.401 219.526Z" fill="#FFCF47"/>
<path d="M923.299 196.027C923.299 200.956 919.303 204.952 914.374 204.952C909.443 204.952 905.447 200.956 905.447 196.027C905.447 191.098 909.443 187.102 914.374 187.102C919.303 187.102 923.299 191.098 923.299 196.027Z" fill="#FFE5AC"/>
<path d="M896.777 185.063C896.777 186.7 895.449 188.027 893.813 188.027C892.177 188.027 890.85 186.7 890.85 185.063C890.85 183.426 892.177 182.1 893.813 182.1C895.449 182.1 896.777 183.426 896.777 185.063Z" fill="#E69200"/>
<path d="M895.483 160.694C895.483 163.147 893.493 165.136 891.04 165.136C888.587 165.136 886.597 163.147 886.597 160.694C886.597 158.24 888.587 156.251 891.04 156.251C893.493 156.251 895.483 158.24 895.483 160.694Z" fill="#FFCF47"/>
<path d="M927.419 242.897C927.419 247.456 923.724 251.151 919.166 251.151C914.607 251.151 910.911 247.456 910.911 242.897C910.911 238.339 914.607 234.644 919.166 234.644C923.724 234.644 927.419 238.339 927.419 242.897Z" fill="#FFCF47"/>
<path d="M895.448 236.213C893.452 238.21 890.214 238.21 888.217 236.213C886.221 234.217 886.221 230.979 888.217 228.983C890.214 226.987 893.452 226.987 895.448 228.983C897.444 230.979 897.444 234.217 895.448 236.213Z" fill="#E69200"/>
<path d="M475.629 558.118C473.616 605.696 433.413 642.632 385.837 640.617C338.261 638.602 301.325 598.401 303.34 550.824C305.353 503.249 345.555 466.313 393.132 468.326C440.708 470.341 477.644 510.541 475.629 558.118Z" fill="#9FDAF6"/>
<g opacity="0.5">
<g opacity="0.5">
<path opacity="0.5" d="M358.036 494.353C354.744 495.239 351.407 496.767 348.349 498.511C345.283 500.298 342.397 502.387 339.775 504.761C334.509 509.495 330.397 515.391 327.496 521.801C324.581 528.225 322.933 535.179 322.175 542.222C321.4 549.271 321.563 556.434 322.312 563.535C322.491 565.222 321.268 566.734 319.581 566.913C317.895 567.091 316.381 565.869 316.203 564.182C316.199 564.145 316.195 564.094 316.192 564.055C315.709 556.583 315.84 549.023 316.965 541.554C318.075 534.099 320.14 526.714 323.559 519.921C326.961 513.145 331.663 506.971 337.496 502.139C340.401 499.715 343.563 497.617 346.893 495.855C350.264 494.126 353.687 492.689 357.507 491.823C358.201 491.665 358.893 492.102 359.051 492.797C359.204 493.474 358.793 494.147 358.129 494.327L358.036 494.353Z" fill="#EDFAFF"/>
</g>
</g>
<g opacity="0.509995">
<g opacity="0.509995">
<g opacity="0.509995">
<g opacity="0.509995">
<g opacity="0.509995">
<g opacity="0.509995">
<path opacity="0.509995" d="M711.577 552.879C711.577 555.446 686.423 557.528 655.391 557.528C624.359 557.528 599.204 555.446 599.204 552.879C599.204 550.311 624.359 548.228 655.391 548.228C686.423 548.228 711.577 550.311 711.577 552.879Z" fill="url(#paint16_radial)"/>
</g>
</g>
</g>
</g>
</g>
</g>
<path d="M644.091 451.43C608.573 466.05 608.573 518.326 644.091 532.946C645.12 533.372 646.153 533.632 647.144 533.763C662.148 538.475 679.316 534.891 691.117 524.432H673.572C659.129 529.716 641.42 526.004 631.832 511.178C631.827 511.17 631.82 511.16 631.815 511.154C621.261 494.019 626.563 468.499 647.719 459.79C651.165 458.34 654.131 455.722 653.711 453.238C653.447 451.599 651.307 450.512 648.571 450.512C647.176 450.512 645.627 450.794 644.091 451.43" fill="url(#paint17_linear)"/>
<path d="M628.496 460.603C628.496 464.964 632.032 468.502 636.395 468.502C640.757 468.502 644.293 464.964 644.293 460.603C644.293 456.239 640.757 452.703 636.395 452.703C632.032 452.703 628.496 456.239 628.496 460.603Z" fill="url(#paint18_linear)"/>
<path d="M641.036 460.603C641.036 463.167 638.958 465.244 636.395 465.244C633.832 465.244 631.752 463.167 631.752 460.603C631.752 458.039 633.832 455.961 636.395 455.961C638.958 455.961 641.036 458.039 641.036 460.603Z" fill="white"/>
<path d="M665.569 525.46H697.125V521.784H665.569V525.46Z" fill="url(#paint19_linear)"/>
<path d="M638.204 433.438L646.027 445.546L649.204 443.494L641.383 431.386L638.204 433.438Z" fill="url(#paint20_linear)"/>
<path d="M645.239 433.135L639.057 437.128C638.038 437.787 636.677 437.496 636.018 436.475C635.359 435.455 635.651 434.095 636.671 433.436L642.854 429.442C643.874 428.783 645.234 429.076 645.893 430.096C646.551 431.115 646.259 432.476 645.239 433.135Z" fill="#EDFAFF"/>
<path d="M674.814 473.916L663.747 481.066L661.36 477.374L672.428 470.224L674.814 473.916Z" fill="#EDFAFF"/>
<path d="M640.907 444.434L662.225 476.767L671.613 470.7L650.293 438.368L640.907 444.434Z" fill="url(#paint21_linear)"/>
<path d="M633.407 548.542H676.092C672.731 540.043 664.445 534.028 654.749 534.028C645.055 534.028 636.769 540.043 633.407 548.542Z" fill="url(#paint22_linear)"/>
<path d="M679.415 552.366H630.084V548.504H679.415V552.366Z" fill="#EDFAFF"/>
<g opacity="0.509995">
<g opacity="0.509995">
<g opacity="0.509995">
<g opacity="0.509995">
<g opacity="0.509995">
<g opacity="0.509995">
<path opacity="0.509995" d="M962.713 366.799C962.713 369.675 931.128 372.006 892.169 372.006C853.208 372.006 821.624 369.675 821.624 366.799C821.624 363.923 853.208 361.591 892.169 361.591C931.128 361.591 962.713 363.923 962.713 366.799Z" fill="url(#paint23_radial)"/>
</g>
</g>
</g>
</g>
</g>
</g>
<path d="M899.627 266.463L899.541 266.294V235.195H881.222V266.294L881.135 266.463C857.551 270.816 839.681 291.492 839.681 316.362C839.681 344.394 862.379 367.119 890.381 367.119C918.382 367.119 941.082 344.394 941.082 316.362C941.082 291.492 923.21 270.816 899.627 266.463Z" fill="#EDFAFF"/>
<path d="M845.183 310.559C844.803 312.946 844.605 315.391 844.605 317.883C844.605 343.5 865.372 364.27 890.991 364.27C916.607 364.27 937.376 343.5 937.376 317.883C937.376 315.391 937.176 312.946 936.797 310.559H845.183Z" fill="url(#paint24_linear)"/>
<g opacity="0.570007">
<g opacity="0.570007">
<path opacity="0.570007" d="M905.05 325.776C895.737 341.909 876.996 348.525 863.192 340.556C849.389 332.585 845.748 313.048 855.062 296.914C864.376 280.782 883.117 274.165 896.921 282.136C910.725 290.105 914.364 309.644 905.05 325.776Z" fill="white"/>
</g>
</g>
<g opacity="0.520004">
<g opacity="0.520004">
<path opacity="0.520004" d="M877.877 327.585C874.801 332.912 868.615 335.096 864.057 332.465C859.5 329.833 858.297 323.382 861.373 318.056C864.448 312.729 870.635 310.545 875.193 313.176C879.751 315.808 880.953 322.258 877.877 327.585Z" fill="white"/>
</g>
</g>
<path d="M899.379 236.76H881.384C880.016 236.76 878.907 235.651 878.907 234.283C878.907 232.913 880.016 231.805 881.384 231.805H899.379C900.747 231.805 901.856 232.913 901.856 234.283C901.856 235.651 900.747 236.76 899.379 236.76Z" fill="#EDFAFF"/>
<path d="M699.196 521.923H663.385V506.331H699.196V521.923Z" fill="#EDFAFF"/>
<path d="M664.537 520.315H698.045V512.416H664.537V520.315Z" fill="url(#paint25_linear)"/>
<g opacity="0.220001">
<path opacity="0.220001" d="M704.071 526.61H680.707V500.194H704.071V526.61Z" fill="white"/>
</g>
<path d="M386.813 513.386V519.774C386.813 520.655 387.528 521.37 388.411 521.37C389.292 521.37 390.008 520.655 390.008 519.774V513.386C390.008 512.504 389.292 511.788 388.411 511.788C387.528 511.788 386.813 512.504 386.813 513.386Z" fill="url(#paint26_linear)"/>
<path d="M360.201 521.904C359.585 522.519 359.577 523.515 360.181 524.143L365.828 529.788C366.128 530.088 366.535 530.256 366.957 530.258C367.604 530.256 368.185 529.868 368.432 529.27C368.679 528.674 368.543 527.987 368.087 527.531L362.44 521.884C362.131 521.586 361.731 521.436 361.331 521.436C360.921 521.436 360.513 521.592 360.201 521.904Z" fill="url(#paint27_linear)"/>
<path d="M351.683 548.516C350.801 548.516 350.087 549.231 350.087 550.114C350.087 550.996 350.801 551.71 351.683 551.71H358.071C358.953 551.71 359.668 550.996 359.668 550.114C359.668 549.231 358.953 548.516 358.071 548.516H351.683Z" fill="url(#paint28_linear)"/>
<path d="M365.828 570.439L360.181 576.084C359.724 576.542 359.588 577.23 359.836 577.824C360.083 578.422 360.664 578.811 361.311 578.811C361.735 578.811 362.14 578.643 362.44 578.343L368.087 572.696C368.691 572.07 368.683 571.074 368.067 570.458C367.755 570.147 367.345 569.99 366.936 569.99C366.537 569.99 366.137 570.139 365.828 570.439" fill="url(#paint29_linear)"/>
<path d="M386.813 580.454V586.843C386.813 587.723 387.528 588.439 388.411 588.439C389.292 588.439 390.008 587.723 390.008 586.843V580.454C390.008 579.572 389.292 578.858 388.411 578.858C387.528 578.858 386.813 579.572 386.813 580.454Z" fill="url(#paint30_linear)"/>
<path d="M408.755 570.458C408.139 571.074 408.131 572.07 408.736 572.696L414.383 578.343C414.681 578.643 415.088 578.811 415.511 578.811C416.157 578.811 416.739 578.422 416.987 577.824C417.232 577.23 417.096 576.542 416.64 576.084L410.993 570.439C410.684 570.139 410.284 569.99 409.884 569.99C409.476 569.99 409.067 570.147 408.755 570.458" fill="url(#paint31_linear)"/>
<path d="M418.751 548.516C417.869 548.516 417.155 549.231 417.155 550.114C417.155 550.996 417.869 551.71 418.751 551.71H426.735C427.617 551.71 428.332 550.996 428.332 550.114C428.332 549.231 427.617 548.516 426.735 548.516H418.751Z" fill="url(#paint32_linear)"/>
<path d="M414.383 521.884L408.736 527.531C408.28 527.987 408.143 528.674 408.389 529.27C408.636 529.868 409.219 530.256 409.864 530.258C410.288 530.256 410.693 530.088 410.993 529.788L416.64 524.143C417.055 523.742 417.221 523.148 417.075 522.59C416.929 522.031 416.493 521.595 415.935 521.448C415.801 521.414 415.667 521.398 415.532 521.398C415.104 521.398 414.687 521.568 414.383 521.884" fill="url(#paint33_linear)"/>
<path d="M358.071 550.114C358.071 566.871 371.653 580.454 388.411 580.454C405.167 580.454 418.751 566.871 418.751 550.114C418.751 533.356 405.167 519.774 388.411 519.774C371.653 519.774 358.071 533.356 358.071 550.114Z" fill="url(#paint34_linear)"/>
<g opacity="0.470001">
<g opacity="0.470001">
<path opacity="0.470001" d="M401.186 538.936C401.186 542.464 398.326 545.322 394.798 545.322C391.27 545.322 388.41 542.464 388.41 538.936C388.41 535.408 391.27 532.549 394.798 532.549C398.326 532.549 401.186 535.408 401.186 538.936Z" fill="white"/>
</g>
</g>
<g opacity="0.470001">
<g opacity="0.470001">
<path opacity="0.470001" d="M378.83 543.726C378.83 546.372 376.686 548.517 374.039 548.517C371.394 548.517 369.248 546.372 369.248 543.726C369.248 541.081 371.394 538.936 374.039 538.936C376.686 538.936 378.83 541.081 378.83 543.726Z" fill="white"/>
</g>
</g>
<g opacity="0.470001">
<g opacity="0.470001">
<path opacity="0.470001" d="M393.201 558.097C393.201 560.744 391.056 562.889 388.411 562.889C385.765 562.889 383.62 560.744 383.62 558.097C383.62 555.453 385.765 553.307 388.411 553.307C391.056 553.307 393.201 555.453 393.201 558.097Z" fill="white"/>
</g>
</g>
<g opacity="0.470001">
<g opacity="0.470001">
<path opacity="0.470001" d="M409.463 556.083C409.463 558.728 407.318 560.874 404.673 560.874C402.027 560.874 399.882 558.728 399.882 556.083C399.882 553.438 402.027 551.292 404.673 551.292C407.318 551.292 409.463 553.438 409.463 556.083Z" fill="white"/>
</g>
</g>
<g opacity="0.470001">
<g opacity="0.470001">
<path opacity="0.470001" d="M370.845 559.695C370.636 559.692 370.431 559.65 370.239 559.567C370.045 559.487 369.867 559.372 369.711 559.231C369.568 559.079 369.453 558.9 369.376 558.704C369.295 558.512 369.251 558.307 369.249 558.098C369.255 557.675 369.42 557.271 369.711 556.964C369.867 556.823 370.045 556.71 370.239 556.628C370.835 556.388 371.515 556.519 371.979 556.964C372.271 557.271 372.436 557.675 372.443 558.098C372.44 558.307 372.397 558.512 372.315 558.704C372.237 558.9 372.123 559.079 371.979 559.231C371.673 559.523 371.268 559.688 370.845 559.695Z" fill="white"/>
</g>
</g>
<g opacity="0.470001">
<g opacity="0.470001">
<path opacity="0.470001" d="M378.83 569.276C378.622 569.273 378.415 569.23 378.223 569.148C378.028 569.068 377.851 568.954 377.695 568.813C377.552 568.66 377.438 568.481 377.36 568.286C377.279 568.094 377.235 567.888 377.232 567.68C377.239 567.256 377.404 566.852 377.695 566.545C377.851 566.405 378.028 566.292 378.223 566.209C378.819 565.969 379.5 566.1 379.963 566.545C380.255 566.852 380.42 567.256 380.427 567.68C380.424 567.888 380.38 568.094 380.299 568.286C380.222 568.481 380.107 568.66 379.963 568.813C379.658 569.105 379.252 569.27 378.83 569.276Z" fill="white"/>
</g>
</g>
<g opacity="0.470001">
<g opacity="0.470001">
<path opacity="0.470001" d="M384.298 535.457C384.089 535.455 383.884 535.411 383.69 535.33C383.497 535.249 383.32 535.135 383.164 534.994C383.02 534.842 382.906 534.662 382.829 534.467C382.746 534.275 382.704 534.069 382.701 533.861C382.708 533.437 382.873 533.033 383.164 532.726C383.32 532.586 383.497 532.473 383.69 532.391C384.286 532.151 384.969 532.282 385.432 532.726C385.724 533.033 385.889 533.437 385.896 533.861C385.892 534.069 385.849 534.275 385.768 534.467C385.69 534.662 385.576 534.842 385.432 534.994C385.126 535.286 384.721 535.451 384.298 535.457Z" fill="white"/>
</g>
</g>
<path d="M383.62 508.596C383.62 511.242 385.765 513.386 388.411 513.386C391.056 513.386 393.201 511.242 393.201 508.596C393.201 505.95 391.056 503.804 388.411 503.804C385.765 503.804 383.62 505.95 383.62 508.596Z" fill="url(#paint35_linear)"/>
<path d="M350.408 518.496C350.408 522.024 353.268 524.886 356.795 524.886C360.323 524.886 363.183 522.024 363.183 518.496C363.183 514.97 360.323 512.11 356.795 512.11C353.268 512.11 350.408 514.97 350.408 518.496Z" fill="url(#paint36_linear)"/>
<path d="M343.699 550.114C343.699 552.319 345.487 554.107 347.691 554.107C349.896 554.107 351.683 552.319 351.683 550.114C351.683 547.908 349.896 546.12 347.691 546.12C345.487 546.12 343.699 547.908 343.699 550.114Z" fill="url(#paint37_linear)"/>
<path d="M350.408 581.731C350.408 585.258 353.268 588.118 356.795 588.118C360.323 588.118 363.183 585.258 363.183 581.731C363.183 578.203 360.323 575.342 356.795 575.342C353.268 575.342 350.408 578.203 350.408 581.731" fill="url(#paint38_linear)"/>
<path d="M383.62 591.631C383.62 594.278 385.765 596.423 388.411 596.423C391.056 596.423 393.201 594.278 393.201 591.631C393.201 588.987 391.056 586.843 388.411 586.843C385.765 586.843 383.62 588.987 383.62 591.631Z" fill="url(#paint39_linear)"/>
<path d="M413.639 581.731C413.639 585.258 416.5 588.118 420.027 588.118C423.553 588.118 426.415 585.258 426.415 581.731C426.415 578.203 423.553 575.342 420.027 575.342C416.5 575.342 413.639 578.203 413.639 581.731" fill="url(#paint40_linear)"/>
<path d="M426.735 550.114C426.735 552.759 428.879 554.904 431.525 554.904C434.172 554.904 436.317 552.759 436.317 550.114C436.317 547.468 434.172 545.323 431.525 545.323C428.879 545.323 426.735 547.468 426.735 550.114Z" fill="url(#paint41_linear)"/>
<path d="M413.639 518.496C413.639 522.024 416.5 524.886 420.027 524.886C423.553 524.886 426.415 522.024 426.415 518.496C426.415 514.97 423.553 512.11 420.027 512.11C416.5 512.11 413.639 514.97 413.639 518.496Z" fill="url(#paint42_linear)"/>
</g>
<defs>
<radialGradient id="paint0_radial" cx="0" cy="0" r="1" gradientUnits="userSpaceOnUse" gradientTransform="translate(727.835 209.243) scale(40.8861 5.10904)">
<stop stop-color="#2BA9E2"/>
<stop offset="0.1197" stop-color="#2BA9E2"/>
<stop offset="0.500236" stop-color="#2BA9E2"/>
<stop offset="1" stop-color="white"/>
</radialGradient>
<radialGradient id="paint1_radial" cx="0" cy="0" r="1" gradientUnits="userSpaceOnUse" gradientTransform="translate(854.057 142.577) scale(25.4354 2.88951)">
<stop stop-color="#2BA9E2"/>
<stop offset="0.1197" stop-color="#2BA9E2"/>
<stop offset="0.500236" stop-color="#2BA9E2"/>
<stop offset="1" stop-color="white"/>
</radialGradient>
<radialGradient id="paint2_radial" cx="0" cy="0" r="1" gradientUnits="userSpaceOnUse" gradientTransform="translate(623.835 364.656) scale(45.5007 4.75382)">
<stop stop-color="#2BA9E2"/>
<stop offset="0.1197" stop-color="#2BA9E2"/>
<stop offset="0.500236" stop-color="#2BA9E2"/>
<stop offset="1" stop-color="white"/>
</radialGradient>
<linearGradient id="paint3_linear" x1="600.834" y1="363.415" x2="600.834" y2="304.68" gradientUnits="userSpaceOnUse">
<stop stop-color="#3B4295"/>
<stop offset="0.00138972" stop-color="#3B4295"/>
<stop offset="0.987076" stop-color="#40B8E7"/>
<stop offset="0.98815" stop-color="#40B8E7"/>
<stop offset="1" stop-color="#40B8E7"/>
</linearGradient>
<linearGradient id="paint4_linear" x1="622.487" y1="363.415" x2="622.487" y2="304.68" gradientUnits="userSpaceOnUse">
<stop stop-color="#ED4B36"/>
<stop offset="0.00550255" stop-color="#ED4B36"/>
<stop offset="0.90171" stop-color="#FBBE41"/>
<stop offset="0.991474" stop-color="#FBBE41"/>
<stop offset="1" stop-color="#FBBE41"/>
</linearGradient>
<linearGradient id="paint5_linear" x1="643.689" y1="363.415" x2="643.689" y2="304.68" gradientUnits="userSpaceOnUse">
<stop stop-color="#8D2091"/>
<stop offset="0.00221605" stop-color="#8D2091"/>
<stop offset="0.906412" stop-color="#EE2C90"/>
<stop offset="0.996976" stop-color="#EE2C90"/>
<stop offset="1" stop-color="#EE2C90"/>
</linearGradient>
<linearGradient id="paint6_linear" x1="641.585" y1="338.645" x2="647.303" y2="338.645" gradientUnits="userSpaceOnUse">
<stop stop-color="#EE2C90"/>
<stop offset="0.324473" stop-color="#EE2C90"/>
<stop offset="0.996976" stop-color="#EE2C90"/>
<stop offset="1" stop-color="#EE2C90"/>
</linearGradient>
<linearGradient id="paint7_linear" x1="642.757" y1="323.112" x2="645.685" y2="323.112" gradientUnits="userSpaceOnUse">
<stop stop-color="#EE2C90"/>
<stop offset="0.324473" stop-color="#EE2C90"/>
<stop offset="0.996976" stop-color="#EE2C90"/>
<stop offset="1" stop-color="#EE2C90"/>
</linearGradient>
<linearGradient id="paint8_linear" x1="726.343" y1="208.712" x2="726.343" y2="150.088" gradientUnits="userSpaceOnUse">
<stop stop-color="#8D2091"/>
<stop offset="0.00221605" stop-color="#8D2091"/>
<stop offset="0.906412" stop-color="#EE2C90"/>
<stop offset="0.996976" stop-color="#EE2C90"/>
<stop offset="1" stop-color="#EE2C90"/>
</linearGradient>
<radialGradient id="paint9_radial" cx="0" cy="0" r="1" gradientUnits="userSpaceOnUse" gradientTransform="translate(445.256 408.531) scale(43.9732 5.02918)">
<stop stop-color="#2BA9E2"/>
<stop offset="0.1197" stop-color="#2BA9E2"/>
<stop offset="0.500236" stop-color="#2BA9E2"/>
<stop offset="1" stop-color="white"/>
</radialGradient>
<linearGradient id="paint10_linear" x1="430.66" y1="348.345" x2="453.711" y2="348.211" gradientUnits="userSpaceOnUse">
<stop stop-color="#D1D0D1"/>
<stop offset="0.0904908" stop-color="#D1D0D1"/>
<stop offset="0.993953" stop-color="#ADADAC"/>
<stop offset="1" stop-color="#ADADAC"/>
</linearGradient>
<linearGradient id="paint11_linear" x1="442.166" y1="405.437" x2="442.166" y2="361.801" gradientUnits="userSpaceOnUse">
<stop stop-color="#ED4B36"/>
<stop offset="0.00550255" stop-color="#ED4B36"/>
<stop offset="0.90171" stop-color="#FBBE41"/>
<stop offset="0.991474" stop-color="#FBBE41"/>
<stop offset="1" stop-color="#FBBE41"/>
</linearGradient>
<linearGradient id="paint12_linear" x1="448.497" y1="367.739" x2="471.549" y2="367.605" gradientUnits="userSpaceOnUse">
<stop stop-color="#D1D0D1"/>
<stop offset="0.0904908" stop-color="#D1D0D1"/>
<stop offset="0.993953" stop-color="#ADADAC"/>
<stop offset="1" stop-color="#ADADAC"/>
</linearGradient>
<linearGradient id="paint13_linear" x1="460.003" y1="408.733" x2="460.003" y2="381.196" gradientUnits="userSpaceOnUse">
<stop stop-color="#8D2091"/>
<stop offset="0.00221605" stop-color="#8D2091"/>
<stop offset="0.906412" stop-color="#EE2C90"/>
<stop offset="0.996976" stop-color="#EE2C90"/>
<stop offset="1" stop-color="#EE2C90"/>
</linearGradient>
<linearGradient id="paint14_linear" x1="415.871" y1="382.516" x2="439.684" y2="382.378" gradientUnits="userSpaceOnUse">
<stop stop-color="#D1D0D1"/>
<stop offset="0.0904908" stop-color="#D1D0D1"/>
<stop offset="0.993953" stop-color="#ADADAC"/>
<stop offset="1" stop-color="#ADADAC"/>
</linearGradient>
<linearGradient id="paint15_linear" x1="427.702" y1="408.702" x2="427.702" y2="396.088" gradientUnits="userSpaceOnUse">
<stop stop-color="#3B4295"/>
<stop offset="0.00138972" stop-color="#3B4295"/>
<stop offset="0.987076" stop-color="#40B8E7"/>
<stop offset="0.98815" stop-color="#40B8E7"/>
<stop offset="1" stop-color="#40B8E7"/>
</linearGradient>
<radialGradient id="paint16_radial" cx="0" cy="0" r="1" gradientUnits="userSpaceOnUse" gradientTransform="translate(655.391 552.878) scale(40.1498 4.56203)">
<stop stop-color="#2BA9E2"/>
<stop offset="0.1197" stop-color="#2BA9E2"/>
<stop offset="0.500236" stop-color="#2BA9E2"/>
<stop offset="1" stop-color="white"/>
</radialGradient>
<linearGradient id="paint17_linear" x1="617.454" y1="493.158" x2="691.118" y2="493.158" gradientUnits="userSpaceOnUse">
<stop stop-color="#3B4295"/>
<stop offset="0.00138972" stop-color="#3B4295"/>
<stop offset="0.987076" stop-color="#40B8E7"/>
<stop offset="0.98815" stop-color="#40B8E7"/>
<stop offset="1" stop-color="#40B8E7"/>
</linearGradient>
<linearGradient id="paint18_linear" x1="628.496" y1="460.602" x2="644.294" y2="460.602" gradientUnits="userSpaceOnUse">
<stop stop-color="#D1D0D1"/>
<stop offset="0.0904908" stop-color="#D1D0D1"/>
<stop offset="0.993953" stop-color="#ADADAC"/>
<stop offset="1" stop-color="#ADADAC"/>
</linearGradient>
<linearGradient id="paint19_linear" x1="665.57" y1="523.623" x2="697.126" y2="523.623" gradientUnits="userSpaceOnUse">
<stop stop-color="#D1D0D1"/>
<stop offset="0.0904908" stop-color="#D1D0D1"/>
<stop offset="0.993953" stop-color="#ADADAC"/>
<stop offset="1" stop-color="#ADADAC"/>
</linearGradient>
<linearGradient id="paint20_linear" x1="638.205" y1="438.467" x2="649.204" y2="438.467" gradientUnits="userSpaceOnUse">
<stop stop-color="#D1D0D1"/>
<stop offset="0.0904908" stop-color="#D1D0D1"/>
<stop offset="0.993953" stop-color="#ADADAC"/>
<stop offset="1" stop-color="#ADADAC"/>
</linearGradient>
<linearGradient id="paint21_linear" x1="640.905" y1="457.567" x2="671.613" y2="457.567" gradientUnits="userSpaceOnUse">
<stop stop-color="#3B4295"/>
<stop offset="0.00138972" stop-color="#3B4295"/>
<stop offset="0.987076" stop-color="#40B8E7"/>
<stop offset="0.98815" stop-color="#40B8E7"/>
<stop offset="1" stop-color="#40B8E7"/>
</linearGradient>
<linearGradient id="paint22_linear" x1="633.407" y1="541.285" x2="676.092" y2="541.285" gradientUnits="userSpaceOnUse">
<stop stop-color="#3B4295"/>
<stop offset="0.00138972" stop-color="#3B4295"/>
<stop offset="0.987076" stop-color="#40B8E7"/>
<stop offset="0.98815" stop-color="#40B8E7"/>
<stop offset="1" stop-color="#40B8E7"/>
</linearGradient>
<radialGradient id="paint23_radial" cx="0" cy="0" r="1" gradientUnits="userSpaceOnUse" gradientTransform="translate(892.169 366.799) scale(50.4087 5.10904)">
<stop stop-color="#2BA9E2"/>
<stop offset="0.1197" stop-color="#2BA9E2"/>
<stop offset="0.500236" stop-color="#2BA9E2"/>
<stop offset="1" stop-color="white"/>
</radialGradient>
<linearGradient id="paint24_linear" x1="890.99" y1="364.269" x2="890.99" y2="310.56" gradientUnits="userSpaceOnUse">
<stop stop-color="#ED4B36"/>
<stop offset="0.00550255" stop-color="#ED4B36"/>
<stop offset="0.90171" stop-color="#FBBE41"/>
<stop offset="0.991474" stop-color="#FBBE41"/>
<stop offset="1" stop-color="#FBBE41"/>
</linearGradient>
<linearGradient id="paint25_linear" x1="681.291" y1="520.315" x2="681.291" y2="512.416" gradientUnits="userSpaceOnUse">
<stop stop-color="#ED4B36"/>
<stop offset="0.00550255" stop-color="#ED4B36"/>
<stop offset="0.90171" stop-color="#FBBE41"/>
<stop offset="0.991474" stop-color="#FBBE41"/>
<stop offset="1" stop-color="#FBBE41"/>
</linearGradient>
<linearGradient id="paint26_linear" x1="388.411" y1="521.37" x2="388.411" y2="511.789" gradientUnits="userSpaceOnUse">
<stop stop-color="#44B544"/>
<stop offset="0.00193434" stop-color="#44B544"/>
<stop offset="0.0925482" stop-color="#44B544"/>
<stop offset="0.997239" stop-color="#A4C928"/>
<stop offset="1" stop-color="#A4C928"/>
</linearGradient>
<linearGradient id="paint27_linear" x1="364.143" y1="530.257" x2="364.143" y2="521.436" gradientUnits="userSpaceOnUse">
<stop stop-color="#44B544"/>
<stop offset="0.00193434" stop-color="#44B544"/>
<stop offset="0.0925482" stop-color="#44B544"/>
<stop offset="0.997239" stop-color="#A4C928"/>
<stop offset="1" stop-color="#A4C928"/>
</linearGradient>
<linearGradient id="paint28_linear" x1="350.086" y1="550.114" x2="359.668" y2="550.114" gradientUnits="userSpaceOnUse">
<stop stop-color="#A4C928"/>
<stop offset="0.002761" stop-color="#A4C928"/>
<stop offset="0.907452" stop-color="#44B544"/>
<stop offset="0.998066" stop-color="#44B544"/>
<stop offset="1" stop-color="#44B544"/>
</linearGradient>
<linearGradient id="paint29_linear" x1="364.124" y1="578.811" x2="364.124" y2="569.99" gradientUnits="userSpaceOnUse">
<stop stop-color="#A4C928"/>
<stop offset="0.002761" stop-color="#A4C928"/>
<stop offset="0.907452" stop-color="#44B544"/>
<stop offset="0.998066" stop-color="#44B544"/>
<stop offset="1" stop-color="#44B544"/>
</linearGradient>
<linearGradient id="paint30_linear" x1="388.411" y1="588.438" x2="388.411" y2="578.857" gradientUnits="userSpaceOnUse">
<stop stop-color="#A4C928"/>
<stop offset="0.002761" stop-color="#A4C928"/>
<stop offset="0.907452" stop-color="#44B544"/>
<stop offset="0.998066" stop-color="#44B544"/>
<stop offset="1" stop-color="#44B544"/>
</linearGradient>
<linearGradient id="paint31_linear" x1="412.697" y1="578.811" x2="412.697" y2="569.99" gradientUnits="userSpaceOnUse">
<stop stop-color="#A4C928"/>
<stop offset="0.002761" stop-color="#A4C928"/>
<stop offset="0.907452" stop-color="#44B544"/>
<stop offset="0.998066" stop-color="#44B544"/>
<stop offset="1" stop-color="#44B544"/>
</linearGradient>
<linearGradient id="paint32_linear" x1="417.155" y1="550.114" x2="428.332" y2="550.114" gradientUnits="userSpaceOnUse">
<stop stop-color="#44B544"/>
<stop offset="0.00193434" stop-color="#44B544"/>
<stop offset="0.0925482" stop-color="#44B544"/>
<stop offset="0.997239" stop-color="#A4C928"/>
<stop offset="1" stop-color="#A4C928"/>
</linearGradient>
<linearGradient id="paint33_linear" x1="412.698" y1="530.257" x2="412.698" y2="521.397" gradientUnits="userSpaceOnUse">
<stop stop-color="#44B544"/>
<stop offset="0.00193434" stop-color="#44B544"/>
<stop offset="0.0925482" stop-color="#44B544"/>
<stop offset="0.997239" stop-color="#A4C928"/>
<stop offset="1" stop-color="#A4C928"/>
</linearGradient>
<linearGradient id="paint34_linear" x1="358.071" y1="550.114" x2="418.751" y2="550.114" gradientUnits="userSpaceOnUse">
<stop stop-color="#44B544"/>
<stop offset="0.00193434" stop-color="#44B544"/>
<stop offset="0.0925482" stop-color="#44B544"/>
<stop offset="0.997239" stop-color="#A4C928"/>
<stop offset="1" stop-color="#A4C928"/>
</linearGradient>
<linearGradient id="paint35_linear" x1="383.621" y1="508.595" x2="393.202" y2="508.595" gradientUnits="userSpaceOnUse">
<stop stop-color="#44B544"/>
<stop offset="0.00193434" stop-color="#44B544"/>
<stop offset="0.0925482" stop-color="#44B544"/>
<stop offset="0.997239" stop-color="#A4C928"/>
<stop offset="1" stop-color="#A4C928"/>
</linearGradient>
<linearGradient id="paint36_linear" x1="350.407" y1="518.498" x2="363.182" y2="518.498" gradientUnits="userSpaceOnUse">
<stop stop-color="#44B544"/>
<stop offset="0.00193434" stop-color="#44B544"/>
<stop offset="0.0925482" stop-color="#44B544"/>
<stop offset="0.997239" stop-color="#A4C928"/>
<stop offset="1" stop-color="#A4C928"/>
</linearGradient>
<linearGradient id="paint37_linear" x1="343.699" y1="550.114" x2="351.683" y2="550.114" gradientUnits="userSpaceOnUse">
<stop stop-color="#44B544"/>
<stop offset="0.00193434" stop-color="#44B544"/>
<stop offset="0.0925482" stop-color="#44B544"/>
<stop offset="0.997239" stop-color="#A4C928"/>
<stop offset="1" stop-color="#A4C928"/>
</linearGradient>
<linearGradient id="paint38_linear" x1="350.407" y1="581.73" x2="363.182" y2="581.73" gradientUnits="userSpaceOnUse">
<stop stop-color="#44B544"/>
<stop offset="0.00193434" stop-color="#44B544"/>
<stop offset="0.0925482" stop-color="#44B544"/>
<stop offset="0.997239" stop-color="#A4C928"/>
<stop offset="1" stop-color="#A4C928"/>
</linearGradient>
<linearGradient id="paint39_linear" x1="383.621" y1="591.632" x2="393.202" y2="591.632" gradientUnits="userSpaceOnUse">
<stop stop-color="#44B544"/>
<stop offset="0.00193434" stop-color="#44B544"/>
<stop offset="0.0925482" stop-color="#44B544"/>
<stop offset="0.997239" stop-color="#A4C928"/>
<stop offset="1" stop-color="#A4C928"/>
</linearGradient>
<linearGradient id="paint40_linear" x1="413.64" y1="581.73" x2="426.415" y2="581.73" gradientUnits="userSpaceOnUse">
<stop stop-color="#44B544"/>
<stop offset="0.00193434" stop-color="#44B544"/>
<stop offset="0.0925482" stop-color="#44B544"/>
<stop offset="0.997239" stop-color="#A4C928"/>
<stop offset="1" stop-color="#A4C928"/>
</linearGradient>
<linearGradient id="paint41_linear" x1="426.735" y1="550.114" x2="436.317" y2="550.114" gradientUnits="userSpaceOnUse">
<stop stop-color="#44B544"/>
<stop offset="0.00193434" stop-color="#44B544"/>
<stop offset="0.0925482" stop-color="#44B544"/>
<stop offset="0.997239" stop-color="#A4C928"/>
<stop offset="1" stop-color="#A4C928"/>
</linearGradient>
<linearGradient id="paint42_linear" x1="413.64" y1="518.498" x2="426.415" y2="518.498" gradientUnits="userSpaceOnUse">
<stop stop-color="#44B544"/>
<stop offset="0.00193434" stop-color="#44B544"/>
<stop offset="0.0925482" stop-color="#44B544"/>
<stop offset="0.997239" stop-color="#A4C928"/>
<stop offset="1" stop-color="#A4C928"/>
</linearGradient>
<clipPath id="clip0">
<rect width="1000" height="666.667" fill="white"/>
</clipPath>
</defs>
</svg>
