<svg width="400" height="479" viewBox="0 0 400 479" fill="none" xmlns="http://www.w3.org/2000/svg">
<path d="M134.074 451.88C127.764 451.88 121.462 451.429 115.179 450.311C89.7026 445.781 67.198 430.759 45.8319 415.562C27.4478 402.489 8.10237 387.325 2.00076 364.974C-2.79754 347.4 1.65037 328.423 8.82383 311.753C34.7213 251.566 90.1718 218.315 146.996 218.315C177.248 218.315 207.898 227.746 234.667 247.558C264.846 269.893 294.157 300.484 296.528 339.058C298.1 364.606 287.392 389.23 274.661 411.1C267.949 422.629 259.981 434.314 248.142 439.702C240.141 443.344 231.335 443.684 222.514 443.684C221.503 443.684 220.491 443.68 219.48 443.676C218.477 443.671 217.476 443.667 216.477 443.667C215.251 443.667 214.029 443.674 212.813 443.693C186.465 444.151 160.165 451.88 134.074 451.88" fill="#EAF5F0"/>
<path d="M70.6583 264.394C78.0548 265.948 85.2014 269.642 90.7806 274.798C97.6364 281.127 101.115 287.222 100.09 291.11C85.1748 276.019 64.1944 266.676 42.9977 265.675C51.6086 263.373 61.1237 262.388 70.6583 264.394V264.394ZM94.2821 297.693C85.7651 302.279 70.9934 301.902 64.1501 299.608C58.8137 297.819 53.8141 294.784 48.9848 291.842L26.5914 278.23C39.3278 284.042 52.5926 288.791 66.1322 292.357C75.3228 294.78 86.0772 297.021 96.8599 295.913C96.1064 296.551 95.2749 297.158 94.2821 297.693V297.693ZM22.0369 274.711C34.4506 271.059 48.9582 272.105 66.3165 277.891C73.6208 280.324 80.2781 284.566 86.7207 288.667C89.9368 290.718 93.2503 292.828 96.6471 294.716C86.0896 295.78 75.5072 293.532 66.4495 291.142C51.1761 287.116 36.2395 281.592 22.0369 274.711V274.711ZM40.2373 266.823C62.2123 267.107 84.2333 276.642 99.5812 292.39C99.2887 293.044 98.9182 293.667 98.4608 294.257C94.6792 292.229 90.9756 289.889 87.3962 287.607C80.8897 283.464 74.1651 279.184 66.7119 276.698C50.6407 271.341 36.9469 270 25.0472 272.64C29.3607 270.452 34.3567 268.298 39.7835 266.604C39.897 266.733 40.0529 266.82 40.2373 266.823V266.823ZM156.519 207.644C161.235 204.51 166.113 201.739 171.112 199.306C147.83 217.463 127.081 239.399 110.346 263.611C110.885 261.203 111.837 258.629 112.968 256.406C113.617 255.133 114.286 253.872 114.977 252.623C124.903 234.651 139.195 219.161 156.519 207.644ZM171.266 224.914C163.788 235.917 155.629 247.423 145.38 256.53C138.514 262.636 127.946 270.282 116.599 272.053C113.624 272.518 111.648 272.108 110.726 270.837C110.492 270.515 110.313 270.133 110.178 269.703C116.09 270.163 122.06 268.059 126.898 263.717C139.26 252.628 149.976 239.625 160.335 227.059C165.394 220.92 169.063 214.775 172.61 208.832C175.363 204.223 178.211 199.493 181.694 194.757C184.309 193.78 186.949 192.887 189.616 192.101C185.299 203.829 178.473 214.323 171.266 224.914V224.914ZM176.257 196.938C177.349 196.468 178.45 196.025 179.553 195.589C176.548 199.838 173.997 204.061 171.534 208.187C168.008 214.091 164.364 220.195 159.367 226.256C149.036 238.792 138.353 251.756 126.058 262.783C121.384 266.979 115.612 268.94 109.926 268.396C109.866 267.806 109.859 267.167 109.907 266.488C127.848 240.007 150.6 216.165 176.257 196.938ZM60.1717 107.781C63.0704 116.096 66.3041 124.432 70.8214 132.079C75.165 139.436 81.0191 146.715 88.7223 154.333C94.3955 159.945 100.489 165.162 106.891 169.937C105.136 169.561 103.4 168.859 101.884 168.166C78.6523 157.564 62.7194 133.153 60.1717 107.781ZM60.5529 90.6176C65.3131 96.8547 70.1406 103.276 74.3601 109.972C76.6542 113.603 78.8225 117.408 80.9234 121.085C83.9745 126.43 87.132 131.951 90.7257 137.085C92.4046 139.475 94.1935 141.914 96.016 144.4C102.005 152.566 108.15 160.968 111.94 169.761L111.851 169.791C111.08 170.075 110.265 170.199 109.433 170.212C102.425 165.127 95.7589 159.528 89.6052 153.442C81.9782 145.902 76.1898 138.702 71.9011 131.442C66.6463 122.54 63.1253 112.653 59.8402 102.955C59.7054 98.8279 59.9359 94.6971 60.5529 90.6176ZM77.2003 100.89C88.0451 120.594 99.2816 140.356 110.678 159.748C111.008 161.76 111.293 163.811 111.534 165.907C107.69 158.211 102.299 150.843 97.0265 143.659C95.2093 141.18 93.424 138.75 91.7575 136.365C88.1905 131.281 85.0524 125.779 82.0155 120.461C79.9075 116.773 77.7304 112.96 75.4221 109.302C70.9704 102.244 65.8644 95.4967 60.8436 88.9299C60.9092 88.5629 60.9624 88.1941 61.0351 87.8271C66.508 92.0235 71.9915 96.3158 77.2003 100.89V100.89ZM97.319 123.329C103.409 132.734 107.657 143.664 110.094 156.263C99.8844 138.83 89.8144 121.129 80.0458 103.443C86.5434 109.414 92.5056 115.904 97.319 123.329ZM124.687 144.336C125.547 142.312 126.357 140.409 127.031 138.697C130.508 129.88 134.532 121.335 139.076 113.107C145.247 101.934 152.381 91.341 160.414 81.4358C160.627 81.1735 160.856 80.9324 161.092 80.709C159.313 87.9477 155.541 94.6775 151.858 101.228L151.171 102.453C138.528 124.978 127.4 148.632 118.037 172.717C117.706 171.887 117.475 170.791 117.399 169.488C116.975 162.46 121.251 152.408 124.687 144.336V144.336ZM125.093 170.201C123.035 173.357 120.695 174.676 119.445 174.344C119.244 174.293 119.067 174.133 118.89 173.981C128.295 149.673 139.496 125.841 152.266 103.069L152.956 101.84C156.901 94.8176 160.959 87.5364 162.611 79.5797C162.776 79.4839 162.941 79.3899 163.086 79.3226C156.03 111.777 143.256 142.335 125.093 170.201V170.201ZM46.3715 296.138C51.442 299.218 56.6844 302.405 62.5545 304.375C70.0946 306.898 86.5789 307.55 96.6649 302.113C98.9501 300.882 100.774 299.406 102.177 297.712C102.845 311.807 105.361 325.756 109.68 339.168C112.272 347.219 116.722 358.879 125.426 367.19C126.43 368.148 128.018 368.112 128.978 367.105C129.128 366.949 129.258 366.772 129.359 366.587C129.898 365.612 129.738 364.359 128.894 363.556C122.819 357.753 118.367 349.756 114.461 337.627C112.78 332.406 111.392 327.098 110.275 321.735C110.69 322.345 111.222 322.914 111.915 323.425C124.435 332.642 138.711 293.654 139.274 286.068C139.299 285.744 139.312 285.389 139.118 285.127C138.686 284.535 137.757 284.926 137.168 285.364C132.787 288.619 111.071 305.724 109.336 316.831C108.187 310.257 107.453 303.607 107.162 296.92C106.843 289.584 107.061 282.207 107.6 274.837C109.3 276.463 112.249 277.819 117.37 277.019C129.926 275.058 141.351 266.836 148.719 260.283C159.397 250.798 167.767 239.005 175.424 227.736C179.562 221.648 183.769 215.296 187.455 208.623C190.213 203.629 192.681 198.45 194.61 193.071C195.381 190.908 195.174 189.183 193.991 187.944C192.833 186.726 191.142 186.432 188.967 187.056C176.619 190.61 164.765 196.131 153.738 203.464C135.573 215.535 120.62 231.803 110.295 250.72C110.942 246.111 111.63 241.522 112.316 236.973C113.713 227.69 115.161 218.088 116.186 208.595C117.328 198.025 117.746 188.182 117.487 178.979C117.737 179.078 117.964 179.149 118.159 179.2C121.874 180.188 126.144 177.787 129.304 172.942C133.041 167.208 136.551 161.37 139.838 155.418C153.165 131.291 162.765 105.42 168.447 78.2713C168.58 77.6277 168.462 76.9629 168.111 76.4098C167.229 75.0216 165.848 74.2078 164.224 74.1121C161.358 73.9472 158.285 76.0836 156.512 78.2713C142.241 95.8779 130.745 115.589 122.356 136.856C121.7 138.526 120.907 140.388 120.062 142.37C118.363 146.363 116.479 150.809 114.993 155.252C112.429 142.046 107.969 130.534 101.531 120.601C91.0625 104.441 75.0817 92.2328 60.9819 81.4642C60.3153 80.9501 59.4342 80.8117 58.6381 81.083C57.8457 81.3578 57.2394 82.0031 57.0266 82.8275C47.9955 117.519 67.1835 157.856 99.7958 172.736C103.326 174.348 107.854 175.986 112.321 174.894C112.866 185.036 112.486 196.069 111.192 208.056C110.444 214.986 109.462 222.001 108.44 228.915C108.261 228.501 108.07 228.047 107.875 227.549C105.538 221.547 104.425 215.114 101.526 209.323C96.6986 199.673 87.4051 192.853 77.3971 188.82C67.3874 184.788 56.5834 183.233 45.9017 181.71C36.9522 180.434 28.0026 179.158 19.0531 177.881C17.1188 182.689 19.9378 188.059 23.1857 192.096C30.935 201.725 41.5103 208.69 52.472 214.397C65.8715 221.374 80.1291 226.706 94.814 230.25C98.3278 231.098 102.285 232.419 105.905 232.573C106.746 232.608 107.389 232.603 107.898 232.555C107.714 233.78 107.531 235.011 107.348 236.225C105.161 250.725 102.936 265.591 102.23 280.53C99.8915 276.746 96.6595 273.388 94.1881 271.108C87.9529 265.35 79.9643 261.217 71.6937 259.475C52.3178 255.397 33.2593 262.537 20.6824 269.243C19.6151 269.814 17.4132 270.986 16.7767 273.403C16.2963 275.273 16.6491 278.063 21.0689 280.756L46.3715 296.138" fill="#063E59" fill-opacity="0.3"/>
<path d="M95.0977 92.2984C94.6633 90.1195 95.9522 85.9531 98.4963 83.4817C99.4023 82.597 100.808 81.6202 102.359 81.973C103.654 82.2673 104.96 83.2016 106.239 84.7529C108.013 86.8927 109.6 90.2808 108.731 93.3709C107.9 96.3157 104.74 98.4537 101.657 98.2126C98.5992 97.9804 95.7182 95.3814 95.0977 92.2984ZM112.624 97.0177C113.022 96.2961 113.341 95.5303 113.568 94.7307C114.752 90.5201 113.456 85.5896 110.107 81.5492C108.109 79.1274 105.879 77.6206 103.476 77.0746C100.544 76.408 97.5319 77.406 94.9878 79.8845C91.4136 83.3682 89.3394 89.1391 90.1744 93.2894C91.2488 98.6347 95.9167 102.81 101.269 103.223C105.868 103.583 110.442 100.968 112.624 97.0177" fill="#063E59" fill-opacity="0.3"/>
<path d="M133.598 76.9133C133.249 76.3406 133.009 75.6137 132.874 74.7591C132.513 72.3959 132.999 70.4635 134.188 69.3324C135.477 68.1091 137.569 67.7244 140.072 68.2545C141.687 68.5914 143.04 69.6249 143.517 70.8801C143.74 71.474 143.82 72.2027 143.751 73.0448C143.524 75.6421 141.826 78.0107 139.617 78.8316C137.447 79.6329 134.692 78.7571 133.598 76.9133V76.9133ZM127.912 75.5268C128.144 77.0285 128.609 78.3618 129.279 79.4893C131.61 83.4039 136.915 85.1856 141.36 83.5386C143.859 82.6149 145.951 80.709 147.272 78.3174C148.086 76.8441 148.607 75.1935 148.756 73.465C148.887 71.8676 148.706 70.3997 148.215 69.1037C147.128 66.2387 144.407 64.0297 141.108 63.3347C136.94 62.4607 133.256 63.2957 130.733 65.6856C128.284 68.0045 127.283 71.5024 127.912 75.5268" fill="#063E59" fill-opacity="0.3"/>
<path d="M108.517 54.7467C109.736 54.1262 110.946 53.3249 111.566 52.1052C112.367 50.5255 111.979 48.5344 110.969 47.0806C109.958 45.6251 108.419 44.6253 106.838 43.8257C100.649 40.6948 98.2056 50.4119 101.748 54.2165C102.299 54.8069 102.971 55.3052 103.739 55.5569C105.315 56.0746 107.038 55.5001 108.517 54.7467" fill="#063E59" fill-opacity="0.3"/>
<path d="M120.292 18.8899C121.262 20.8029 123.53 21.8578 125.669 21.7089C127.111 21.6079 128.591 20.95 129.32 19.7037C129.614 19.2002 129.772 18.6257 129.846 18.0496C130.116 15.9558 129.187 13.7042 127.409 12.5678C123.51 10.0822 118.167 14.69 120.292 18.8899Z" fill="#063E59" fill-opacity="0.3"/>
<path d="M195.168 207.391C192.393 208.449 190.053 208.835 188.019 208.579C183.777 208.05 179.947 204.309 178.89 199.673C177.765 194.694 180.088 189.054 184.59 186.026C188.306 183.502 192.533 183.509 196.153 186.009C199.077 188.032 201.12 190.115 202.397 192.381C203.269 193.929 203.761 195.617 203.838 197.222C203.893 198.26 203.782 199.269 203.478 200.178C202.164 204.184 197.697 206.409 195.168 207.391V207.391ZM212.031 173.439C215.759 170.928 219.975 170.922 223.607 173.433C226.531 175.455 228.561 177.528 229.852 179.803C230.722 181.353 231.215 183.04 231.292 184.645C231.347 185.683 231.235 186.694 230.935 187.598C229.616 191.609 225.149 193.835 222.607 194.807C219.835 195.861 217.509 196.255 215.474 196.001C211.233 195.471 207.39 191.719 206.333 187.085C205.214 182.097 207.549 176.469 212.031 173.439V173.439ZM246.618 147.844C240.034 142.346 234.495 135.464 230.608 127.954C225.499 118.08 223.066 106.842 223.473 95.7345C226.952 117.275 237.486 137.399 253.295 152.491C251.983 151.894 249.916 150.598 246.618 147.844V147.844ZM226.109 84.8726C226.696 84.7059 227.588 84.9282 228.741 85.5147C233.177 87.7942 236.562 92.0599 238.991 95.5097C246.378 105.972 251.631 118.284 254.204 131.127C255.064 135.476 255.951 140.277 256.171 144.862C256.276 146.945 256.247 148.984 256.023 150.926C256.003 151.168 255.962 151.356 255.921 151.545L253.328 146.577C243.358 127.479 233.051 107.737 224.271 87.9076C224.678 86.1886 225.327 85.1023 226.109 84.8726V84.8726ZM223.909 90.2165L223.931 90.0536C232.57 109.362 242.585 128.537 252.298 147.128L255.193 152.679C237.634 136.423 226.415 113.995 223.909 90.2165V90.2165ZM325.021 111.734C326.785 111.609 328.79 111.551 330.435 112.42C330.414 112.474 330.295 112.817 329.391 113.64L308.507 132.76C302.057 138.669 295.388 144.781 288.096 149.753C283.17 153.115 279.012 155.183 275 156.25C270.091 157.562 265.266 157.329 261.411 155.595L261.318 155.554C263.364 148.542 269.737 141.19 274.612 136.027C287.995 121.852 306.365 113.001 325.021 111.734ZM271.762 185.697C286.311 181.806 303.275 183.357 319.77 190.008C296.431 187.532 274.174 188.466 253.441 192.888C259.362 190.101 265.468 187.373 271.762 185.697ZM324.952 193.294L324.944 193.413C324.872 193.696 324.418 194.204 324.245 194.401C318.866 200.408 311.246 203.101 305.8 204.296C298.87 205.822 291.684 205.922 283.68 205.892C275.465 205.865 268.074 205.716 260.917 204.209C254.715 202.897 249.715 200.889 246.063 198.242C245.247 197.651 244.929 197.252 244.815 197.21L244.854 197.186C245.231 197.292 245.613 197.366 245.939 197.375C268.437 198.509 291.052 196.947 313.189 192.759L313.756 192.646C316.907 192.047 320.134 191.458 323.299 191.598C324.347 192.24 324.932 192.887 324.952 193.294V193.294ZM247.972 195.387C269.444 190.059 292.628 188.515 317.074 190.856C315.887 191.044 314.707 191.276 313.534 191.5L312.956 191.6C291.015 195.778 268.56 197.321 246.242 196.224C246.78 195.932 247.396 195.646 247.972 195.387V195.387ZM259.245 226.538C260.696 226.792 261.778 227.228 262.532 227.845C263.146 228.347 263.554 229.062 263.576 229.683L263.583 229.728L263.509 229.797C256.133 237.773 245.437 241.995 236.011 245.732L234.868 246.187C236.66 240.696 239.541 235.577 242.775 232.327C247.324 227.749 253.638 225.534 259.245 226.538V226.538ZM241.129 247.505C238.726 248.134 236.534 248.084 234.411 247.62L236.431 246.81C244.971 243.439 254.506 239.641 261.836 233.05C256.915 240.114 249.472 245.363 241.129 247.505V247.505ZM257.937 258.134C263.548 260.835 268.344 265.3 271.419 270.698C272.79 273.112 274.219 276.615 273.171 279.572C272.731 280.82 271.867 281.806 270.798 282.598C263.015 277.627 255.711 271.331 248.626 265.211C244.06 261.261 239.355 257.221 234.556 253.546C242.205 254.036 250.759 254.677 257.937 258.134ZM262.692 284.865C253.779 284.608 246.258 279.109 241.508 274.531C237.713 270.879 235.243 267.401 233.978 263.901C233.147 261.598 232.841 258.938 232.957 256.136C241.175 268.794 253.532 278.813 267.646 284.172C266.027 284.676 264.288 284.904 262.692 284.865ZM269.244 283.531C254.396 278.206 241.419 267.639 233.118 254.221L233.14 253.923C238.159 257.718 243.083 261.962 247.861 266.096C254.831 272.121 262.026 278.315 269.704 283.287C269.555 283.372 269.406 283.458 269.244 283.531V283.531ZM173.162 280.352C173.104 275.801 174.09 270.949 176.263 265.099C179.591 256.18 184.455 248.136 190.084 240.858C199.124 240.301 208.44 241.739 217.052 245.038C219.24 245.879 221.366 246.988 223.42 248.057C225.205 248.987 227.021 249.932 228.911 250.725C227.947 255.981 228.012 261.201 229.581 265.495C231.091 269.678 233.927 273.736 238.264 277.903C243.597 283.048 252.145 289.245 262.555 289.534C268.486 289.711 275.424 287.174 277.587 281.147C278.892 277.478 278.164 273.065 275.48 268.377C271.933 262.157 266.421 257.026 259.962 253.909C256.08 252.047 251.929 250.914 247.768 250.2C255.477 246.985 262.169 241.386 266.652 234.323C267.373 233.197 268.05 231.94 268.216 230.452C268.498 228.193 267.438 225.808 265.492 224.221C264.099 223.079 262.336 222.336 260.065 221.928C252.972 220.662 245.065 223.376 239.458 229.029C235.465 233.047 231.982 239.381 230.012 246.104C228.566 245.464 227.097 244.692 225.577 243.905C223.406 242.772 221.159 241.602 218.728 240.671C210.824 237.643 202.351 236.085 193.981 236.071C203.122 225.425 213.743 216.593 223.238 209.357L227.051 206.464C231.503 203.095 236.048 199.659 240.323 195.896C240.253 196.15 240.168 196.396 240.13 196.661C240.114 196.898 240.11 197.12 240.115 197.33C240.238 199.796 242.525 201.454 243.312 202.029C247.514 205.071 253.102 207.344 259.953 208.789C267.541 210.386 275.18 210.539 283.664 210.567C291.953 210.606 299.414 210.501 306.804 208.866C315.585 206.94 322.821 203.015 327.722 197.52C328.452 196.708 329.177 195.793 329.484 194.556C330.282 191.464 328.171 188.494 323.854 186.629C305.713 178.787 286.777 176.845 270.557 181.174C262.995 183.195 255.883 186.553 249.002 189.801C248.475 190.052 247.902 190.309 247.307 190.567C246.474 190.918 245.625 191.289 244.81 191.697C246.187 190.315 247.531 188.896 248.803 187.408C255.379 179.712 259.032 171.291 260.506 160.287C265.152 162.077 270.671 162.248 276.207 160.772C280.745 159.563 285.355 157.288 290.727 153.617C298.305 148.463 305.091 142.226 311.667 136.208L332.565 117.097C333.346 116.381 335.706 114.211 334.96 111.364C334.646 110.201 333.841 109.19 332.631 108.433C330.211 106.92 327.387 106.878 324.7 107.065C304.88 108.408 285.388 117.794 271.211 132.811C267.679 136.556 263.824 140.937 260.88 145.624C260.722 140.417 259.753 135.046 258.788 130.21C256.097 116.737 250.573 103.802 242.819 92.8138C240.067 88.9185 236.23 84.1026 230.88 81.3587C228.609 80.1941 226.626 79.8717 224.841 80.3763C221.875 81.2224 220.034 83.9902 219.371 88.6108C218.772 92.9065 218.587 97.2592 218.798 101.585C219.295 111.492 221.891 121.3 226.451 130.102C230.635 138.174 236.568 145.544 243.619 151.438C247.957 155.062 252.459 158.257 256.137 157.514L256.078 157.917C254.862 168.991 251.623 176.903 245.248 184.364C239.247 191.395 231.618 197.155 224.224 202.72L220.393 205.635C218.361 207.19 216.27 208.821 214.152 210.515C213.994 206.878 213.223 203.252 211.889 199.869C212.865 200.226 213.854 200.511 214.897 200.647C217.712 200.998 220.774 200.514 224.28 199.183C230.016 196.989 233.954 193.394 235.378 189.056C236.568 185.455 236.027 181.233 233.922 177.498C232.293 174.606 229.786 172.015 226.276 169.59C221.038 165.971 214.745 165.967 209.411 169.561C204.521 172.877 201.56 178.505 201.43 184.166C200.622 183.483 199.762 182.814 198.823 182.165C193.599 178.555 187.29 178.544 181.968 182.15C176.71 185.7 173.646 191.923 173.957 197.986C173.99 198.889 174.117 199.806 174.323 200.703C175.814 207.291 181.207 212.441 187.441 213.225C190.254 213.579 193.319 213.092 196.828 211.758C202.355 209.645 206.182 206.22 207.729 202.102C209.132 205.856 209.75 209.924 209.469 213.914L209.512 214.345C194.759 226.809 179.564 242.876 171.89 263.468C169.522 269.789 168.415 275.339 168.48 280.422L168.494 280.512C168.551 281.763 169.601 282.755 170.866 282.737C172.154 282.717 173.184 281.649 173.162 280.352" fill="#063E59" fill-opacity="0.15"/>
<path d="M185.166 165.851C184.438 162.521 185.968 158.803 188.958 156.79C190.385 155.83 193.25 154.548 196.473 156.777C198.485 158.171 199.875 159.586 200.742 161.113C201.312 162.132 201.634 163.23 201.684 164.274C201.719 164.932 201.647 165.567 201.453 166.143C200.608 168.755 197.609 170.239 195.902 170.885C194.031 171.608 192.459 171.862 191.123 171.702C188.363 171.362 185.859 168.901 185.166 165.851ZM205.909 167.611C206.812 164.843 206.423 161.641 204.811 158.809C203.595 156.652 201.74 154.731 199.143 152.934C195.172 150.187 190.384 150.177 186.337 152.913C182.385 155.579 180.091 160.262 180.326 164.827C180.358 165.515 180.45 166.208 180.6 166.879C181.72 171.865 185.814 175.751 190.547 176.346C192.658 176.61 194.953 176.256 197.575 175.262C201.863 173.62 204.815 170.898 205.909 167.611" fill="#063E59" fill-opacity="0.15"/>
<g clip-path="url(#clip0)">
<path d="M308.645 294.853L308.659 294.86C311.968 292.094 314.993 290.802 317.641 291.01C314.696 301.118 306.785 309.621 296.907 313.263L294.923 313.963C294.508 314.121 294.079 314.271 293.647 314.425C296.919 307.411 302.622 299.877 308.645 294.853V294.853ZM288.023 320.096L288.212 320.272C288.899 320.844 289.878 320.949 290.68 320.53C292.481 319.585 294.393 318.91 296.423 318.197L298.461 317.471C309.795 313.287 318.838 303.447 322.081 291.784C322.211 291.276 322.437 290.435 322.193 289.481C321.774 287.85 320.275 286.754 318.182 286.553C314.273 286.184 310.102 287.819 305.777 291.407C297.62 298.211 290.262 308.847 287.497 317.889C287.254 318.668 287.457 319.509 288.023 320.096" fill="#063E59"/>
<path d="M319.345 314.268C325.517 310.141 332.342 308.524 338.45 309.824C335.358 314.784 330.028 318.757 323.056 321.146C311.605 325.068 309.899 323.438 309.725 323.27C309.721 323.245 309.533 320.855 319.345 314.268V314.268ZM305.304 322.524C305.097 323.843 305.428 325.077 306.254 326.085L306.505 326.371C309.789 329.806 317.443 327.818 324.847 325.272C332.694 322.586 338.989 317.752 342.566 311.655C343.822 309.52 343.366 308.039 342.767 307.175C342.011 306.114 340.852 305.791 340.344 305.648C332.991 303.684 324.435 305.475 316.854 310.547C309.451 315.514 305.775 319.316 305.304 322.524" fill="#063E59"/>
<path d="M336.313 346.691C334.247 347.911 331.337 348.092 327.412 347.24C323.322 346.353 308.947 340.399 307.547 336.245C307.441 335.936 307.387 335.634 307.831 335.13C309.892 332.752 325.582 338.122 334.357 342.768L334.359 342.766C335.255 343.242 336.019 343.812 336.551 344.365C337.104 344.943 337.379 345.489 337.232 345.845C337.178 345.961 336.997 346.281 336.313 346.691V346.691ZM275.044 340.079C272.908 342.129 270.662 344.147 268.353 346.056C268.001 346.351 267.712 346.546 267.489 346.664L267.507 346.545C267.707 345.178 268.577 343.813 269.42 342.491L270.13 341.351C279.062 326.873 281.953 326.991 282.457 327.171C282.717 327.261 282.851 327.346 282.932 327.426L283.029 327.628C283.564 330.06 278.167 337.073 275.044 340.079V340.079ZM114.171 279.506L114.129 279.484L114.21 279.233L114.171 279.506ZM129.913 264.633C130.961 264.358 131.83 264.368 132.272 264.677C132.964 265.181 133.062 266.788 132.511 268.899C130.096 278.127 125.204 286.543 119.404 291.391C118.491 292.166 117.879 292.551 117.5 292.74C117.312 291.905 117.255 290.411 117.225 289.441C117.204 289.057 117.195 288.682 117.172 288.301C117.362 287.308 117.61 285.863 117.873 284.335C118.267 281.967 118.886 278.402 119.114 277.678C120.444 273.54 123.596 266.331 129.913 264.633V264.633ZM109.388 275.333C106.915 271.703 104.132 267.343 102.337 262.596C101.698 260.9 101.015 258.706 101.357 256.721C101.588 255.334 102.6 253.741 104.021 253.525C105.08 253.351 106.154 253.961 107.103 254.952C107.905 255.789 108.599 256.888 109.11 258.013C111.746 263.804 112.167 270.398 110.362 276.552C109.979 276.12 109.653 275.715 109.388 275.333V275.333ZM129.555 297.331C130.651 296.26 131.717 295.208 132.656 294.181L132.671 294.187C134.083 292.639 134.975 292.405 135.142 292.496L135.166 292.517C135.347 292.705 135.463 293.716 134.98 294.908C133.838 297.788 129.966 301.756 126.227 302.849C125.494 303.067 124.823 303.156 124.198 303.111C125.676 301.159 127.646 299.225 129.555 297.331V297.331ZM157.125 208.569C159.678 205.549 162.007 203.548 164.436 202.254C167.17 200.8 170.143 200.308 172.934 200.975C172.847 201.205 172.693 201.511 172.455 201.833C168.836 206.711 162.164 211.103 156.628 212.297C155.592 212.523 154.931 212.566 154.529 212.553C154.775 211.86 155.461 210.52 157.125 208.569V208.569ZM153.76 177.835C154.877 176.521 155.761 175.881 156.468 175.883C157.693 175.892 158.72 177.984 158.864 179.847C159.21 184.078 157.65 188.764 154.49 193.055C151.643 196.904 147.969 199.926 146.463 199.649C146.283 199.61 146.106 199.445 145.931 199.217C145.83 198.96 145.725 198.71 145.623 198.454C145.556 198.293 145.443 198.174 145.357 198.044L145.189 197.566C143.801 192.584 149.48 182.845 153.76 177.835V177.835ZM242.873 207.768C242.757 205.68 242.66 203.862 242.514 202.57C242.373 201.272 242.274 200.203 242.514 199.31C242.677 198.66 243.101 198.099 243.498 198.001C243.969 197.874 244.715 198.292 245.427 199.034C245.629 199.248 245.834 199.489 246.023 199.753C248.566 203.271 249.619 208.162 248.995 213.529C248.426 218.302 246.931 223.631 245.799 225.208C243.665 222.528 243.166 213.309 242.873 207.768V207.768ZM268.504 191.627C269.254 189.945 270.109 188.246 271.406 187.301C272.418 186.575 273.87 186.459 274.519 187.063L274.576 187.121C275.265 187.841 275.324 189.391 274.731 191.838C272.619 200.67 268.214 214.166 264.778 217.972C264.341 218.076 264.056 218.054 263.873 217.988C263.507 217.859 262.813 216.788 262.695 213.567C262.497 208.173 264.398 200.995 268.504 191.627V191.627ZM281.304 208.871L282.361 207.655C287.997 201.275 293.715 197.607 299.384 196.768L299.769 196.719C299.677 196.955 299.52 197.267 299.262 197.652C295.627 203.093 291.54 208.753 286.229 213.234C284.042 215.067 280.631 216.442 276.01 217.333C275.161 217.289 274.317 217.268 273.49 217.278C275.892 215.039 278.497 212.178 281.304 208.871V208.871ZM307.694 233.956C308.431 234.538 309.429 235.39 309.501 236.112C309.608 237.137 307.757 238.221 306.037 238.558C301.717 239.415 297.128 238.612 292.676 237.827C288.371 237.076 283.914 236.299 279.919 234.601C276.224 233.021 272.005 227.227 268.983 222.743C271.625 222.543 274.047 222.246 276.238 221.842C287.252 222.54 299.656 227.707 307.694 233.956ZM268.35 239.162C269.828 240.71 271.221 242.244 272.38 243.525C274.423 245.782 276.187 247.198 276.614 248.637C277.063 250.13 275.615 251.884 274.081 252.402C271.887 253.14 269.307 252.342 267.517 251.534C262.832 249.419 259.002 245.573 256.985 240.973C255.472 237.507 254.574 232.068 255.677 230.657C255.75 230.57 255.957 230.298 256.964 230.477C260.055 231.022 264.536 235.17 268.35 239.162ZM220.833 285.505C224.27 278.884 230.742 273.976 236.46 269.65L239.435 267.389C239.267 267.54 239.098 267.692 238.929 267.842C235.812 270.659 232.58 273.57 229.72 276.753C222.488 284.793 219.2 293.718 220.503 301.468C220.342 301.307 220.192 301.129 220.035 300.903C217.445 297.22 218.403 290.18 220.833 285.505V285.505ZM229.657 293.872C229.188 294.444 228.658 295.115 228.097 295.836C226.644 297.688 224.126 300.89 222.298 301.758L222.46 301.499C229.912 289.276 237.63 276.745 245.835 264.691C242.42 275.284 236.936 285.247 229.657 293.872V293.872ZM245.137 263.627C236.823 275.827 229.044 288.545 221.5 300.915L221.491 300.929C220.422 293.611 223.66 285.157 230.555 277.507C233.373 274.362 236.576 271.467 239.68 268.672C241.503 267.034 243.345 265.365 245.137 263.627V263.627ZM336.455 338.805C336.12 338.626 311.021 325.647 304.674 331.97C285.076 319.08 262.447 309.946 239.182 305.541C234.879 304.728 230.896 304.148 227.108 303.763C228.765 302.241 230.28 300.321 231.62 298.59C232.149 297.92 232.648 297.299 233.091 296.769C242.845 285.189 249.591 271.347 252.579 256.713C252.772 255.806 252.376 254.886 251.579 254.369C250.789 253.873 249.773 253.917 249.03 254.481L233.746 266.077C227.661 270.693 220.764 275.924 216.847 283.434C214.4 288.168 212.251 297.266 216.202 303.223C215.317 303.237 214.43 303.254 213.55 303.289C190.254 304.198 168.851 312.27 152.081 326.221C152.662 324.9 153.268 323.629 153.836 322.268C155.245 318.992 156.588 315.671 157.918 312.34C162.794 300.271 167.834 287.79 175.636 277.368C187.186 261.951 204.447 251.611 218.197 244.33C228.996 238.612 240.147 233.467 251.514 228.931C249.13 233.861 252.831 242.67 252.867 242.763C254.03 245.413 255.68 247.851 257.688 249.954C259.946 252.315 262.665 254.264 265.678 255.622C269.331 257.269 272.639 257.615 275.514 256.653C279.101 255.444 282.131 251.422 280.917 247.358C280.403 245.64 279.324 244.409 278.15 243.183L278.151 243.181C277.462 242.461 276.635 241.545 275.708 240.519C269.594 233.756 263.686 227.621 258.503 226.244C260.481 225.494 262.48 224.77 264.483 224.068C266.597 227.258 269.235 231.133 272.194 234.223C274.089 236.208 276.104 237.85 278.167 238.729C282.634 240.626 287.356 241.456 291.9 242.242C296.523 243.052 301.765 243.974 306.91 242.96C310.586 242.238 314.362 239.649 313.957 235.664C313.723 233.257 311.949 231.587 310.442 230.415C304.061 225.456 295.084 221.042 285.867 218.809C287.103 218.172 288.185 217.454 289.124 216.665C294.876 211.806 299.369 205.586 302.99 200.135C305.444 196.438 304.019 194.267 303.285 193.5C301.726 191.874 299.459 192.221 298.718 192.333C291.893 193.351 285.44 197.391 278.991 204.685L277.895 205.965C276.246 207.892 274.797 209.529 273.496 210.898C276.564 203.194 278.719 194.443 279.095 192.884C279.716 190.272 280.254 186.567 277.838 184.042L277.56 183.77C275.022 181.411 271.135 181.964 268.777 183.682C266.624 185.251 265.393 187.555 264.406 189.826C261.603 196.206 257.913 205.625 258.211 213.731C258.254 215.098 258.405 218.655 260.309 220.804C257.25 221.913 254.202 223.063 251.166 224.254C252.56 220.523 253.22 215.995 253.444 214.05L253.446 214.048C254.204 207.567 252.86 201.557 249.657 197.125C247.603 194.318 244.894 193.01 242.383 193.657C240.37 194.166 238.764 195.904 238.163 198.185C237.711 199.956 237.903 201.681 238.062 203.072C238.207 204.305 238.289 206.029 238.397 208.008C238.866 216.767 239.491 224.319 242.235 227.903C235.302 230.859 228.466 234.048 221.745 237.441C222.906 234.593 223.71 230.581 224.149 225.181C224.861 216.442 222.257 207.398 217.013 200.377C216.342 199.509 215.239 199.245 214.275 199.684C211.494 200.975 210.781 204.243 210.517 205.473C208.411 215.163 208.315 230.212 214.877 241.012C200.932 248.486 183.786 259.001 172.051 274.684C170.967 276.124 169.95 277.606 168.96 279.104C169.583 256.959 161.884 237.304 153.305 216.909C154.972 217.226 156.754 216.851 157.567 216.683C164.176 215.263 171.773 210.255 176.047 204.506C177.923 202.005 178.021 199.246 176.235 197.684C175.581 197.089 174.832 196.824 174.195 196.649C170.465 195.634 166.244 196.214 162.337 198.294C159.384 199.86 156.639 202.2 153.695 205.666L153.693 205.669C152.194 207.445 151.177 209.017 150.567 210.414C149.673 208.29 148.774 206.143 147.88 203.986C152.343 203.05 156.71 197.6 158.09 195.714C161.902 190.557 163.761 184.793 163.34 179.487C163.004 175.479 160.542 171.412 156.483 171.403C153.689 171.399 151.637 173.405 150.353 174.926L150.352 174.927C146.97 178.886 138.668 190.887 140.875 198.774C141.173 199.82 141.539 200.639 141.953 201.322C143.789 205.884 145.685 210.38 147.55 214.805C157.738 238.931 167.357 261.726 163.722 288.135C159.92 295.461 156.81 303.141 153.762 310.663C152.432 313.962 151.104 317.259 149.723 320.521C142.14 338.338 133.657 352.663 124.001 364.085C127.211 353.912 127.556 341.693 124.958 327.556C123.808 321.295 122.224 315.041 120.696 308.998C120.479 308.12 120.263 307.24 120.034 306.351C122.174 307.674 124.722 307.954 127.479 307.15C132.699 305.627 137.608 300.474 139.151 296.563C140.246 293.789 140.105 290.097 137.282 288.555C135.901 287.808 133.046 287.154 129.367 291.141C128.462 292.113 127.448 293.112 126.415 294.141C123.7 296.822 120.896 299.585 119.128 302.69C118.693 300.906 118.278 299.118 117.873 297.316C119.461 297.011 121.007 295.907 122.293 294.832C128.772 289.403 134.216 280.133 136.856 270.035C138.316 264.433 136.203 261.959 134.842 261.003C133.272 259.902 131.167 259.659 128.751 260.305C121.247 262.322 117.313 269.56 115.425 274.652C116.575 268.412 115.832 261.946 113.194 256.157C111.424 252.266 107.906 248.369 103.315 249.094C100.17 249.591 97.5522 252.416 96.9315 255.954C96.4067 259.009 97.3083 261.959 98.1436 264.179C100.108 269.373 103.054 274.008 105.687 277.861C106.662 279.288 108.084 280.686 109.531 282.223L109.644 282.341C110.102 282.832 110.539 283.327 110.944 283.814C111.984 292.764 114.198 301.566 116.354 310.101C117.869 316.076 119.427 322.251 120.553 328.37C123.963 347.008 122.098 361.993 115 372.902C114.411 373.786 114.552 374.936 115.25 375.67C115.363 375.789 115.498 375.901 115.643 375.997C116.199 376.361 116.846 376.43 117.429 376.273C118.093 376.374 118.791 376.211 119.325 375.714C129.667 365.764 138.73 353.081 146.829 337.277C163.72 319.274 187.478 308.801 213.722 307.769C221.119 307.478 228.947 308.172 238.353 309.952C252.582 312.64 266.585 317.157 279.755 323.249C275.362 325.211 270.74 331.818 266.318 339L265.64 340.088C264.638 341.636 263.411 343.574 263.071 345.885C262.82 347.604 263.212 349.098 264.171 350.102C264.33 350.266 264.485 350.406 264.664 350.538C265.502 351.167 267.818 352.327 271.23 349.517C273.611 347.522 275.94 345.431 278.159 343.307L278.16 343.306C278.26 343.204 288.355 333.352 287.443 327.039C292.646 329.758 297.695 332.727 302.553 335.94C302.699 336.036 302.863 336.071 303.015 336.127C303.034 336.635 303.122 337.152 303.301 337.672C303.671 338.783 304.399 339.859 305.392 340.898C311.025 346.787 324.81 351.264 326.468 351.626C331.544 352.726 335.51 352.375 338.588 350.548C339.967 349.741 340.901 348.722 341.384 347.529C342.651 344.42 340.75 341.068 336.455 338.805" fill="#063E59"/>
<path d="M299.389 379.66L299.326 379.671C298.065 375.981 297.72 371.958 297.399 368.047C297.274 366.571 297.15 365.095 296.979 363.635C296.73 361.403 296.346 359.148 295.986 356.973C295.599 354.662 295.203 352.276 294.943 349.912C294.491 345.791 294.489 341.578 294.474 337.474C295.105 337.569 295.797 338.075 296.474 338.782C297.804 340.178 299.13 342.388 300.011 343.846C300.487 344.638 300.919 345.351 301.297 345.911C303.244 348.77 304.737 351.22 305.645 353.862C308.153 361.145 305.776 369.294 303.342 374.844C302.068 377.755 300.846 379.236 299.389 379.66V379.66ZM294.457 377.611C292.28 375.151 291.405 371.679 290.839 368.61C289.67 362.379 289.395 356.03 290.031 349.507C290.807 341.563 292.184 338.694 293.357 337.8C293.364 341.827 293.393 345.968 293.825 350.03C294.085 352.426 294.488 354.829 294.883 357.158C295.234 359.316 295.611 361.553 295.872 363.766C296.034 365.211 296.164 366.677 296.28 368.137C296.6 372.02 296.949 376.006 298.167 379.736C296.78 379.567 295.365 378.607 294.457 377.611V377.611ZM304.998 343.384C304.658 342.883 304.274 342.243 303.855 341.539C301.464 337.567 297.863 331.56 292.547 333.237C286.95 335.008 286.025 344.507 285.558 349.294C284.893 356.013 285.183 362.787 286.429 369.433C287.106 373.102 288.198 377.303 291.097 380.579C291.207 380.702 291.305 380.813 291.417 380.932C294.024 383.659 297.607 384.85 300.637 383.968C304.298 382.911 306.201 379.5 307.443 376.64C311.457 367.509 312.274 359.35 309.877 352.398C308.814 349.287 307.165 346.549 304.998 343.384" fill="#063E59"/>
<path d="M105.563 195.837C110.103 193.249 116.145 194.265 120.91 195.446C124.432 196.316 135.196 198.969 137.903 203.6C138.47 204.575 138.597 205.538 138.307 206.632C137.319 210.219 124.181 206.709 119.864 205.558C118.522 205.199 117.371 204.891 116.534 204.709C113.15 203.975 109.252 203.05 105.839 201.376C104.309 200.629 103.438 199.873 103.248 199.132C102.974 198.016 104.244 196.607 105.563 195.837V195.837ZM115.59 209.095C116.363 209.26 117.448 209.554 118.711 209.89C126.847 212.063 140.466 215.7 142.624 207.812C143.254 205.545 142.956 203.361 141.776 201.336C138.52 195.792 129.493 192.954 121.984 191.091C116.411 189.712 109.258 188.564 103.344 191.95C100.507 193.569 98.0346 196.757 98.9083 200.231C99.2023 201.404 99.824 202.351 100.559 203.117C101.754 204.369 103.226 205.089 103.869 205.404C107.726 207.292 111.945 208.301 115.59 209.095" fill="#063E59"/>
<path d="M115.552 164.021C115.877 163.59 116.744 163.394 117.53 163.569C118.638 163.827 119.71 164.62 120.708 165.442C124.093 168.236 134.088 179.721 134.532 185.109C134.566 185.503 134.554 186.031 133.956 186.452C131.776 186.33 126.017 181.541 116.855 168.272C115.529 166.362 115.034 164.732 115.552 164.021V164.021ZM113.26 170.957C117.229 176.705 120.787 181.226 123.912 184.498C127.862 188.631 131.141 190.789 133.716 190.935C135.289 191.014 136.674 190.438 137.697 189.245C138.71 188.068 139.151 186.554 138.999 184.733C138.342 176.905 126.021 164.007 123.556 161.979L123.557 161.978C122.14 160.811 120.543 159.663 118.537 159.203C115.959 158.612 113.305 159.49 111.936 161.387C110.693 163.082 109.91 166.103 113.26 170.957Z" fill="#063E59"/>
<path d="M140.034 220.85C142.023 221.307 142.998 221.747 143.46 222.024C141.89 223.585 135.471 226.165 131.308 226.801C129.953 227.001 128.411 227.171 127.086 226.784C126.03 226.474 125.178 225.747 124.978 224.962C124.706 223.903 125.603 222.613 126.615 221.977C128.036 221.073 129.962 220.825 131.808 220.645C134.503 220.39 137.362 220.231 140.034 220.85V220.85ZM124.227 218.18C121.382 219.963 119.903 223.202 120.636 226.065C120.9 227.137 121.475 228.128 122.264 228.956C123.19 229.924 124.419 230.674 125.823 231.083C127.999 231.721 130.16 231.514 131.981 231.226C132.143 231.204 147.97 228.069 148.2 222.018C148.345 218.166 143.034 216.935 141.042 216.48C137.75 215.72 134.454 215.892 131.38 216.188C129.1 216.406 126.49 216.763 124.227 218.18" fill="#063E59"/>
<path d="M72.3085 283.159C76.2288 278.575 83.9547 279.791 87.0928 280.53C90.8358 281.405 101.838 286.488 105.901 290.737C106.737 291.61 107.264 292.439 107.389 293.196C107.442 293.469 107.557 294.184 105.871 295.212C100.934 298.257 89.1739 295.496 74.4162 287.824C72.477 286.807 71.4714 285.878 71.4134 285.044C71.3885 284.545 71.7063 283.856 72.3085 283.159V283.159ZM68.7614 289.267C69.8345 290.388 71.1923 291.201 72.3469 291.801C81.9927 296.817 99.4782 304.42 108.226 299.031C111.732 296.878 112.106 294.273 111.824 292.483C110.507 284.366 91.3581 276.918 88.105 276.154C79.803 274.218 72.7989 275.702 68.9062 280.242C67.5185 281.87 66.8346 283.625 66.9456 285.331C67.0506 286.957 67.7791 288.241 68.7614 289.267" fill="#063E59"/>
<path d="M105.317 309.77C105.648 309.958 105.957 310.209 106.239 310.505C106.747 311.036 107.189 311.732 107.511 312.501C103.88 314.289 98.4811 314.604 96.5625 314.721C93.2712 314.916 90.9033 314.527 88.9521 313.32L89.1799 313.133C92.9707 310.403 97.6084 308.975 102.266 309.131C103.688 309.183 104.628 309.38 105.317 309.77V309.77ZM86.5552 309.508C84.0113 311.345 84.0042 313.271 84.2301 314.254C84.4138 315.066 84.8582 315.699 85.2738 316.139C85.6576 316.541 86.0369 316.8 86.2316 316.936C89.6727 319.312 93.9279 319.366 96.8294 319.198C101.165 318.943 107.405 318.265 111.475 315.355C112.187 314.842 112.532 313.959 112.361 313.097C111.887 310.657 110.35 307.469 107.54 305.875C105.79 304.884 103.888 304.705 102.412 304.65C96.7687 304.46 91.1411 306.189 86.5552 309.508" fill="#063E59"/>
<path d="M210.792 330.655L210.457 329.487C209.485 326.141 207.29 318.625 208.755 314.87C208.914 316.11 209.207 317.344 209.537 318.551C213.445 333.158 219.352 347.103 227.076 360.076C218.381 351.981 213.478 340.135 210.792 330.655V330.655ZM218.328 316.143C221.996 319.98 225.713 326.37 228.405 332.581L228.406 332.578C232.669 342.431 233.971 353.502 232.129 364.055C231.743 363.805 231.363 363.518 230.974 363.244C230.919 362.167 230.863 361.09 230.821 360.021C230.644 355.399 230.476 351.033 229.153 346.575C227.634 341.414 225.119 336.596 222.689 331.939C220.939 328.585 218.587 324.76 216.309 321.057C214.586 318.258 212.815 315.385 211.309 312.716C211.48 312.681 211.622 312.633 211.822 312.612C213.801 312.368 216.061 313.767 218.328 316.143V316.143ZM210.238 313.089C211.775 315.828 213.592 318.776 215.348 321.642C217.618 325.328 219.961 329.137 221.695 332.457C224.099 337.066 226.588 341.836 228.078 346.893C229.356 351.214 229.527 355.516 229.708 360.072C229.731 360.841 229.766 361.624 229.802 362.403L229.79 362.392C221.247 348.698 214.799 333.858 210.615 318.256C210.18 316.651 209.811 315 209.786 313.395C209.911 313.284 210.065 313.186 210.238 313.089V313.089ZM232.669 369.559C233.274 369.874 234.006 369.896 234.648 369.614C235.276 369.325 235.74 368.76 235.887 368.076C238.77 355.704 237.57 342.465 232.518 330.799L232.52 330.796C230.089 325.184 221.359 306.944 211.281 308.156C208.721 308.464 206.692 309.654 205.412 311.589C202.31 316.295 204.163 323.94 206.15 330.743L206.484 331.882C210.012 344.378 215.341 354.404 222.135 361.511C225.329 364.852 228.849 367.552 232.669 369.559" fill="#063E59"/>
<path d="M168.621 246.059C169.276 246.743 170.025 247.068 170.601 247.22C176.388 248.764 186.525 238.037 188.038 235.221C190.801 230.071 192.205 224.439 193.581 219.002C193.795 218.151 193.494 217.227 192.784 216.691C192.098 216.146 191.148 216.055 190.371 216.464C185.532 218.962 167.428 230.475 167.134 241.026C167.05 243.614 167.752 245.15 168.621 246.059" fill="#063E59"/>
<path d="M190.927 159.908C189.659 159.55 188.298 159.49 186.626 159.72C183.137 160.202 180.506 161.88 179.423 164.336C178.908 165.49 178.723 166.834 178.841 168.44C179.057 171.053 180.036 173.371 181.583 174.988C181.866 175.282 182.15 175.543 182.477 175.795C184.804 177.596 188.219 178.071 191.388 177.025C193.728 176.231 195.442 174.768 196.197 172.9C196.621 171.831 196.678 170.752 196.696 170.036C196.749 165.943 195.27 161.137 190.927 159.908" fill="#063E59"/>
<path d="M211.516 173.511C211.432 173.707 211.242 174.101 211.145 174.197C211.062 174.27 210.79 174.377 210.335 174.509C208.65 174.999 207.507 175.037 206.917 174.608C206.382 174.21 206.146 173.303 206.28 172.339C206.478 170.945 207.395 169.654 208.566 169.121C209.6 168.659 210.588 168.719 211.303 169.308C212.008 169.882 212.328 170.982 212.046 172.152C211.959 172.562 211.736 173.039 211.516 173.511V173.511ZM214.249 177.443C214.957 176.755 215.342 175.928 215.586 175.387C215.871 174.781 216.227 174.03 216.41 173.168C217.081 170.357 216.233 167.56 214.151 165.846C212.107 164.16 209.331 163.856 206.718 165.027L206.717 165.029C204.119 166.206 202.243 168.767 201.838 171.719C201.521 173.992 202.156 176.144 203.522 177.572C203.76 177.818 204 178.031 204.282 178.237C206.655 179.964 209.584 179.392 211.602 178.817C212.446 178.569 213.418 178.237 214.249 177.443Z" fill="#063E59"/>
<path d="M203.007 151.509C203.529 151.001 204.114 150.691 204.598 150.691C204.956 150.686 205.201 150.771 205.405 150.982L205.609 151.253C206.056 152.032 206.04 153.373 205.556 154.179C205.292 154.662 204.899 154.874 204.791 154.868C204.622 154.839 204.264 154.517 203.714 153.874C202.603 152.575 202.591 152.146 202.615 152.048C202.619 152.041 202.658 151.86 203.007 151.509V151.509ZM200.321 156.804C200.495 157.004 200.689 157.231 200.914 157.468C201.625 158.212 202.633 159.047 204.03 159.288C206.067 159.64 208.237 158.493 209.439 156.444C210.721 154.237 210.745 151.179 209.476 148.997C208.437 147.195 206.643 146.185 204.545 146.201C202.889 146.224 201.225 146.979 199.858 148.336C199.017 149.176 198.494 150.044 198.259 150.99C197.61 153.646 199.512 155.858 200.321 156.804" fill="#063E59"/>
<path d="M183.31 339.595C182.051 339.431 180.712 339.635 179.21 340.22C176.33 341.34 174.134 343.367 173.2 345.792C172.133 348.55 172.656 351.958 174.56 354.677C174.868 355.11 175.184 355.499 175.524 355.853C176.787 357.175 178.306 357.969 179.894 358.113C181.056 358.224 182.107 357.974 182.787 357.78C186.73 356.659 190.905 353.85 190.838 349.352C190.816 348.041 190.485 346.717 189.786 345.176C188.32 341.965 185.967 339.938 183.31 339.595Z" fill="#063E59"/>
<path d="M275.525 291.958C274.981 292.113 274.589 292.174 274.289 292.147C273.62 292.082 272.851 291.523 272.212 290.603C271.167 289.11 270.826 287.264 271.358 285.901C271.841 284.649 273.101 283.555 274.804 282.886C275.568 282.587 276.204 282.465 276.703 282.532C277.27 282.609 277.829 282.939 278.359 283.494C278.844 284.001 279.306 284.697 279.671 285.518C280.114 286.482 280.315 287.236 280.324 287.909C280.363 289.881 277.767 291.323 275.525 291.958V291.958ZM283.767 283.673C282.302 280.459 279.935 278.424 277.276 278.084C276.012 277.927 274.673 278.131 273.178 278.705C270.299 279.824 268.116 281.861 267.179 284.29C266.113 287.048 266.636 290.455 268.54 293.174C268.835 293.598 269.151 293.988 269.49 294.341C270.754 295.663 272.273 296.457 273.875 296.61C275.023 296.712 276.073 296.462 276.754 296.268C280.696 295.148 284.885 292.346 284.819 287.847L284.807 287.836C284.784 286.527 284.452 285.205 283.767 283.673" fill="#063E59"/>
<path d="M183.312 367.617C184.651 367.413 186.094 367.88 186.953 368.775L187.05 368.888C187.798 369.752 188.015 370.72 187.657 371.563C187.286 372.458 186.349 373.034 185.17 373.1C184.67 373.125 184.18 373.043 183.7 372.976C183.459 372.944 183.048 372.885 182.936 372.825C182.843 372.765 182.655 372.528 182.4 372.129C181.451 370.661 181.075 369.56 181.331 368.88C181.533 368.287 182.359 367.77 183.312 367.617V367.617ZM179.604 375.838C179.909 376.156 180.274 376.468 180.701 376.71C181.553 377.198 182.426 377.323 183.075 377.418C183.847 377.526 184.627 377.619 185.418 377.577C188.304 377.404 190.743 375.765 191.79 373.307C192.823 370.872 192.318 368.124 190.444 365.956C188.586 363.792 185.59 362.736 182.627 363.183C179.983 363.595 177.859 365.207 177.093 367.394C176.12 370.181 177.512 372.824 178.631 374.558C178.84 374.88 179.152 375.366 179.604 375.838Z" fill="#063E59"/>
<path d="M200.271 359.884C201.207 358.442 201.607 358.308 201.722 358.303C201.724 358.301 201.91 358.301 202.342 358.535C202.662 358.71 202.942 358.92 203.156 359.145C203.371 359.367 203.511 359.592 203.577 359.814C203.721 360.271 203.65 360.594 203.327 360.933C202.711 361.593 201.419 361.961 200.512 361.74C199.991 361.619 199.663 361.308 199.637 361.2C199.614 361.027 199.831 360.589 200.271 359.884ZM199.454 366.1C201.932 366.7 204.872 365.842 206.596 364.004C208.024 362.491 208.478 360.477 207.858 358.481C207.37 356.9 206.167 355.51 204.482 354.594C203.437 354.027 202.456 353.777 201.476 353.824C198.739 353.967 197.172 356.421 196.503 357.464C195.921 358.367 194.958 359.883 195.183 361.735C195.302 362.74 195.769 363.666 196.49 364.424C197.247 365.213 198.273 365.811 199.454 366.1" fill="#063E59"/>
<path d="M296.68 259.459C296.656 259.288 296.875 258.847 297.327 258.153C298.251 256.7 298.665 256.574 298.78 256.57C298.781 256.567 298.954 256.559 299.386 256.793C299.72 256.975 299.999 257.186 300.213 257.411C300.416 257.623 300.569 257.857 300.636 258.078L300.636 258.079C300.766 258.527 300.694 258.852 300.386 259.197C299.769 259.858 298.477 260.225 297.557 259.997C297.02 259.871 296.716 259.551 296.68 259.459V259.459ZM296.499 264.356C298.976 264.959 301.916 264.1 303.653 262.272C305.067 260.75 305.534 258.744 304.913 256.75C304.417 255.154 303.227 253.773 301.54 252.859C300.482 252.283 299.5 252.035 298.533 252.09C295.798 252.231 294.232 254.683 293.548 255.721C292.979 256.632 292.006 258.134 292.228 259.992C292.349 260.994 292.827 261.931 293.549 262.687C294.293 263.468 295.318 264.067 296.499 264.356" fill="#063E59"/>
</g>
<defs>
<clipPath id="clip0">
<rect width="297.052" height="262.594" fill="white" transform="matrix(0.837829 0.545934 -0.512226 0.858851 151.121 90.5511)"/>
</clipPath>
</defs>
</svg>
