<svg width="360" height="640" viewBox="0 0 360 640" fill="none" xmlns="http://www.w3.org/2000/svg">
<g clip-path="url(#clip0)">
<path d="M349.107 519.961C352.634 501.401 348.145 483.183 338.087 468.85L430.719 392.987C454.736 420.855 495.833 428.838 529.057 410.015C566.869 388.594 580.153 340.58 558.733 302.77C537.313 264.96 489.297 251.674 451.487 273.094C413.677 294.515 400.391 342.53 421.812 380.34C422.141 380.921 422.496 381.48 422.839 382.049L394.081 406.048L394.131 406.111L329.655 459.001C320.58 450.266 308.962 443.968 295.665 441.441C267.334 436.058 239.787 449.328 225.672 472.624L190.647 454.07L190.62 454.119L139.516 426.491C142.754 418.341 143.766 409.199 141.889 399.961C136.748 374.647 112.057 358.295 86.7429 363.438C61.4275 368.579 45.0755 393.27 50.2182 418.584C53.1912 433.225 62.7216 444.831 75.1115 451.052L67.9436 481.069L67.9982 481.083L54.0274 537.473C45.3265 536.376 36.2209 537.681 27.7468 541.808C4.52226 553.116 -5.13686 581.111 6.17258 604.335C17.4808 627.56 45.4759 637.22 68.7004 625.91C91.9249 614.601 101.584 586.606 90.2758 563.383C84.5155 551.554 74.4186 543.269 62.8367 539.457L83.9774 454.417C90.752 456.235 98.0245 456.6 105.366 455.109C118.258 452.49 128.804 444.785 135.391 434.525L221.348 481.082C219.496 485.436 218.065 490.045 217.146 494.884C210.221 531.324 234.149 566.478 270.588 573.403C307.029 580.328 342.183 556.401 349.107 519.961Z" fill="#D0D0D0"/>
<g opacity="0.509995">
<g opacity="0.509995">
<g opacity="0.509995">
<g opacity="0.509995">
<g opacity="0.509995">
<g opacity="0.509995">
<path opacity="0.509995" d="M150.222 434.889C150.23 437.406 125.743 439.526 95.5269 439.624C65.3113 439.722 40.8109 437.761 40.8027 435.244C40.7945 432.728 65.2817 430.607 95.4974 430.509C125.713 430.411 150.213 432.372 150.222 434.889Z" fill="url(#paint0_radial)"/>
</g>
</g>
</g>
</g>
</g>
</g>
<path d="M51.8696 583.074C51.8774 585.477 49.9374 587.427 47.5379 587.435C45.1358 587.443 43.1849 585.505 43.1772 583.103C43.1694 580.703 45.1076 578.75 47.5097 578.742C49.9092 578.734 51.8618 580.675 51.8696 583.074ZM69.9685 592.929C69.6621 590.475 69.0337 587.912 68.1472 585.321C69.6784 581.971 70.797 578.678 71.4878 575.565C74.576 577.867 76.4006 580.665 76.4104 583.687C76.4218 587.19 73.9974 590.416 69.9685 592.929V592.929ZM66.9884 582.306C65.8002 579.5 64.3212 576.69 62.5356 573.967C61.781 572.817 61.8275 572.828 61.0121 571.763C59.919 571.504 58.7968 571.282 57.6309 571.1C58.9975 572.707 59.4606 573.339 60.6767 575.191C62.8064 578.445 64.5056 581.822 65.7377 585.148C64.7818 587.172 63.685 589.213 62.4221 591.234C61.0583 593.412 59.5984 595.425 58.0865 597.273C55.1426 597.835 51.989 598.16 48.683 598.171C46.3386 598.178 44.0599 598.034 41.8856 597.753C40.7043 597.606 38.4453 597.186 38.4453 597.186C35.5175 596.596 32.8469 595.741 30.5067 594.699C30.8 592.565 31.3319 590.306 32.0992 587.963C32.8562 589.356 33.7277 590.758 34.7361 592.197C36.2447 594.35 36.4486 594.65 37.7541 596.203C38.8668 596.429 40.0156 596.626 41.1961 596.773C39.3155 594.753 38.4381 593.908 36.595 590.979C35.2671 588.866 34.1503 586.864 33.2185 584.909C34.418 581.923 35.9433 578.867 37.8368 575.847C39.1587 573.73 40.5765 571.757 42.0499 569.942C42.0868 569.901 42.1313 569.85 42.1639 569.804C44.2366 569.546 46.3724 569.387 48.5931 569.38C51.4432 569.371 54.1961 569.584 56.7913 569.993C57.9487 570.175 59.0786 570.396 60.1674 570.653C63.7342 571.493 66.8962 572.714 69.458 574.209C68.9572 576.778 68.1172 579.514 66.9884 582.306ZM61.5258 596.487C62.4866 595.197 63.4266 593.849 64.3181 592.424C65.1994 591.018 65.9904 589.611 66.7289 588.205C67.3005 590.219 67.6974 592.201 67.873 594.098C65.9917 595.04 63.8579 595.847 61.5258 596.487ZM54.7581 600.979C53.0719 602.68 51.348 604.154 49.6293 605.399C47.8712 604.288 46.1141 602.933 44.3966 601.355C43.1845 601.269 42.0075 601.141 40.8537 600.982C43.0361 603.24 45.3387 605.181 47.6538 606.736C42.6112 609.848 37.8046 610.725 34.4281 608.611C31.4351 606.739 30.0687 602.82 30.2107 597.834L30.2727 597.041C33.3627 598.339 36.9359 599.316 40.8501 599.867C42.0039 600.032 43.1809 600.159 44.393 600.246C45.7917 600.347 47.2273 600.404 48.6903 600.399C51.1457 600.391 53.5171 600.212 55.7849 599.91C55.4455 600.271 55.101 600.631 54.7581 600.979V600.979ZM20.8623 583.866C20.8507 580.312 23.342 577.046 27.4655 574.519C28.1247 574.118 28.8244 573.733 29.5577 573.37C32.2316 572.051 35.4087 571.018 38.9111 570.325C38.7776 570.509 38.6397 570.68 38.5069 570.861C37.6181 572.071 36.7613 573.334 35.9331 574.651C34.3973 577.112 33.0791 579.581 31.9836 582.021C31.0312 579.543 30.3704 577.078 30.0154 574.481C29.2726 574.845 28.5747 575.229 27.9198 575.634C28.4576 578.898 29.3345 581.994 30.7078 585.109C29.5865 588.067 28.8028 590.94 28.3652 593.643C23.7247 591.091 20.8746 587.652 20.8623 583.866V583.866ZM44.4903 567.149C46.2773 565.235 48.1201 563.571 49.9569 562.176C51.4773 563.441 52.9801 564.844 54.4366 566.327C55.6213 566.449 56.7786 566.605 57.9042 566.8C55.9749 564.623 53.9394 562.591 51.8601 560.816C57.1673 557.327 62.2828 556.254 65.824 558.466C68.8592 560.368 70.2233 564.365 70.0325 569.441C70.0058 570.222 69.9345 571.03 69.8339 571.859C66.5445 570.061 62.4763 568.695 57.9104 567.912C56.7839 567.718 55.6266 567.562 54.442 567.439C52.5527 567.246 50.5932 567.146 48.5824 567.153C47.1264 567.157 45.7101 567.228 44.3103 567.339C44.4131 567.229 44.4903 567.149 44.4903 567.149V567.149ZM71.9444 573.166C71.952 573.112 71.9665 573.061 71.9706 573.009C72.1037 572.139 72.2007 571.289 72.2573 570.457C72.7165 564.062 71.0262 558.934 67.0817 556.464C62.6142 553.666 56.3426 554.974 50.0217 559.33C45.8866 556.155 41.6812 554.12 37.9512 554.132C35.7745 554.139 33.8317 554.686 32.1822 555.766C28.3571 558.276 26.5735 564.399 27.1556 570.992L27.1556 571.003C27.8441 570.614 28.5697 570.241 29.3245 569.893C29.0494 564.618 30.4649 559.549 33.4009 557.631C34.6839 556.785 36.2186 556.362 37.9585 556.357C41.0761 556.347 44.6019 558.078 48.1281 560.723C45.6969 562.631 43.2878 564.976 40.9857 567.703C36.6212 568.328 32.6549 569.46 29.3298 571.005C28.5733 571.351 27.8477 571.724 27.1592 572.116C21.8487 575.114 18.6223 579.249 18.6374 583.873C18.6531 588.73 22.25 593.02 28.0685 596.017C28.0451 596.236 28.0097 596.471 27.9967 596.688C27.5563 603.051 29.2466 608.153 33.1738 610.616C37.5388 613.35 43.6224 612.169 49.7996 608.047C53.0893 609.904 56.3539 610.936 59.3108 610.926C61.4918 610.919 63.432 610.368 65.0858 609.285C68.6423 606.952 70.4053 602.438 70.178 596.511C69.4835 596.904 68.7545 597.284 67.9919 597.634C67.9699 602.236 66.5456 605.673 63.8671 607.425C62.5806 608.268 61.0511 608.694 59.3061 608.699C56.9737 608.707 54.4058 607.976 51.7869 606.631C54.0209 604.92 56.2434 602.832 58.3788 600.418C58.6915 600.059 59.0034 599.693 59.3161 599.325C62.5125 598.657 65.4353 597.712 67.9883 596.527C68.7509 596.169 69.4799 595.793 70.1744 595.401C75.4436 592.406 78.652 588.282 78.637 583.68C78.6222 579.641 76.1232 576.004 71.9444 573.166" fill="#063E59"/>
<path d="M465.274 255.011C455.873 238.622 434.967 232.957 418.577 242.359C410.227 247.149 404.68 254.929 402.472 263.573L355.749 255.295C356.03 251.849 355.96 248.324 355.485 244.758C353.054 226.526 340.909 211.982 324.961 205.616L326.468 199.651L326.441 199.645L329.717 186.994C334.212 187.618 338.932 187.003 343.345 184.926C355.453 179.225 360.648 164.788 354.946 152.68C349.246 140.571 334.809 135.377 322.701 141.078C310.592 146.778 305.398 161.215 311.099 173.323C314.002 179.492 319.179 183.853 325.155 185.907L320.403 204.051C314.066 202.22 307.258 201.632 300.299 202.56C273.408 206.147 254.515 230.854 258.101 257.746C259.928 271.443 267.242 283.056 277.525 290.689L259.048 319.886C235.75 304.699 204.223 308.259 184.983 329.545C163.669 353.124 165.506 389.517 189.085 410.831C212.666 432.144 249.058 430.307 270.371 406.727C291.585 383.258 289.855 347.103 266.591 325.749L285.648 295.584C293.959 299.557 303.475 301.252 313.288 299.944C334.195 297.156 350.261 281.598 354.693 262.174L383.282 266.987L383.289 266.946L401.462 270.115C401.097 276.511 402.499 283.083 405.925 289.054C415.325 305.444 436.232 311.108 452.62 301.707C469.01 292.307 474.674 271.399 465.274 255.011Z" fill="#063E59"/>
<g opacity="0.509995">
<g opacity="0.509995">
<g opacity="0.509995">
<g opacity="0.509995">
<g opacity="0.509995">
<g opacity="0.509995">
<path opacity="0.509995" d="M352.891 285.239C352.898 287.482 332.923 289.366 308.276 289.446C283.628 289.526 263.643 287.772 263.636 285.529C263.628 283.285 283.602 281.402 308.25 281.322C332.897 281.242 352.883 282.996 352.891 285.239Z" fill="url(#paint1_radial)"/>
</g>
</g>
</g>
</g>
</g>
</g>
<g opacity="0.509995">
<g opacity="0.509995">
<g opacity="0.509995">
<g opacity="0.509995">
<g opacity="0.509995">
<g opacity="0.509995">
<path opacity="0.509995" d="M277.205 406.703C277.212 408.79 254.981 410.554 227.552 410.643C200.123 410.732 177.882 409.112 177.875 407.025C177.868 404.938 200.098 403.174 227.528 403.085C254.957 402.996 277.198 404.616 277.205 406.703Z" fill="url(#paint2_radial)"/>
</g>
</g>
</g>
</g>
</g>
</g>
<g opacity="0.5">
<g opacity="0.5">
<path opacity="0.5" d="M209.565 320.74C206.609 321.938 203.686 323.736 201.047 325.704C198.402 327.711 195.963 329.981 193.8 332.482C189.45 337.479 186.306 343.419 184.341 349.7C182.368 355.995 181.631 362.639 181.73 369.263C181.815 375.896 182.781 382.525 184.286 389.032C184.643 390.578 183.681 392.121 182.135 392.479C180.589 392.837 179.046 391.874 178.689 390.329C178.68 390.295 178.671 390.248 178.663 390.214C177.364 383.33 176.622 376.298 176.818 369.237C176.998 362.19 178.073 355.098 180.472 348.403C182.86 341.724 186.52 335.459 191.384 330.308C193.806 327.727 196.5 325.419 199.391 323.405C202.324 321.415 205.337 319.69 208.785 318.452C209.412 318.226 210.103 318.552 210.328 319.179C210.548 319.791 210.244 320.463 209.649 320.705L209.565 320.74Z" fill="#EDFAFF"/>
</g>
</g>
<g opacity="0.5">
<g opacity="0.5">
<path opacity="0.5" d="M291.329 213.063C289.029 213.995 286.754 215.395 284.7 216.925C282.643 218.488 280.745 220.253 279.061 222.2C275.677 226.087 273.23 230.711 271.702 235.597C270.166 240.496 269.592 245.666 269.67 250.82C269.736 255.982 270.488 261.14 271.658 266.203C271.937 267.406 271.187 268.607 269.985 268.886C268.782 269.164 267.581 268.415 267.304 267.213C267.297 267.186 267.29 267.149 267.285 267.122C266.273 261.767 265.696 256.295 265.847 250.801C265.987 245.316 266.825 239.798 268.691 234.589C270.549 229.392 273.397 224.517 277.182 220.508C280.989 216.516 285.464 213.246 290.722 211.282C291.208 211.101 291.749 211.348 291.93 211.834C292.108 212.311 291.873 212.842 291.405 213.032L291.329 213.063Z" fill="#EDFAFF"/>
</g>
</g>
<path d="M306.388 253.104C299.301 246.8 298.665 235.941 304.97 228.853C311.275 221.764 322.134 221.13 329.222 227.434C336.308 233.736 336.944 244.596 330.638 251.685C324.334 258.773 313.473 259.407 306.388 253.104ZM331.842 224.49C323.128 216.738 309.778 217.518 302.025 226.233C294.273 234.949 295.055 248.298 303.769 256.048C312.483 263.8 325.831 263.02 333.583 254.304C341.337 245.588 340.555 232.24 331.842 224.49" fill="#F9C1A6"/>
<path d="M293.764 271.594L289.497 267.799L303.154 252.445L307.42 256.239L293.764 271.594Z" fill="#F9C1A6"/>
<path d="M288.466 280.124C286.79 282.008 283.903 282.175 282.02 280.499C280.137 278.826 279.968 275.938 281.643 274.054L294.54 259.554C296.217 257.67 299.106 257.501 300.987 259.176C302.871 260.85 303.04 263.739 301.364 265.624L288.466 280.124Z" fill="#F9C1A6"/>
<path d="M219.015 369.428C210.484 369.456 203.548 362.561 203.52 354.032C203.492 345.5 210.384 338.562 218.915 338.534C227.446 338.506 234.385 345.4 234.413 353.931C234.44 362.461 227.546 369.401 219.015 369.428ZM250.331 357.496L250.306 349.955L241.298 347.749C240.705 345.476 239.779 343.341 238.575 341.396L243.317 334.298L237.965 328.976L230.509 333.504C228.656 332.409 226.638 331.565 224.503 331.015L222.789 322.414L215.245 322.439L213.165 330.934C210.815 331.499 208.604 332.415 206.59 333.628L199.381 328.816L194.063 334.17L198.594 341.634C197.392 343.631 196.485 345.826 195.922 348.153L187.908 349.75L187.932 357.291L195.937 359.253C196.496 361.54 197.391 363.699 198.568 365.667L193.698 372.953L199.05 378.271L206.569 373.711C208.648 374.968 210.939 375.905 213.375 376.469L215.041 384.834L222.585 384.809L224.67 376.292C226.88 375.705 228.962 374.806 230.865 373.641L238.038 378.433L243.359 373.082L238.803 365.575C239.951 363.638 240.826 361.523 241.376 359.281L250.331 357.496Z" fill="#F9C1A6"/>
<path d="M246.476 406.928C240.077 406.948 234.876 401.777 234.855 395.38C234.834 388.982 240.002 383.776 246.4 383.755C252.797 383.735 258.002 388.907 258.023 395.304C258.044 401.701 252.873 406.907 246.476 406.928ZM269.962 397.978L269.943 392.323L263.188 390.669C262.744 388.964 262.048 387.362 261.146 385.901L264.701 380.579L260.687 376.588L255.095 379.982C253.704 379.161 252.191 378.53 250.591 378.116L249.306 371.665L243.648 371.684L242.088 378.055C240.325 378.48 238.666 379.167 237.154 380.078L231.75 376.467L227.76 380.481L231.16 386.082C230.259 387.581 229.577 389.226 229.153 390.972L223.144 392.167L223.163 397.827L229.166 399.294C229.585 401.012 230.257 402.629 231.139 404.105L227.487 409.573L231.501 413.561L237.141 410.139C238.699 411.081 240.42 411.785 242.244 412.206L243.495 418.483L249.153 418.464L250.717 412.076C252.374 411.635 253.938 410.962 255.362 410.086L260.743 413.68L264.732 409.67L261.316 404.041C262.178 402.584 262.833 400.999 263.248 399.317L269.962 397.978Z" fill="#D0D0D0"/>
<path d="M68.5988 427.423L78.6006 427.39L78.5681 417.388L68.5663 417.421L68.5988 427.423Z" fill="#063E59"/>
<path d="M81.9342 427.379L91.936 427.347L91.8819 410.678L81.8801 410.71L81.9342 427.379Z" fill="#063E59"/>
<path d="M95.2698 427.336L105.272 427.304L105.196 403.966L95.1941 403.999L95.2698 427.336Z" fill="#063E59"/>
<path d="M108.605 427.293L118.607 427.26L118.51 397.256L108.508 397.288L108.605 427.293Z" fill="#063E59"/>
<path d="M111.116 386.216L101.251 386.248L88.3239 396.008L81.5933 392.67L65.1962 406.423L65.2103 410.764L82.0622 396.624L88.6888 399.91L102.368 389.578L112.508 389.545L118.465 383.551L118.449 378.834L111.116 386.216Z" fill="#063E59"/>
<path d="M288.664 459.754C287.847 460.137 287.15 460.863 286.72 461.753L272.831 488.159L267.497 485.591C267.603 485.188 267.626 484.784 267.814 484.393L281.074 459.637C281.44 458.865 282.09 458.258 282.859 457.959C283.641 457.672 284.478 457.693 285.208 458.047L288.735 459.743C288.712 459.754 288.688 459.743 288.664 459.754ZM310.183 542.681L306.021 542.694C315.819 536.141 322.269 524.961 322.228 512.284C322.172 495.244 310.422 481.029 294.62 477.096L301.432 464.077C302.204 462.473 301.598 460.59 300.09 459.86L283.67 451.98C282.94 451.626 282.103 451.606 281.321 451.892C280.552 452.191 279.902 452.799 279.536 453.57L260.244 490.417C258.707 493.624 259.912 497.403 262.928 498.851L260.301 504.315L271.251 509.568L273.878 504.117C276.907 505.566 280.602 504.143 282.145 500.924L288.698 488.404C300.68 489.859 310.045 499.944 310.085 512.324C310.128 525.711 299.266 536.645 285.877 536.688C279.772 536.708 271.901 534.409 267.644 530.676L267.634 527.64C267.628 525.956 268.982 524.6 270.66 524.595L285.838 524.545L285.818 518.474L262.399 518.55L249.936 518.59L237.248 518.632L237.267 524.703L251.545 524.657L252.446 524.654C254.124 524.648 255.486 525.996 255.491 527.679L255.501 530.715L255.541 542.858C248.835 542.88 243.396 542.257 243.418 548.969L322.346 548.712C322.324 542.001 316.889 542.659 310.183 542.681" fill="#063E59"/>
</g>
<defs>
<radialGradient id="paint0_radial" cx="0" cy="0" r="1" gradientUnits="userSpaceOnUse" gradientTransform="translate(95.5125 435.066) rotate(-0.185913) scale(39.0944 4.47119)">
<stop stop-color="#2BA9E2"/>
<stop offset="0.1197" stop-color="#2BA9E2"/>
<stop offset="0.500236" stop-color="#2BA9E2"/>
<stop offset="1" stop-color="white"/>
</radialGradient>
<radialGradient id="paint1_radial" cx="0" cy="0" r="1" gradientUnits="userSpaceOnUse" gradientTransform="translate(308.263 285.384) rotate(-0.185913) scale(31.8898 3.98489)">
<stop stop-color="#2BA9E2"/>
<stop offset="0.1197" stop-color="#2BA9E2"/>
<stop offset="0.500236" stop-color="#2BA9E2"/>
<stop offset="1" stop-color="white"/>
</radialGradient>
<radialGradient id="paint2_radial" cx="0" cy="0" r="1" gradientUnits="userSpaceOnUse" gradientTransform="translate(227.54 406.864) rotate(-0.185913) scale(35.4891 3.70783)">
<stop stop-color="#2BA9E2"/>
<stop offset="0.1197" stop-color="#2BA9E2"/>
<stop offset="0.500236" stop-color="#2BA9E2"/>
<stop offset="1" stop-color="white"/>
</radialGradient>
<clipPath id="clip0">
<rect width="360" height="640" fill="white"/>
</clipPath>
</defs>
</svg>
