<svg width="1000" height="800" viewBox="0 0 1000 800" fill="none" xmlns="http://www.w3.org/2000/svg">
<path d="M908.004 207.591C896.019 186.539 869.239 179.19 848.187 191.175C837.461 197.282 830.317 207.234 827.451 218.307L767.581 207.499C767.956 203.083 767.881 198.563 767.287 193.988C764.245 170.603 748.735 151.906 728.315 143.678L730.272 136.036L730.237 136.028L734.489 119.823C740.251 120.642 746.304 119.872 751.971 117.228C767.519 109.97 774.239 91.4815 766.979 75.9335C759.721 60.3855 741.233 53.6655 725.685 60.9242C710.137 68.1815 703.417 86.6695 710.676 102.218C714.373 110.139 720.992 115.752 728.645 118.41L722.477 141.652C714.36 139.279 705.635 138.496 696.708 139.658C662.216 144.144 637.891 175.743 642.377 210.235C644.663 227.804 653.991 242.723 667.143 252.552L643.332 289.91C613.525 270.34 573.089 274.774 548.333 301.984C520.909 332.127 523.113 378.794 553.255 406.218C583.399 433.642 630.065 431.437 657.488 401.295C684.784 371.294 682.717 324.932 652.979 297.458L677.537 258.862C688.176 263.991 700.369 266.203 712.956 264.567C739.773 261.079 760.436 241.199 766.199 216.315L802.832 222.604L802.841 222.552L826.128 226.69C825.633 234.89 827.404 243.32 831.771 250.991C843.755 272.043 870.536 279.392 891.587 267.407C912.639 255.423 919.988 228.642 908.004 207.591Z" fill="#063E59"/>
<g opacity="0.509995">
<g opacity="0.509995">
<g opacity="0.509995">
<g opacity="0.509995">
<g opacity="0.509995">
<g opacity="0.509995">
<path opacity="0.509995" d="M763.792 245.878C763.792 248.754 738.175 251.086 706.575 251.086C674.973 251.086 649.357 248.754 649.357 245.878C649.357 243.002 674.973 240.67 706.575 240.67C738.175 240.67 763.792 243.002 763.792 245.878Z" fill="url(#paint0_radial)"/>
</g>
</g>
</g>
</g>
</g>
</g>
<g opacity="0.509995">
<g opacity="0.509995">
<g opacity="0.509995">
<g opacity="0.509995">
<g opacity="0.509995">
<g opacity="0.509995">
<path opacity="0.509995" d="M868.392 179.212C868.392 180.838 852.455 182.157 832.796 182.157C813.139 182.157 797.2 180.838 797.2 179.212C797.2 177.585 813.139 176.267 832.796 176.267C852.455 176.267 868.392 177.585 868.392 179.212Z" fill="url(#paint1_radial)"/>
</g>
</g>
</g>
</g>
</g>
</g>
<g opacity="0.509995">
<g opacity="0.509995">
<g opacity="0.509995">
<g opacity="0.509995">
<g opacity="0.509995">
<g opacity="0.509995">
<path opacity="0.509995" d="M666.251 401.292C666.251 403.968 637.741 406.137 602.575 406.137C567.407 406.137 538.899 403.968 538.899 401.292C538.899 398.616 567.407 396.446 602.575 396.446C637.741 396.446 666.251 398.616 666.251 401.292Z" fill="url(#paint2_radial)"/>
</g>
</g>
</g>
</g>
</g>
</g>
<g opacity="0.5">
<g opacity="0.5">
<path opacity="0.5" d="M579.887 290.797C576.092 292.321 572.337 294.615 568.945 297.127C565.545 299.689 562.409 302.589 559.625 305.787C554.028 312.175 549.972 319.777 547.427 327.823C544.871 335.885 543.899 344.4 543.997 352.893C544.079 361.397 545.291 369.901 547.192 378.249C547.644 380.233 546.404 382.208 544.42 382.66C542.437 383.113 540.463 381.872 540.011 379.889C540 379.845 539.988 379.785 539.979 379.741C538.341 370.911 537.42 361.892 537.7 352.84C537.96 343.805 539.368 334.717 542.472 326.144C545.561 317.591 550.28 309.573 556.537 302.989C559.653 299.691 563.117 296.743 566.832 294.172C570.6 291.633 574.471 289.435 578.896 287.861C579.701 287.575 580.585 287.995 580.872 288.8C581.151 289.585 580.759 290.445 579.995 290.753L579.887 290.797Z" fill="#EDFAFF"/>
</g>
</g>
<g opacity="0.5">
<g opacity="0.5">
<path opacity="0.5" d="M685.164 153.086C682.212 154.271 679.29 156.056 676.65 158.01C674.006 160.004 671.564 162.26 669.398 164.75C665.043 169.719 661.887 175.636 659.907 181.895C657.918 188.17 657.16 194.795 657.239 201.404C657.302 208.022 658.244 214.639 659.723 221.135C660.076 222.678 659.11 224.215 657.567 224.567C656.024 224.919 654.487 223.954 654.136 222.411C654.128 222.376 654.119 222.33 654.112 222.295C652.838 215.424 652.12 208.407 652.338 201.363C652.539 194.332 653.636 187.26 656.051 180.59C658.455 173.935 662.127 167.696 666.996 162.572C671.894 157.47 677.644 153.296 684.394 150.8C685.018 150.57 685.71 150.888 685.94 151.512C686.167 152.124 685.863 152.804 685.262 153.046L685.164 153.086Z" fill="#EDFAFF"/>
</g>
</g>
<g opacity="0.5">
<g opacity="0.5">
<path opacity="0.5" d="M857.277 193.208C855.009 194.133 852.776 195.515 850.732 196.997C849.76 197.823 848.701 198.54 847.82 199.463L846.445 200.781C845.989 201.223 845.607 201.735 845.184 202.207C841.852 206.039 839.431 210.573 837.867 215.372L836.897 219.039C836.571 220.257 836.504 221.543 836.292 222.788C835.801 225.275 835.944 227.848 835.821 230.376C835.777 231.008 835.82 231.644 835.884 232.281L836.039 234.188L836.344 237.997L837.709 245.549L837.745 245.745C837.961 246.944 837.165 248.091 835.968 248.307C834.769 248.524 833.624 247.728 833.407 246.531C833.403 246.504 833.397 246.468 833.393 246.441L832.279 238.443L832.116 234.391L832.036 232.368C831.997 231.695 831.98 231.02 832.052 230.341C832.284 227.636 832.256 224.923 832.883 222.257C833.161 220.927 833.296 219.571 833.697 218.268L834.903 214.367C836.792 209.261 839.608 204.483 843.336 200.532C847.068 196.575 851.507 193.389 856.685 191.451C857.164 191.271 857.696 191.513 857.876 191.993C858.052 192.463 857.821 192.985 857.36 193.175L857.277 193.208Z" fill="#EDFAFF"/>
</g>
</g>
<g opacity="0.5">
<g opacity="0.5">
<path opacity="0.5" d="M809.729 123.312C807.889 123.711 806.017 124.462 804.272 125.312C802.553 126.243 800.864 127.246 799.383 128.518C796.353 130.978 793.92 134.088 792.1 137.512L790.88 140.159C790.471 141.038 790.251 142.002 789.924 142.915C789.223 144.732 788.989 146.699 788.561 148.596C788.243 150.522 788.163 152.494 787.947 154.432L787.979 160.33L787.98 160.483C787.984 161.419 787.231 162.18 786.295 162.186C785.36 162.191 784.597 161.438 784.592 160.502C784.592 160.48 784.592 160.454 784.593 160.432L784.812 154.231C785.117 152.174 785.292 150.104 785.713 148.07C786.248 146.054 786.588 143.996 787.415 142.062C787.803 141.091 788.084 140.084 788.56 139.151L789.989 136.358C792.096 132.746 794.863 129.502 798.207 127.007C801.555 124.506 805.337 122.684 809.513 121.903C809.9 121.831 810.271 122.086 810.344 122.472C810.415 122.851 810.171 123.216 809.796 123.298L809.729 123.312Z" fill="#EDFAFF"/>
</g>
</g>
<path d="M708.926 541.58C712.961 520.718 707.978 500.21 696.718 484.051L801.186 399.059C828.098 430.492 874.295 439.622 911.734 418.571C954.342 394.615 969.459 340.658 945.505 298.051C921.549 255.445 867.59 240.326 824.983 264.281C782.377 288.236 767.258 342.195 791.214 384.802C791.582 385.457 791.979 386.086 792.362 386.727L759.929 413.616L759.985 413.687L687.269 472.942C677.094 463.084 664.049 455.958 649.102 453.067C617.255 446.908 586.222 461.734 570.261 487.886L530.933 466.888L530.902 466.943L473.521 435.682C477.193 426.526 478.365 416.247 476.287 405.85C470.597 377.358 442.885 358.875 414.393 364.567C385.899 370.258 367.417 397.97 373.109 426.462C376.399 442.94 387.077 456.03 400.99 463.072L392.818 496.808L392.879 496.824L376.959 560.2C367.177 558.935 356.93 560.37 347.383 564.98C321.219 577.615 310.253 609.068 322.889 635.232C335.523 661.396 366.977 672.364 393.141 659.727C419.305 647.092 430.271 615.639 417.637 589.476C411.201 576.15 399.874 566.795 386.861 562.464L410.95 466.89C418.563 468.959 426.742 469.396 435.005 467.746C449.515 464.847 461.406 456.219 468.853 444.703L565.366 497.383C563.267 502.274 561.641 507.452 560.589 512.892C552.667 553.855 579.453 593.483 620.414 601.404C661.377 609.327 701.005 582.543 708.926 541.58Z" fill="#D0D0D0"/>
<g opacity="0.509995">
<g opacity="0.509995">
<g opacity="0.509995">
<g opacity="0.509995">
<g opacity="0.509995">
<g opacity="0.509995">
<path opacity="0.509995" d="M485.532 445.166C485.532 447.997 457.981 450.293 423.995 450.293C390.008 450.293 362.457 447.997 362.457 445.166C362.457 442.336 390.008 440.04 423.995 440.04C457.981 440.04 485.532 442.336 485.532 445.166Z" fill="url(#paint3_radial)"/>
</g>
</g>
</g>
</g>
</g>
</g>
<g opacity="0.5">
<g opacity="0.5">
<path opacity="0.5" d="M835.651 271.373C831.519 273.033 827.429 275.531 823.734 278.266C820.031 281.058 816.615 284.217 813.582 287.699C807.487 294.657 803.069 302.939 800.297 311.701C798.847 316.07 798.007 320.625 797.338 325.178C797.078 327.474 796.785 329.759 796.713 332.074C796.533 334.377 796.554 336.695 796.562 339.009C796.649 348.271 797.969 357.534 800.039 366.627C800.533 368.789 799.181 370.938 797.021 371.431C794.861 371.925 792.711 370.573 792.218 368.413C792.207 368.366 792.193 368.301 792.185 368.253C790.401 358.634 789.398 348.81 789.701 338.951C789.791 336.486 789.873 334.026 790.163 331.569C790.343 329.107 790.751 326.665 791.131 324.223C792.043 319.366 793.151 314.522 794.899 309.873C798.263 300.557 803.402 291.823 810.221 284.653C813.614 281.061 817.387 277.849 821.433 275.047C825.537 272.283 829.753 269.889 834.573 268.174C835.45 267.862 836.414 268.321 836.726 269.198C837.03 270.053 836.603 270.989 835.77 271.325L835.651 271.373Z" fill="#EDFAFF"/>
</g>
</g>
<g opacity="0.5">
<g opacity="0.5">
<path opacity="0.5" d="M609.887 467.242C606.092 468.766 602.338 471.059 598.946 473.571C595.546 476.134 592.41 479.034 589.626 482.231C584.028 488.618 579.972 496.222 577.427 504.267C574.871 512.33 573.899 520.845 573.998 529.338C574.079 537.842 575.291 546.346 577.192 554.695C577.644 556.678 576.404 558.653 574.42 559.105C572.438 559.557 570.463 558.317 570.011 556.333C570 556.29 569.988 556.23 569.979 556.186C568.342 547.355 567.42 538.337 567.7 529.285C567.96 520.25 569.368 511.161 572.472 502.589C575.562 494.035 580.28 486.018 586.538 479.434C589.654 476.137 593.118 473.187 596.832 470.615C600.6 468.078 604.471 465.881 608.896 464.306C609.702 464.019 610.586 464.439 610.872 465.245C611.151 466.03 610.759 466.89 609.995 467.199L609.887 467.242Z" fill="#EDFAFF"/>
</g>
</g>
<g opacity="0.5">
<g opacity="0.5">
<path opacity="0.5" d="M403.499 378.097C401.231 379.021 398.999 380.403 396.954 381.887C395.982 382.711 394.923 383.428 394.042 384.351L392.667 385.671C392.211 386.112 391.829 386.624 391.406 387.095C388.074 390.927 385.653 395.461 384.09 400.261L383.119 403.928C382.791 405.147 382.726 406.432 382.514 407.677C382.023 410.164 382.166 412.736 382.043 415.264C381.999 415.897 382.042 416.533 382.107 417.171L382.262 419.077L382.566 422.887L383.931 430.439L383.967 430.635C384.183 431.833 383.389 432.979 382.19 433.196C380.993 433.412 379.846 432.617 379.629 431.419C379.625 431.393 379.618 431.357 379.615 431.331L378.501 423.332L378.338 419.28L378.258 417.256C378.221 416.583 378.203 415.908 378.274 415.231C378.506 412.525 378.478 409.811 379.105 407.145C379.385 405.815 379.518 404.459 379.921 403.157L381.125 399.255C383.014 394.151 385.831 389.371 389.558 385.42C393.29 381.463 397.727 378.279 402.907 376.34C403.386 376.16 403.919 376.403 404.098 376.881C404.274 377.351 404.043 377.875 403.582 378.064L403.499 378.097Z" fill="#EDFAFF"/>
</g>
</g>
<path d="M454.368 594.754C452.355 642.331 412.152 679.267 364.576 677.252C317 675.238 280.064 635.036 282.079 587.459C284.092 539.884 324.293 502.948 371.871 504.962C419.447 506.976 456.383 547.176 454.368 594.754Z" fill="#D0D0D0"/>
<g opacity="0.5">
<g opacity="0.5">
<path opacity="0.5" d="M336.775 530.988C333.483 531.875 330.146 533.403 327.088 535.147C324.022 536.933 321.136 539.023 318.514 541.396C313.248 546.131 309.136 552.027 306.235 558.436C303.32 564.86 301.672 571.815 300.914 578.857C300.139 585.907 300.302 593.069 301.051 600.171C301.23 601.857 300.007 603.369 298.32 603.548C296.634 603.727 295.12 602.504 294.942 600.817C294.938 600.78 294.934 600.729 294.931 600.691C294.448 593.219 294.579 585.659 295.704 578.189C296.814 570.735 298.879 563.349 302.298 556.556C305.7 549.78 310.402 543.607 316.235 538.775C319.14 536.351 322.302 534.252 325.632 532.491C329.003 530.761 332.426 529.324 336.246 528.459C336.94 528.3 337.632 528.737 337.79 529.432C337.943 530.109 337.532 530.783 336.868 530.963L336.775 530.988Z" fill="#EDFAFF"/>
</g>
</g>
<path d="M877.747 284.981C876.736 285.45 875.872 286.344 875.338 287.442L858.075 320.004L851.498 316.811C851.63 316.313 851.66 315.814 851.894 315.331L868.372 284.805C868.827 283.853 869.632 283.106 870.584 282.74C871.551 282.389 872.584 282.417 873.485 282.858L877.835 284.967C877.806 284.981 877.777 284.967 877.747 284.981ZM903.996 387.5H898.855C910.983 379.445 918.995 365.661 918.995 350.002C918.995 328.954 904.538 311.347 885.034 306.425L893.501 290.372C894.461 288.394 893.721 286.065 891.861 285.157L871.61 275.358C870.709 274.918 869.676 274.889 868.709 275.24C867.757 275.606 866.952 276.354 866.497 277.306L842.519 322.742C840.608 326.697 842.081 331.371 845.8 333.172L842.534 339.91L856.038 346.442L859.306 339.72C863.041 341.521 867.611 339.779 869.53 335.809L877.674 320.37C892.469 322.216 903.996 334.71 903.996 350.002C903.996 366.539 890.535 380.001 873.997 380.001C866.455 380.001 856.742 377.13 851.498 372.501V368.751C851.498 366.671 853.176 365.002 855.248 365.002H873.997V357.502H845.068H829.673H814V365.002H831.636H832.75C834.822 365.002 836.499 366.671 836.499 368.751V372.501V387.5C828.216 387.5 821.5 386.709 821.5 395H918.995C918.995 386.709 912.279 387.5 903.996 387.5" fill="#063E59"/>
<path d="M373.338 591.011C373.338 595.155 369.98 598.51 365.841 598.51C361.696 598.51 358.341 595.155 358.341 591.011C358.341 586.871 361.696 583.512 365.841 583.512C369.98 583.512 373.338 586.871 373.338 591.011ZM404.508 608.115C403.993 603.879 402.924 599.454 401.409 594.977C404.069 589.207 406.017 583.533 407.227 578.166C412.541 582.154 415.674 586.992 415.674 592.206C415.674 598.249 411.473 603.801 404.508 608.115V608.115ZM399.426 589.771C397.392 584.922 394.856 580.067 391.791 575.359C390.495 573.37 390.575 573.39 389.175 571.547C387.29 571.094 385.355 570.706 383.345 570.385C385.694 573.164 386.489 574.258 388.577 577.46C392.233 583.086 395.145 588.921 397.252 594.666C395.592 598.153 393.688 601.668 391.498 605.147C389.133 608.898 386.603 612.361 383.984 615.543C378.902 616.495 373.46 617.038 367.756 617.038C363.711 617.038 359.781 616.777 356.031 616.28C353.994 616.019 350.099 615.282 350.099 615.282C345.051 614.247 340.448 612.758 336.417 610.947C336.935 607.268 337.865 603.373 339.202 599.334C340.5 601.742 341.996 604.165 343.728 606.653C346.318 610.378 346.669 610.896 348.912 613.583C350.831 613.979 352.811 614.325 354.847 614.586C351.614 611.09 350.105 609.627 346.942 604.563C344.662 600.91 342.747 597.449 341.15 594.072C343.236 588.926 345.885 583.663 349.169 578.463C351.461 574.819 353.918 571.422 356.47 568.3C356.534 568.229 356.611 568.142 356.668 568.061C360.245 567.628 363.931 567.367 367.762 567.367C372.679 567.367 377.428 567.75 381.903 568.469C383.898 568.79 385.847 569.179 387.724 569.628C393.872 571.097 399.321 573.221 403.732 575.814C402.854 580.245 401.389 584.959 399.426 589.771ZM389.923 614.206C391.587 611.985 393.217 609.664 394.763 607.211C396.291 604.791 397.663 602.367 398.945 599.945C399.92 603.423 400.594 606.845 400.886 610.119C397.635 611.734 393.95 613.114 389.923 614.206ZM378.221 621.917C375.303 624.843 372.32 627.376 369.348 629.514C366.321 627.588 363.297 625.239 360.343 622.508C358.252 622.353 356.223 622.125 354.233 621.844C357.985 625.753 361.947 629.114 365.933 631.81C357.215 637.15 348.918 638.636 343.104 634.97C337.951 631.723 335.616 624.954 335.889 616.354L336 614.986C341.324 617.243 347.483 618.948 354.233 619.921C356.223 620.212 358.252 620.438 360.343 620.595C362.756 620.776 365.232 620.883 367.756 620.883C371.992 620.883 376.085 620.588 379.999 620.079C379.411 620.699 378.815 621.319 378.221 621.917V621.917ZM319.839 592.203C319.839 586.072 324.155 580.451 331.283 576.114C332.423 575.425 333.632 574.765 334.899 574.143C339.52 571.884 345.007 570.118 351.053 568.943C350.822 569.259 350.583 569.554 350.353 569.866C348.813 571.947 347.327 574.121 345.891 576.39C343.228 580.626 340.94 584.879 339.036 589.082C337.407 584.802 336.28 580.546 335.683 576.063C334.399 576.687 333.193 577.345 332.061 578.04C332.97 583.675 334.466 589.021 336.818 594.403C334.866 599.5 333.498 604.451 332.728 609.113C324.737 604.684 319.839 598.736 319.839 592.203V592.203ZM360.696 563.494C363.79 560.203 366.979 557.342 370.155 554.946C372.771 557.136 375.356 559.565 377.861 562.132C379.904 562.349 381.9 562.625 383.84 562.968C380.524 559.202 377.024 555.684 373.446 552.609C382.622 546.621 391.454 544.799 397.551 548.634C402.777 551.933 405.108 558.835 404.75 567.591C404.7 568.94 404.572 570.333 404.394 571.762C398.729 568.642 391.718 566.263 383.845 564.886C381.903 564.545 379.907 564.269 377.864 564.051C374.605 563.708 371.225 563.524 367.756 563.524C365.244 563.524 362.8 563.638 360.385 563.822C360.563 563.632 360.696 563.494 360.696 563.494V563.494ZM408.028 574.029C408.041 573.936 408.066 573.848 408.074 573.758C408.308 572.259 408.48 570.792 408.583 569.357C409.411 558.326 406.523 549.469 399.732 545.187C392.04 540.335 381.213 542.556 370.283 550.036C363.167 544.536 355.923 541 349.488 541C345.732 541 342.377 541.933 339.526 543.788C332.912 548.097 329.801 558.65 330.768 570.027V570.047C331.958 569.379 333.212 568.739 334.516 568.144C334.071 559.041 336.542 550.305 341.618 547.012C343.836 545.56 346.486 544.839 349.488 544.839C354.866 544.839 360.94 547.845 367.008 552.428C362.803 555.707 358.634 559.739 354.647 564.431C347.114 565.484 340.264 567.416 334.519 570.063C333.212 570.655 331.958 571.295 330.768 571.967C321.589 577.11 316 584.226 316 592.203C316 600.582 322.181 608.004 332.203 613.207C332.161 613.586 332.099 613.989 332.075 614.365C331.28 625.339 334.168 634.151 340.929 638.423C348.445 643.164 358.947 641.16 369.627 634.084C375.292 637.306 380.919 639.104 386.02 639.104C389.783 639.104 393.133 638.165 395.993 636.305C402.142 632.299 405.209 624.521 404.849 614.295C403.649 614.969 402.389 615.62 401.072 616.221C401.008 624.159 398.531 630.081 393.901 633.089C391.676 634.537 389.035 635.262 386.025 635.262C382.001 635.262 377.574 633.986 373.064 631.651C376.927 628.711 380.773 625.122 384.471 620.969C385.013 620.352 385.553 619.723 386.094 619.089C391.613 617.955 396.66 616.341 401.072 614.311C402.389 613.697 403.649 613.053 404.849 612.379C413.957 607.242 419.515 600.145 419.515 592.206C419.512 585.238 415.221 578.949 408.028 574.029" fill="#063E59"/>
<path d="M661.829 555.879H648.278C647.448 555.879 646.774 555.204 646.774 554.38C646.774 553.55 647.448 552.882 648.278 552.882H661.829C662.656 552.882 663.325 553.55 663.325 554.38C663.325 555.204 662.656 555.879 661.829 555.879ZM599.508 535.614C595.91 535.614 592.992 532.701 592.992 529.095V494.895C592.992 491.293 595.91 488.377 599.508 488.377H674.492C678.086 488.377 681.006 491.293 681.006 494.895V529.095C681.006 532.701 678.086 535.614 674.492 535.614H599.508ZM661.662 548.659H646.665V540.994H679.001C683.418 540.994 687 537.411 687 532.994V490.994C687 486.581 683.418 483 679.001 483H594.999C590.579 483 587 486.581 587 490.994V532.994C587 537.411 590.579 540.994 594.999 540.994H626.998V548.659H612.668C608.252 548.659 604.671 552.24 604.671 556.657V557.697C604.671 562.115 608.252 565.694 612.668 565.694H661.662C666.081 565.694 669.662 562.115 669.662 557.697V556.657C669.662 552.24 666.081 548.659 661.662 548.659" fill="#063E59"/>
<path d="M704.305 204.485C695.245 196.373 694.474 182.448 702.587 173.387C710.701 164.324 724.626 163.556 733.686 171.668C742.746 179.778 743.516 193.704 735.402 202.766C727.29 211.828 713.362 212.595 704.305 204.485ZM737.058 167.904C725.918 157.93 708.799 158.874 698.822 170.016C688.848 181.158 689.795 198.276 700.935 208.249C712.074 218.223 729.191 217.279 739.167 206.136C749.144 194.994 748.196 177.878 737.058 167.904" fill="#F9C1A6"/>
<path d="M688.042 228.138L682.588 223.255L700.161 203.626L705.615 208.509L688.042 228.138Z" fill="#F9C1A6"/>
<path d="M681.214 239.053C679.058 241.461 675.355 241.663 672.948 239.507C670.541 237.354 670.336 233.65 672.492 231.242L689.088 212.705C691.245 210.296 694.95 210.092 697.355 212.247C699.763 214.402 699.968 218.106 697.811 220.515L681.214 239.053Z" fill="#F9C1A6"/>
<path d="M591.801 353.26C580.863 353.26 571.998 344.391 571.998 333.456C571.998 322.518 580.863 313.65 591.801 313.65C602.738 313.65 611.606 322.518 611.606 333.456C611.606 344.391 602.738 353.26 591.801 353.26ZM632 338.093V328.423L620.46 325.559C619.708 322.642 618.53 319.9 616.995 317.401L623.104 308.321L616.264 301.476L606.687 307.249C604.315 305.838 601.732 304.747 598.996 304.033L596.834 293H587.163L584.461 303.883C581.446 304.597 578.607 305.762 576.019 307.309L566.797 301.11L559.956 307.952L565.734 317.54C564.185 320.096 563.013 322.906 562.281 325.887L552 327.901V337.57L562.254 340.118C562.961 343.052 564.1 345.825 565.601 348.353L559.327 357.674L566.167 364.515L575.826 358.699C578.485 360.319 581.42 361.531 584.539 362.263L586.642 372.995H596.313L599.022 362.084C601.858 361.34 604.531 360.196 606.976 358.71L616.153 364.885L622.997 358.046L617.187 348.402C618.666 345.924 619.798 343.216 620.511 340.343L632 338.093Z" fill="#F9C1A6"/>
<path d="M626.852 401.452C618.648 401.452 612.001 394.8 612.001 386.598C612.001 378.396 618.648 371.743 626.852 371.743C635.053 371.743 641.705 378.396 641.705 386.598C641.705 394.8 635.053 401.452 626.852 401.452ZM657 390.075V382.826L648.346 380.677C647.784 378.489 646.898 376.432 645.748 374.555L650.328 367.747L645.198 362.613L638.015 366.941C636.235 365.883 634.298 365.067 632.247 364.53L630.627 356.255H623.373L621.346 364.417C619.084 364.954 616.954 365.827 615.012 366.99L608.099 362.338L602.966 367.468L607.302 374.662C606.141 376.581 605.259 378.687 604.708 380.923L597 382.43V389.687L604.691 391.593C605.221 393.797 606.076 395.874 607.2 397.77L602.495 404.765L607.625 409.894L614.87 405.531C616.864 406.745 619.067 407.654 621.404 408.202L622.982 416.255H630.236L632.268 408.07C634.395 407.512 636.402 406.655 638.232 405.538L645.116 410.169L650.247 405.044L645.891 397.813C647.001 395.948 647.848 393.92 648.387 391.764L657 390.075Z" fill="#D0D0D0"/>
<path d="M393.75 436.47H405.001V425.22H393.75V436.47Z" fill="#063E59"/>
<path d="M408.75 436.47H420V417.721H408.75V436.47Z" fill="#063E59"/>
<path d="M423.75 436.47H435V410.22H423.75V436.47Z" fill="#063E59"/>
<path d="M438.75 436.47H450V402.721H438.75V436.47Z" fill="#063E59"/>
<path d="M441.723 390.277H430.628L416.052 401.208L408.493 397.428L390 412.838V417.721L409.006 401.878L416.448 405.598L431.872 394.026H443.277L449.999 387.307V382L441.723 390.277Z" fill="#063E59"/>
<defs>
<radialGradient id="paint0_radial" cx="0" cy="0" r="1" gradientUnits="userSpaceOnUse" gradientTransform="translate(706.574 245.879) scale(40.8861 5.10904)">
<stop stop-color="#2BA9E2"/>
<stop offset="0.1197" stop-color="#2BA9E2"/>
<stop offset="0.500236" stop-color="#2BA9E2"/>
<stop offset="1" stop-color="white"/>
</radialGradient>
<radialGradient id="paint1_radial" cx="0" cy="0" r="1" gradientUnits="userSpaceOnUse" gradientTransform="translate(832.796 179.212) scale(25.4354 2.88951)">
<stop stop-color="#2BA9E2"/>
<stop offset="0.1197" stop-color="#2BA9E2"/>
<stop offset="0.500236" stop-color="#2BA9E2"/>
<stop offset="1" stop-color="white"/>
</radialGradient>
<radialGradient id="paint2_radial" cx="0" cy="0" r="1" gradientUnits="userSpaceOnUse" gradientTransform="translate(602.574 401.292) scale(45.5007 4.75382)">
<stop stop-color="#2BA9E2"/>
<stop offset="0.1197" stop-color="#2BA9E2"/>
<stop offset="0.500236" stop-color="#2BA9E2"/>
<stop offset="1" stop-color="white"/>
</radialGradient>
<radialGradient id="paint3_radial" cx="0" cy="0" r="1" gradientUnits="userSpaceOnUse" gradientTransform="translate(423.995 445.166) scale(43.9732 5.02918)">
<stop stop-color="#2BA9E2"/>
<stop offset="0.1197" stop-color="#2BA9E2"/>
<stop offset="0.500236" stop-color="#2BA9E2"/>
<stop offset="1" stop-color="white"/>
</radialGradient>
</defs>
</svg>
