<svg width="102" height="147" viewBox="0 0 102 147" fill="none" xmlns="http://www.w3.org/2000/svg">
<path d="M56.2213 56.4427C56.2213 58.896 54.2319 60.8853 51.7786 60.8853C49.3253 60.8853 47.3359 58.896 47.3359 56.4427C47.3359 53.9893 49.3253 52 51.7786 52C54.2319 52 56.2213 53.9893 56.2213 56.4427Z" fill="#FFCF47"/>
<path d="M57.5155 80.8118C57.5155 82.4492 56.1875 83.7758 54.5515 83.7758C52.9155 83.7758 51.5889 82.4492 51.5889 80.8118C51.5889 79.1745 52.9155 77.8492 54.5515 77.8492C56.1875 77.8492 57.5155 79.1745 57.5155 80.8118Z" fill="#E69200"/>
<path d="M84.0378 91.776C84.0378 96.7053 80.0418 100.701 75.1125 100.701C70.1818 100.701 66.1858 96.7053 66.1858 91.776C66.1858 86.8467 70.1818 82.8507 75.1125 82.8507C80.0418 82.8507 84.0378 86.8467 84.0378 91.776Z" fill="#FFE5AC"/>
<path d="M57.1394 115.275C57.1394 120.205 53.1434 124.199 48.214 124.199C43.2834 124.199 39.2874 120.205 39.2874 115.275C39.2874 110.346 43.2834 106.35 48.214 106.35C53.1434 106.35 57.1394 110.346 57.1394 115.275Z" fill="#FFCF47"/>
<path d="M56.1862 131.962C54.1902 133.959 50.9528 133.959 48.9555 131.962C46.9595 129.966 46.9595 126.728 48.9555 124.732C50.9528 122.736 54.1902 122.736 56.1862 124.732C58.1822 126.728 58.1822 129.966 56.1862 131.962Z" fill="#E69200"/>
</svg>
