<svg width="102" height="136" viewBox="0 0 102 136" fill="none" xmlns="http://www.w3.org/2000/svg">
<path d="M60.3661 35.212L60.2794 35.0427V3.944H41.9608V35.0427L41.8741 35.212C18.2901 39.5653 0.419434 60.2413 0.419434 85.1107C0.419434 113.143 23.1181 135.868 51.1194 135.868C79.1208 135.868 101.821 113.143 101.821 85.1107C101.821 60.2413 83.9488 39.5653 60.3661 35.212Z" fill="#EDFAFF"/>
<path d="M5.92155 79.308C5.54155 81.6946 5.34424 84.14 5.34424 86.632C5.34424 112.249 26.1109 133.019 51.7296 133.019C77.3456 133.019 98.1149 112.249 98.1149 86.632C98.1149 84.14 97.9149 81.6946 97.5362 79.308H5.92155Z" fill="url(#paint0_linear)"/>
<path opacity="0.570007" d="M65.7892 94.5246C56.4759 110.658 37.7345 117.274 23.9305 109.305C10.1279 101.334 6.48653 81.7966 15.8012 65.6633C25.1145 49.5313 43.8559 42.9139 57.6599 50.8846C71.4639 58.8539 75.1025 78.3926 65.7892 94.5246Z" fill="white"/>
<path opacity="0.520004" d="M38.6161 96.334C35.5401 101.661 29.3535 103.845 24.7961 101.214C20.2388 98.582 19.0361 92.1313 22.1121 86.8046C25.1868 81.478 31.3735 79.294 35.9321 81.9246C40.4895 84.5566 41.6921 91.0073 38.6161 96.334Z" fill="white"/>
<path d="M60.1175 5.50903H42.1228C40.7548 5.50903 39.6455 4.3997 39.6455 3.0317C39.6455 1.66237 40.7548 0.554367 42.1228 0.554367H60.1175C61.4855 0.554367 62.5948 1.66237 62.5948 3.0317C62.5948 4.3997 61.4855 5.50903 60.1175 5.50903Z" fill="#EDFAFF"/>
<defs>
<linearGradient id="paint0_linear" x1="51.7292" y1="133.018" x2="51.7292" y2="79.3085" gradientUnits="userSpaceOnUse">
<stop stop-color="#ED4B36"/>
<stop offset="0.00550255" stop-color="#ED4B36"/>
<stop offset="0.90171" stop-color="#FBBE41"/>
<stop offset="0.991474" stop-color="#FBBE41"/>
<stop offset="1" stop-color="#FBBE41"/>
</linearGradient>
</defs>
</svg>
