<svg width="228" height="164" viewBox="0 0 228 164" fill="none" xmlns="http://www.w3.org/2000/svg">
<path d="M86.3312 116.024C86.0822 116.704 85.8329 117.383 85.6559 118.084C84.8396 121.308 85.6795 125.068 87.9531 128.405C88.9156 129.817 89.8597 130.604 90.7576 130.744C91.7007 130.896 92.8685 130.293 93.6 129.28C94.2999 128.315 94.7341 126.97 94.9663 125.056C95.5637 120.112 94.7771 113.341 91.668 109.385C90.7954 108.271 89.4563 108.238 88.4841 108.406C87.7258 108.534 87.4967 108.574 87.3805 111.048C87.3362 111.973 87.288 113.021 87.0004 114.03C86.8086 114.701 86.5703 115.362 86.3312 116.024ZM114.292 127C115.066 128.4 115.982 129.732 117.014 130.957C118.2 132.367 118.959 132.627 119.387 132.6C119.825 132.568 120.354 132.204 120.803 131.623C121.694 130.466 122.093 128.834 121.894 127.14C121.816 126.473 121.65 125.796 121.4 125.111C121.061 124.186 120.569 123.249 119.923 122.303C119.427 121.575 117.069 118.842 115.23 117.816L115.045 117.7L114.901 117.707C114.885 117.841 114.868 118.034 114.852 118.322C114.866 118.539 114.876 118.753 114.869 118.966C114.832 120.213 114.333 121.215 113.891 122.097C113.658 122.565 113.437 123.009 113.343 123.39C113.123 124.286 113.43 125.439 114.292 127V127ZM119.751 110.625C120.235 110.081 120.691 109.569 121.114 109.148C122.053 108.212 122.799 107.429 123.166 106.553C123.34 106.143 123.333 105.797 123.308 105.729C123.27 105.7 123.037 105.562 122.007 105.615C120.467 105.694 118.283 105.94 117.115 107.163C116.652 107.652 116.274 108.359 115.924 109.396C115.45 110.811 115.38 111.858 115.73 112.643C115.876 112.957 116.223 113.244 116.922 113.343L117.209 113.193C118.078 112.512 119.01 111.462 119.751 110.625V110.625ZM103.694 104.296C104.864 103.419 105.239 102.384 104.815 101.224L104.797 101.173C104.552 100.521 103.992 99.9614 103.342 99.7146C101.272 98.9359 99.5293 100.103 98.6332 101.766C97.3075 104.215 97.5511 104.391 98.1253 104.818C99.454 105.804 102.006 105.567 103.694 104.296V104.296ZM112.959 86.5066C113.402 86.9458 113.823 87.2059 114.155 87.2398C114.478 87.2738 114.954 87.1168 115.422 86.9415C117.086 86.318 121.044 84.5025 121.839 81.1017C122.083 80.0532 121.987 78.9108 121.592 77.8334C121.331 77.117 120.938 76.4342 120.425 75.8321L120.425 75.8295C118.817 73.9298 116.386 73.2189 114.219 72.7722C113.674 72.6594 113.433 72.693 113.416 72.6763C113.235 72.9326 113.091 73.8868 112.994 74.5273C112.933 74.9242 112.871 75.3365 112.791 75.7518C112.595 76.78 112.24 77.6897 111.894 78.5728C111.651 79.1958 111.401 79.8139 111.246 80.464C110.729 82.5925 111.403 84.9597 112.959 86.5066V86.5066ZM174.317 78.2655C174.664 78.5097 174.997 78.6459 175.285 78.6615C175.936 78.7058 176.716 78.0262 176.988 77.1783C177.291 76.2364 177.186 75.041 176.667 73.5337L176.584 73.2945C176.187 72.207 175.718 71.4059 175.161 70.8494C173.622 69.3125 172.688 69.0015 172.575 68.999C172.001 69.7554 171.901 72.6436 172.367 74.9513C172.665 76.4004 173.37 77.6055 174.317 78.2655V78.2655ZM188.211 75.3941C189.619 76.2216 191.513 76.8366 192.609 76.0701C193.393 75.5221 193.673 74.1605 193.248 72.9969L193.217 72.9178C192.737 71.7157 191.665 70.6203 189.934 69.5675C188.844 68.9084 187.939 68.5167 187.084 68.3408C184.929 67.8986 182.274 68.1498 181.889 68.7361C182.173 70.8406 185.365 73.7173 188.211 75.3941V75.3941ZM181.392 61.0661C181.986 60.5419 182.43 59.6811 182.802 58.9202C183.03 58.4558 183.251 57.9724 183.27 57.6106C183.293 56.9387 182.421 56.1696 181.523 56.1068C180.464 56.0324 179.214 56.6068 178.093 57.683C176.99 58.7416 176.15 60.1016 175.668 61.6109C175.278 62.8304 175.105 63.8075 174.998 64.3111C176.79 63.8158 180.554 61.7897 181.389 61.0685L182.644 62.4665L181.392 61.0661ZM133.611 78.4665C134.896 79.4565 136.955 79.9809 138.394 79.0686C139.439 78.4062 140.074 76.9455 139.942 75.5231C139.901 75.1009 139.803 74.6766 139.648 74.2531C139.283 73.2539 138.613 72.2777 137.71 71.453C137.092 70.8863 135.436 70.1055 133.833 69.3487C133.09 68.9959 132.317 68.6344 131.551 68.2471L131.525 68.4435C131.459 69.1149 131.547 69.8677 131.641 70.6604C131.729 71.4161 131.812 72.1704 131.804 72.9265C131.801 73.2987 131.775 73.6695 131.748 74.0395C131.719 74.4556 131.682 74.8756 131.713 75.2926C131.802 76.4235 132.503 77.6188 133.611 78.4665ZM156.454 75.7474C156.9 75.9791 157.577 76.3284 157.93 76.2868C158.249 76.2474 158.759 75.832 158.921 75.6977C159.346 75.3471 159.932 74.8254 160.073 74.31C160.168 73.9662 160.103 73.4877 159.879 72.8774C159.836 72.7578 159.787 72.6343 159.731 72.5073L159.73 72.5034C158.612 69.9066 155.878 66.9529 153.739 66.8674C153.594 66.862 153.293 66.8519 152.898 67.3386C152.021 68.419 151.692 70.6976 152 71.8611C152.393 73.5484 154.445 74.7106 156.454 75.7474V75.7474ZM164.623 56.2885C164.631 55.6917 163.982 54.8916 162.959 54.2923C161.766 53.6012 160.488 53.2712 159.358 53.3679C158.207 53.4646 157.146 54.0349 156.594 54.8496C156.233 55.387 156.012 56.1278 155.961 56.9885C155.916 57.735 155.993 58.3584 156.219 58.8723C156.668 59.8981 157.427 61.1589 158.483 61.323C159.718 61.5124 161.611 60.3642 163.429 58.3235C164.013 57.6612 164.614 56.9033 164.623 56.2885V56.2885ZM136.903 55.9641C137.125 54.8334 136.41 53.4831 135.314 52.9547C134.183 52.4121 132.632 52.6546 131.628 53.5275C130.646 54.3825 130.081 55.7872 129.699 56.9127C129.267 58.1992 128.93 59.5118 128.587 60.8426C128.389 61.6292 129.301 62.5287 130.617 63.394C130.903 63.1568 131.191 62.9315 131.474 62.7035C132.549 61.8505 133.433 60.8219 134.366 59.7268L135.365 58.5783C136.17 57.6099 136.74 56.7926 136.903 55.9641V55.9641ZM130.443 40.1324C130.713 40.6855 131.506 41.1531 132.86 41.5611C133.877 41.8685 135.177 42.1805 136.22 41.8819C136.902 41.6922 137.49 41.0907 137.453 40.6242C137.355 39.2055 134.104 36.8993 132.28 36.9071C131.779 36.9055 131.191 37.328 130.784 37.9791C130.321 38.7099 130.175 39.5995 130.443 40.1324V40.1324ZM84.7143 51.4765C83.2973 50.3205 80.7561 49.9413 79.37 51.2429C77.9376 52.5893 78.0759 55.1608 78.2005 56.2045C78.5845 59.4003 80.0231 62.6248 82.3585 65.5218C83.3163 66.7132 85.2123 68.0216 86.217 67.9283C86.3421 67.9177 86.553 67.896 86.8166 67.4093C87.0117 67.0448 87.0326 66.012 87.0459 65.3319C87.0551 64.8248 87.067 64.3405 87.1125 63.929L87.1644 63.4615C87.3839 61.4659 87.5909 59.5795 87.4568 57.7131C87.3417 56.1318 86.8334 53.2082 84.7143 51.4765V51.4765ZM93.2911 67.7994C93.6421 68.6352 94.3049 69.5873 95.1115 69.7529C95.6493 69.8651 96.428 69.6667 97.1193 69.4881C99.2669 68.9421 101.487 68.3809 103.233 67.1778C103.653 66.8913 103.926 66.6358 104.073 66.3955C104.263 66.0795 104.25 65.6277 104.092 65.1941C103.931 64.7532 103.618 64.3254 103.212 64.0635C101.821 63.1751 100.27 63.5509 97.8787 64.2712L96.7037 64.6147C94.2851 65.2867 93.0557 65.8255 93.0486 66.9082C93.0514 67.122 93.1354 67.4232 93.2911 67.7994V67.7994ZM108.788 51.8753C110.408 53.4927 112.006 54.9491 113.738 55.0583C114.818 55.129 116.023 54.6696 117.194 54.2263C118.833 53.6036 120.245 53.0101 120.94 51.9839C121.126 51.7093 121.16 51.5369 121.166 51.4796L121.124 51.2183C121.063 51.0527 120.943 50.8706 120.789 50.7171C120.471 50.4031 119.991 50.1303 119.274 49.8611L119.271 49.8619C115.668 48.5006 111.327 49.0676 108.307 51.3287C108.395 51.4527 108.542 51.6291 108.788 51.8753V51.8753ZM123.752 30.4999C123.567 29.9982 123.018 29.5432 122.396 29.3918C121.648 29.2124 120.722 29.3741 119.859 29.8381C118.727 30.4429 117.911 31.4463 117.673 32.5208C117.441 33.5687 117.729 34.8101 118.006 35.7738C118.254 36.5804 118.911 37.4138 119.626 37.7308C120.073 37.9303 120.482 37.9256 120.915 37.7164C121.421 37.4771 122.547 35.8325 123.594 32.2977L123.596 32.2932C123.737 31.8205 123.912 31.1324 123.788 30.6232L123.752 30.4999ZM103.781 39.0059C103.4 37.9632 102.889 36.97 102.26 36.0685L102.259 36.0688C101.604 35.1294 100.979 34.5315 100.345 34.2436C98.8343 33.5584 96.8355 34.4715 95.6378 35.728C93.9923 37.4527 93.2073 39.983 93.5851 42.3261C93.9702 44.6793 95.5083 46.8177 97.6116 47.9337C98.3648 48.3346 99.1886 48.6154 100.067 48.7742C101.632 49.0536 102.718 48.984 103.3 48.5648C103.871 48.15 104.269 47.154 104.483 45.6006C104.795 43.3649 104.539 41.0774 103.781 39.0059V39.0059ZM75.9848 88.0709C76.1203 87.9851 76.257 87.8988 76.3925 87.813C78.6282 82.0259 81.3912 76.5622 84.6326 71.4629C82.3449 70.8466 80.3135 69.0007 79.4087 67.8775C77.6961 65.7524 76.3891 63.4629 75.5293 61.1124C74.9922 59.6466 74.6299 58.1549 74.4497 56.6614C74.0348 53.2146 74.8656 50.3239 76.7813 48.5205C79.4119 46.0423 84.049 46.0659 87.1164 48.571C89.4927 50.5093 90.9481 53.6565 91.2233 57.4301C91.3519 59.2012 91.2241 60.9318 91.0501 62.6211C93.9863 59.0422 97.1901 55.6998 100.642 52.6153C100.233 52.5772 99.8326 52.5503 99.3837 52.469C98.1222 52.2433 96.9267 51.8326 95.8255 51.2516C93.3243 49.9251 91.3596 47.6141 90.3889 44.961C90.1483 44.3033 89.9688 43.6269 89.856 42.9357C89.2969 39.4597 90.4626 35.7099 92.9018 33.1532C95.0232 30.9197 98.6372 29.3342 101.924 30.8271C103.191 31.4017 104.316 32.4158 105.366 33.9199C107.777 37.3782 108.822 41.8163 108.225 46.0994C108.203 46.2599 108.175 46.4307 108.146 46.6015C111.095 44.4859 114.184 42.5402 117.403 40.7669C116.117 39.9823 115.057 38.7307 114.522 37.2683C114.467 37.1203 114.418 36.9704 114.377 36.8182C113.977 35.4309 113.571 33.5966 113.986 31.7253C114.456 29.5949 115.985 27.6551 118.074 26.533C119.775 25.6195 121.631 25.3402 123.305 25.7428C125.365 26.2517 127.004 27.8147 127.461 29.7302C127.795 31.1156 127.483 32.4581 127.214 33.3479C126.858 34.5557 126.474 35.614 126.068 36.5544C126.606 36.3258 127.133 36.0823 127.677 35.863C128.799 34.1685 130.509 33.1541 132.285 33.1515C135.437 33.1398 140.9 36.4941 141.218 40.3181C141.395 42.5841 139.683 44.8087 137.24 45.4977C135.253 46.0595 133.264 45.6109 131.752 45.1558C130.216 44.6917 128.054 43.8372 127.051 41.7925C126.975 41.6412 126.908 41.4859 126.85 41.3278C126.742 41.0298 126.693 40.7109 126.641 40.3945C123.211 41.8945 119.899 43.5689 116.739 45.4447C118.059 45.5777 119.367 45.8749 120.623 46.349C121.396 46.6396 122.532 47.1336 123.461 48.0557C124.525 49.1107 125.055 50.4859 124.923 51.845C124.845 52.6058 124.555 53.3597 124.065 54.0777C122.645 56.1768 120.264 57.0769 118.527 57.7339C117.125 58.266 115.384 58.9241 113.485 58.8066C110.187 58.5983 107.733 56.1506 106.106 54.5283C105.915 54.3375 105.592 54.0016 105.276 53.5708C102.761 55.6768 100.379 57.9267 98.1251 60.2976C100.31 59.7084 102.818 59.3428 105.262 60.9045C107.809 62.5339 108.756 65.9259 107.307 68.3203C106.87 69.0459 106.249 69.6654 105.368 70.2653C103.068 71.8496 100.397 72.5285 98.0435 73.1223C97.0652 73.375 95.7259 73.719 94.3279 73.4299C92.6191 73.0781 91.1319 71.8384 90.1559 69.9918C87.0168 74.4419 84.2813 79.2171 81.9788 84.2766C89.4132 79.6127 97.09 75.0574 105.199 71.4696C111.988 68.4678 119.039 66.1861 126.227 64.5858C125.065 63.2782 124.463 61.7506 124.935 59.9007C125.294 58.5023 125.657 57.1014 126.122 55.7301C126.655 54.1499 127.483 52.1508 129.149 50.7036C131.312 48.8203 134.455 48.3683 136.966 49.5739C139.631 50.8559 141.164 53.8464 140.606 56.6728C140.272 58.3753 139.283 59.7462 138.266 60.9723L138.221 61.0236L137.238 62.1545C137.069 62.3532 136.897 62.5527 136.724 62.7526C142.314 62.0521 147.951 61.7816 153.584 61.9185C153.294 61.4656 153.014 60.971 152.757 60.3821C152.704 60.2614 152.652 60.1358 152.608 60.0123C152.257 59.0516 152.116 57.959 152.191 56.7697C152.288 55.2245 152.713 53.8779 153.461 52.7666C154.659 50.9945 156.749 49.818 159.052 49.6247C160.976 49.4644 162.988 49.9546 164.873 51.0502C167.138 52.3648 168.42 54.2895 168.4 56.3222C168.374 58.1683 167.301 59.622 166.256 60.8039L166.252 60.805C165.612 61.5248 164.962 62.1466 164.309 62.6916C166.662 62.9748 169.008 63.3266 171.343 63.7594C171.429 62.881 171.643 61.8139 172.069 60.4836C172.742 58.3796 173.92 56.4797 175.476 54.986C177.4 53.1401 179.646 52.2077 181.803 52.3599C184.454 52.5433 187.193 54.7584 187.039 57.7867C186.985 58.8532 186.579 59.7701 186.202 60.5477C185.67 61.6346 185.01 62.8787 183.897 63.8666C183.855 63.8988 183.545 64.1186 183.061 64.4373C185.403 64.174 187.709 64.6322 187.861 64.6633C189.152 64.9282 190.439 65.4689 191.913 66.3637C194.363 67.8526 195.938 69.5407 196.729 71.5229C197.901 74.3871 197.036 77.5642 194.77 79.1438C192.556 80.6894 189.461 80.5007 186.28 78.6274C185.797 78.342 182.934 76.5999 180.729 74.1326C181.029 75.6669 180.988 77.0468 180.586 78.306C179.771 80.8441 177.431 82.5683 175.027 82.4114C174.04 82.347 173.07 81.9917 172.145 81.3459C170.781 80.3965 169.731 78.9771 169.102 77.2556C168.92 76.7598 168.776 76.243 168.666 75.7061C168.618 75.4686 167.569 70.13 169.268 67.2004C166.091 66.6531 162.894 66.2546 159.687 65.9935C161.318 67.581 162.56 69.5237 163.201 71.0145C163.906 72.6337 164.065 74.0299 163.714 75.294C163.287 76.8351 162.144 77.9153 161.317 78.5927C160.606 79.1763 159.629 79.8596 158.371 80.015C156.856 80.1941 155.56 79.5233 154.701 79.0799C152.238 77.807 149.558 76.222 148.536 73.4269C148.465 73.2338 148.403 73.0383 148.348 72.8321C147.83 70.8728 148.155 67.8085 149.511 65.6464C145.227 65.6973 140.95 65.994 136.701 66.5454C138.187 67.2632 139.455 67.9359 140.272 68.6828C142.261 70.5043 143.475 72.7976 143.702 75.1604C143.968 78.0211 142.68 80.793 140.417 82.2318C137.802 83.8892 134.05 83.5626 131.296 81.4422C129.925 80.39 128.917 79.0335 128.378 77.5601C128.142 76.9164 127.995 76.252 127.948 75.5794C127.903 74.9781 127.939 74.384 127.982 73.7876C128.005 73.4939 128.027 73.2017 128.028 72.9037C128.035 72.3044 127.96 71.7083 127.889 71.1093C127.778 70.1557 127.663 69.1713 127.767 68.0992L127.769 68.0833C124.844 68.7138 121.944 69.4613 119.073 70.3315C120.593 70.996 122.086 71.95 123.316 73.4028C125.38 75.8414 126.196 79.028 125.516 81.9376C124.665 85.5841 121.465 88.6885 116.743 90.4555C115.841 90.7958 114.852 91.0949 113.751 90.9738C112.538 90.8549 111.373 90.2466 110.288 89.1718C109.242 88.1335 108.449 86.8623 107.944 85.4823C107.258 83.609 107.104 81.5397 107.575 79.6001C107.771 78.7879 108.071 78.0019 108.376 77.2239C108.653 76.5145 108.939 75.8129 109.08 75.0702C109.15 74.6983 109.206 74.3294 109.26 73.9789L109.283 73.8347C108.427 74.187 107.568 74.5267 106.722 74.901C96.679 79.3405 87.1883 85.3853 78.0128 91.2297C73.7111 93.9707 69.4083 96.7121 65.0316 99.3085C64.5563 99.5913 64.0567 99.8815 63.5614 100.172C72.5137 99.6099 81.5059 100.889 89.9872 103.978C91.4722 104.519 92.851 105.127 94.1857 105.755L94.1446 105.667C93.378 103.57 94.5936 101.317 95.393 99.8387C97.2761 96.3456 101.098 94.8528 104.69 96.2012C106.348 96.8302 107.71 98.1887 108.332 99.8392C109.376 102.779 108.495 105.387 105.964 107.29C104.585 108.325 102.696 109.034 100.77 109.155C104.526 111.168 108.014 112.908 112.07 113.529C111.582 112.015 111.649 110.285 112.343 108.215C112.678 107.223 113.252 105.769 114.379 104.584C116.483 102.383 119.637 101.978 121.826 101.865C122.706 101.821 124.763 101.713 126.117 103.21C127.177 104.382 127.39 106.216 126.652 107.988C125.968 109.623 124.753 110.828 123.779 111.796C123.407 112.166 123.005 112.62 122.579 113.104C121.621 114.183 120.583 115.355 119.414 116.238C121.127 117.74 122.592 119.518 123.049 120.185C124.515 122.328 125.389 124.518 125.644 126.691C125.956 129.347 125.283 131.978 123.796 133.902C122.66 135.374 121.178 136.242 119.626 136.345C116.779 136.537 114.774 134.157 114.115 133.374C112.926 131.962 111.873 130.432 110.982 128.818C110.664 128.244 110.316 127.555 110.036 126.79C109.572 125.521 109.298 124.037 109.678 122.505C109.872 121.719 110.211 121.038 110.51 120.438C110.804 119.85 111.081 119.292 111.084 118.543C111.063 118.203 111.055 117.862 111.094 117.535L111.163 117.19C106.239 116.371 102.156 114.183 97.9041 111.891C97.6402 111.749 97.3692 111.606 97.1036 111.463C98.9301 116.108 99.1908 121.549 98.7151 125.489L98.7137 125.49C98.5188 127.111 98.0898 129.487 96.6649 131.463C95.0782 133.657 92.5213 134.829 90.1501 134.454C88.1597 134.139 86.4153 132.852 84.8254 130.522C83.8892 129.146 83.1475 127.705 82.6104 126.239C81.4978 123.2 81.2672 120.054 81.9933 117.181C82.2009 116.357 82.4897 115.557 82.7801 114.757C82.9884 114.181 83.2009 113.604 83.3676 113.02C83.5362 112.428 83.5724 111.681 83.6068 110.888C83.6701 109.557 83.7776 107.655 84.9142 106.286C75.3332 103.504 64.9163 103.055 55.1667 105.065C54.9582 105.108 54.7535 105.104 54.5535 105.08C44.3843 110.194 31.8482 114.92 18.6575 115.153C17.8318 115.166 17.1234 114.652 16.8565 113.922C16.7848 113.729 16.7451 113.523 16.7436 113.308C16.7297 112.271 17.5615 111.418 18.6036 111.396C31.9535 111.164 45.6778 106.442 63.1043 96.087C67.4481 93.5062 71.7166 90.7892 75.9848 88.0709" fill="#F9C1A6" fill-opacity="0.3"/>
<path d="M134.929 123.246C134.902 122.835 134.605 122.33 134.384 121.987C133.552 120.678 130.635 117.927 129.291 117.408C129.233 117.788 129.336 118.262 129.547 118.773C130.417 120.77 132.915 122.768 134.248 123.264C134.789 123.469 134.997 123.432 134.93 123.25L134.929 123.246ZM138.695 122.964C138.808 124.541 138.059 126.02 136.791 126.725C135.719 127.321 134.416 127.343 132.913 126.783C130.617 125.926 127.355 123.195 126.082 120.277C126.02 120.131 125.96 119.986 125.906 119.838C125.37 118.372 125.36 116.938 125.885 115.677C126.39 114.456 127.392 113.692 128.632 113.582C132.284 113.259 137.064 119.162 137.577 119.969C138.05 120.718 138.605 121.728 138.695 122.964" fill="#F9C1A6" fill-opacity="0.3"/>
<path d="M142.675 110.547L142.682 110.541C143.013 110.313 143.475 109.973 143.549 109.489C142.483 109.126 141.142 109.447 140.358 110.253C139.972 110.652 139.451 111.775 139.29 112.313C139.851 112.17 140.971 111.719 142.675 110.547ZM137.649 107.645C139.459 105.786 142.325 105.098 144.794 105.937C145.592 106.216 146.196 106.603 146.648 107.129C147.587 108.23 147.734 109.916 147.013 111.327C146.455 112.419 145.544 113.131 144.812 113.632C140.952 116.29 138.177 116.819 136.558 115.203C136.206 114.851 135.961 114.452 135.804 114.022C134.974 111.754 136.626 108.696 137.649 107.645" fill="#F9C1A6" fill-opacity="0.3"/>
<path d="M142.543 23.8654C142.525 23.4194 142.208 23.079 142.016 22.9104C141.58 22.5317 140.984 22.3276 140.46 22.3817C139.341 22.4904 138.197 23.4852 137.68 24.7933C137.039 26.421 136.988 28.391 137.108 28.7173C137.108 28.7257 136.723 28.9753 137.77 28.5573C139.229 27.9787 140.541 27.0431 141.563 25.8573C142.223 25.094 142.562 24.4041 142.543 23.8654V23.8654ZM134.616 31.4883C134.194 31.0688 133.894 30.5666 133.69 30.0087C132.902 27.8536 133.572 24.94 134.166 23.4311C135.216 20.7738 137.547 18.8971 140.098 18.6431C141.646 18.4886 143.294 19.0252 144.506 20.0777C145.629 21.0523 146.27 22.3561 146.316 23.7204C146.37 25.2455 145.731 26.7864 144.423 28.3011C143.007 29.9429 141.187 31.2349 139.163 32.0436C136.694 33.0276 135.256 32.1176 134.616 31.4883" fill="#F9C1A6" fill-opacity="0.3"/>
<path d="M148.104 36.2713C148.586 36.5252 149.249 36.6448 149.901 36.7663L153.483 37.4404C153.66 37.4733 154.12 37.5583 154.13 37.5786C154.134 37.4764 154.108 37.239 153.89 36.8279C153.229 35.594 152.042 35.2195 151.391 35.106C150.135 34.8855 148.787 35.21 147.733 36.0014C147.82 36.0897 147.945 36.1885 148.104 36.2713V36.2713ZM152.056 31.4059C154.315 31.8023 156.199 33.1323 157.228 35.0585L157.229 35.0622C157.731 35.9986 157.949 36.9027 157.9 37.7627C157.835 39.0545 157.138 40.2265 156.084 40.8225C154.851 41.5177 153.552 41.2786 152.769 41.1307L149.189 40.4562C148.357 40.3039 147.321 40.1114 146.342 39.5986C145.234 39.0238 144.422 38.1312 144.042 37.091C143.971 36.9021 143.916 36.7084 143.877 36.5071C143.737 35.7909 143.816 35.0905 144.113 34.4746C144.348 33.9982 144.681 33.6619 144.957 33.4124C146.865 31.714 149.519 30.9631 152.056 31.4059" fill="#F9C1A6" fill-opacity="0.3"/>
<path d="M201.347 59.926L201.351 59.9248C202.151 59.6396 202.761 59.0701 202.918 58.4041C202.862 58.3425 202.599 58.2042 202.148 58.1539C201.026 58.0256 199.858 58.3307 198.947 58.9911C198.58 59.2545 198.519 59.3936 198.519 59.3936C198.361 59.7871 198.353 60.004 198.316 59.9671C198.622 60.2528 200.166 60.3489 201.347 59.926V59.926ZM196.736 55.9519C198.408 54.7484 200.54 54.192 202.589 54.4227C204.404 54.6297 205.78 55.5211 206.36 56.8659C206.635 57.5462 206.737 58.3751 206.578 59.2011C206.214 61.087 204.695 62.7177 202.616 63.4572C200.777 64.1179 197.391 64.4299 195.599 62.5868C195.331 62.3142 195.018 61.9019 194.81 61.3338C194.52 60.5375 194.441 59.4425 195.011 58.0169C195.321 57.2404 195.887 56.5655 196.736 55.9519" fill="#F9C1A6" fill-opacity="0.3"/>
<path d="M210.705 72.6823C211.416 73.0352 212.48 73.4224 213.524 73.2479C214.04 73.1618 214.38 72.8969 214.425 72.7751C214.432 72.3669 213.325 71.1009 212.221 70.615C211.723 70.3935 211.046 70.5637 209.98 70.8584C209.522 70.9878 209.036 71.1215 208.49 71.2153C209.205 71.7746 209.943 72.3009 210.705 72.6823V72.6823ZM204.893 67.9209C205.683 67.4766 206.463 67.5464 206.994 67.5944C207.546 67.6386 208.243 67.447 208.979 67.2409C210.328 66.869 212.007 66.4002 213.769 67.1845C215.917 68.133 218.77 70.8408 218.098 73.6345C217.69 75.3122 216.138 76.6135 214.143 76.9479C212.52 77.2239 210.739 76.9107 208.997 76.0371C207.581 75.3284 206.363 74.3496 205.294 73.4915C204.827 73.1193 204.121 72.5572 203.734 71.6452L203.67 71.4861C203.171 70.1222 203.692 68.5786 204.893 67.9209" fill="#F9C1A6" fill-opacity="0.3"/>
</svg>
