<svg width="1000" height="667" viewBox="0 0 1000 667" fill="none" xmlns="http://www.w3.org/2000/svg">
<g id="structure">
<g id="background">
<path id="path200" d="M929.265 170.956C917.28 149.904 890.5 142.554 869.448 154.54C858.722 160.646 851.578 170.598 848.712 181.672L788.842 170.864C789.217 166.448 789.142 161.928 788.548 157.353C785.506 133.968 769.996 115.27 749.576 107.042L751.533 99.4009L751.498 99.3929L755.75 83.1875C761.512 84.0062 767.565 83.2369 773.232 80.5929C788.78 73.3342 795.5 54.8462 788.24 39.2982C780.982 23.7502 762.494 17.0302 746.946 24.2889C731.398 31.5462 724.678 50.0342 731.937 65.5822C735.634 73.5035 742.253 79.1169 749.906 81.7742L743.738 105.017C735.621 102.644 726.896 101.861 717.969 103.022C683.477 107.509 659.152 139.108 663.638 173.6C665.924 191.169 675.252 206.088 688.404 215.917L664.593 253.274C634.786 233.705 594.35 238.138 569.594 265.349C542.17 295.492 544.374 342.158 574.516 369.582C604.66 397.006 651.326 394.802 678.749 364.66C706.045 334.658 703.978 288.297 674.24 260.822L698.798 222.226C709.437 227.356 721.63 229.568 734.217 227.932C761.034 224.444 781.697 204.564 787.46 179.68L824.093 185.969L824.102 185.917L847.389 190.054C846.894 198.254 848.665 206.685 853.032 214.356C865.016 235.408 891.797 242.757 912.848 230.772C933.9 218.788 941.249 192.006 929.265 170.956Z" fill="#6BC0DE"/>
<path id="path424" opacity="0.600006" d="M598.552 282.666V274.743C598.552 268.702 603.63 263.804 609.894 263.804C616.158 263.804 621.237 268.702 621.237 274.743V322.652C621.237 323.871 622.266 324.835 623.482 324.755C624.592 324.683 625.453 323.763 625.453 322.652V274.743C625.453 268.702 630.532 263.804 636.797 263.804C643.061 263.804 648.138 268.702 648.138 274.743V282.943" stroke="#99E4FF" stroke-width="3.41867" stroke-miterlimit="10" stroke-linecap="round"/>
<path id="path434" d="M600.834 365.76C596.474 365.76 592.94 362.227 592.94 357.867V279.046H608.728V357.867C608.728 362.227 605.194 365.76 600.834 365.76Z" fill="#EDFAFF"/>
<path id="path436" d="M608.728 279.046H592.94V301.71H608.728V279.046Z" fill="#EDFAFF"/>
<path id="path462" d="M594.816 304.679V356.587C594.816 360.358 597.511 363.415 600.835 363.415C604.157 363.415 606.851 360.358 606.851 356.587V304.679H594.816Z" fill="url(#paint0_linear)"/>
<path id="path480" opacity="0.220001" d="M601.381 278.429L608.797 278.268L608.758 280.871L608.572 301.709V357.867C608.572 361.988 605.409 365.371 601.381 365.727V278.429Z" fill="white"/>
<path id="path490" d="M622.488 365.76C618.128 365.76 614.593 362.227 614.593 357.867V279.045H630.381V357.867C630.381 362.227 626.848 365.76 622.488 365.76Z" fill="#EDFAFF"/>
<path id="path492" d="M630.381 279.046H614.593V301.71H630.381V279.046Z" fill="#EDFAFF"/>
<path id="path518" d="M616.469 304.679V356.587C616.469 360.358 619.163 363.415 622.488 363.415C625.811 363.415 628.505 360.358 628.505 356.587V304.679H616.469Z" fill="url(#paint1_linear)"/>
<path id="path536" opacity="0.220001" d="M623.035 278.429L630.389 278.315L630.4 280.871L630.225 301.709V357.867C630.225 361.988 627.063 365.371 623.035 365.727V278.429Z" fill="white"/>
<path id="path546" d="M603.001 321.163C602.776 320.315 603.281 319.445 604.13 319.22C604.977 318.996 605.848 319.5 606.073 320.348C606.297 321.196 605.792 322.065 604.944 322.291C604.096 322.516 603.226 322.011 603.001 321.163Z" fill="#40B8E7"/>
<path id="path550" d="M604.588 326.521C604.993 328.048 604.084 329.612 602.559 330.017C601.032 330.421 599.467 329.513 599.063 327.988C598.659 326.463 599.567 324.897 601.092 324.492C602.617 324.087 604.183 324.996 604.588 326.521Z" fill="#3B4295"/>
<path id="path554" d="M602.021 333.654C602.294 334.682 601.682 335.737 600.654 336.009C599.626 336.282 598.571 335.67 598.299 334.642C598.026 333.614 598.639 332.559 599.666 332.287C600.694 332.014 601.749 332.626 602.021 333.654Z" fill="#40B8E7"/>
<path id="path558" d="M603.017 311.346C603.223 312.127 602.759 312.929 601.978 313.137C601.197 313.343 600.394 312.878 600.187 312.097C599.981 311.317 600.445 310.514 601.226 310.307C602.007 310.099 602.81 310.565 603.017 311.346Z" fill="#3B4295"/>
<path id="path562" d="M601.627 305.868C601.697 306.128 601.542 306.394 601.282 306.463C601.022 306.532 600.757 306.376 600.687 306.118C600.618 305.859 600.773 305.592 601.033 305.523C601.291 305.454 601.558 305.61 601.627 305.868Z" fill="#40B8E7"/>
<path id="path566" d="M600.397 302.06C600.499 302.45 600.267 302.848 599.879 302.951C599.49 303.055 599.091 302.823 598.987 302.434C598.885 302.044 599.117 301.646 599.506 301.543C599.894 301.44 600.294 301.671 600.397 302.06Z" fill="#40B8E7"/>
<path id="path570" d="M624.418 332.553C624.192 331.705 624.698 330.836 625.546 330.61C626.394 330.385 627.263 330.89 627.488 331.738C627.714 332.586 627.208 333.456 626.36 333.681C625.512 333.906 624.643 333.401 624.418 332.553Z" fill="#F06522"/>
<path id="path574" d="M626.005 337.911C626.41 339.438 625.501 341.002 623.975 341.407C622.449 341.813 620.883 340.903 620.478 339.378C620.075 337.853 620.982 336.287 622.509 335.883C624.034 335.478 625.599 336.386 626.005 337.911Z" fill="#FBBE41"/>
<path id="path578" d="M623.437 345.045C623.711 346.073 623.099 347.128 622.071 347.4C621.043 347.673 619.988 347.06 619.716 346.032C619.443 345.005 620.055 343.951 621.083 343.679C622.111 343.405 623.165 344.017 623.437 345.045Z" fill="#F06522"/>
<path id="path582" d="M624.433 322.737C624.64 323.518 624.176 324.319 623.394 324.527C622.613 324.734 621.81 324.269 621.604 323.487C621.397 322.706 621.861 321.905 622.642 321.698C623.424 321.49 624.226 321.955 624.433 322.737Z" fill="#FBBE41"/>
<path id="path586" d="M623.043 317.259C623.112 317.517 622.959 317.784 622.697 317.853C622.439 317.923 622.173 317.767 622.104 317.508C622.035 317.248 622.189 316.983 622.449 316.913C622.708 316.844 622.975 316.999 623.043 317.259Z" fill="#F06522"/>
<path id="path590" d="M621.814 313.451C621.916 313.84 621.684 314.239 621.296 314.342C620.907 314.446 620.508 314.214 620.404 313.824C620.302 313.435 620.534 313.036 620.923 312.934C621.311 312.83 621.711 313.062 621.814 313.451Z" fill="#F06522"/>
<path id="path594" d="M608.912 279.033H592.911C592.188 279.033 591.603 278.448 591.603 277.724C591.603 277.001 592.188 276.414 592.911 276.414H608.912C609.635 276.414 610.22 277.001 610.22 277.724C610.22 278.448 609.635 279.033 608.912 279.033Z" fill="#EDFAFF"/>
<path id="path598" d="M630.586 279.033H614.546C613.834 279.033 613.256 278.456 613.256 277.744V277.704C613.256 276.992 613.834 276.414 614.546 276.414H630.586C631.298 276.414 631.875 276.992 631.875 277.704V277.744C631.875 278.456 631.298 279.033 630.586 279.033Z" fill="#EDFAFF"/>
<path id="path602" d="M643.69 365.76C639.33 365.76 635.796 362.227 635.796 357.867V279.045H651.583V357.867C651.583 362.227 648.05 365.76 643.69 365.76Z" fill="#EDFAFF"/>
<path id="path604" d="M651.583 279.046H635.796V301.71H651.583V279.046Z" fill="#EDFAFF"/>
<path id="path630" d="M637.671 304.679V356.587C637.671 360.358 640.365 363.415 643.691 363.415C647.013 363.415 649.707 360.358 649.707 356.587V304.679H637.671Z" fill="url(#paint2_linear)"/>
<path id="path648" opacity="0.220001" d="M644.237 278.429L651.593 278.315L651.602 280.871L651.427 301.709V357.867C651.427 361.988 648.266 365.371 644.237 365.727V278.429Z" fill="white"/>
<path id="path658" d="M645.62 332.553C645.394 331.705 645.9 330.836 646.749 330.61C647.596 330.385 648.466 330.89 648.692 331.738C648.916 332.586 648.412 333.456 647.562 333.681C646.714 333.906 645.845 333.401 645.62 332.553Z" fill="#FFCAFE"/>
<path id="path682" d="M643.711 335.883C642.185 336.287 641.277 337.852 641.681 339.378C642.087 340.904 643.652 341.812 645.177 341.408C646.703 341.002 647.612 339.438 647.207 337.911C646.867 336.631 645.712 335.786 644.447 335.787C644.204 335.787 643.956 335.818 643.711 335.883" fill="url(#paint3_linear)"/>
<path id="path694" d="M644.639 345.045C644.912 346.073 644.3 347.128 643.272 347.4C642.244 347.673 641.19 347.06 640.918 346.032C640.644 345.005 641.258 343.951 642.284 343.679C643.312 343.405 644.367 344.017 644.639 345.045Z" fill="#FFCAFE"/>
<path id="path718" d="M643.845 321.698C643.064 321.904 642.599 322.706 642.805 323.487C643.012 324.268 643.815 324.734 644.596 324.527C645.377 324.32 645.841 323.518 645.636 322.738C645.461 322.082 644.869 321.648 644.221 321.648C644.097 321.648 643.971 321.664 643.845 321.698" fill="url(#paint4_linear)"/>
<path id="path730" d="M644.246 317.259C644.315 317.518 644.16 317.784 643.9 317.854C643.642 317.923 643.375 317.767 643.306 317.508C643.236 317.248 643.391 316.983 643.651 316.914C643.91 316.844 644.176 316.999 644.246 317.259Z" fill="#FFCAFE"/>
<path id="path734" d="M643.015 313.451C643.118 313.84 642.886 314.239 642.498 314.342C642.108 314.446 641.71 314.214 641.607 313.824C641.503 313.435 641.735 313.036 642.124 312.934C642.514 312.83 642.912 313.062 643.015 313.451Z" fill="#FFCAFE"/>
<path id="path738" d="M651.787 279.033H635.749C635.037 279.033 634.458 278.456 634.458 277.744V277.704C634.458 276.992 635.037 276.414 635.749 276.414H651.787C652.499 276.414 653.077 276.992 653.077 277.704V277.744C653.077 278.456 652.499 279.033 651.787 279.033Z" fill="#EDFAFF"/>
<path id="path742" d="M753.04 132.722C753.699 131.586 752.881 130.165 751.568 130.163L748.944 130.158V130.153H746.195L741.441 130.145L741.447 130.153H705.281C704.34 130.153 703.576 130.917 703.576 131.858V208.063C703.576 209.004 704.34 209.768 705.281 209.768H747.239C748.18 209.768 748.944 209.004 748.944 208.063V140.247C748.944 139.947 749.023 139.652 749.175 139.392L753.04 132.722Z" fill="#EDFAFF"/>
<path id="path768" d="M706.373 208.713H746.313V150.087H706.373V208.713Z" fill="url(#paint5_linear)"/>
<path id="path786" opacity="0.600006" d="M731.502 197.924L728.434 198.51L711.93 111.364L714.998 110.777L731.502 197.924Z" fill="#99E4FF"/>
<path id="path794" d="M743.505 199.808H727.496V201.326H743.505V199.808Z" fill="white"/>
<path id="path796" d="M743.505 195.863H735.263V197.38H743.505V195.863Z" fill="white"/>
<path id="path798" d="M743.505 192.526H735.263V194.043H743.505V192.526Z" fill="white"/>
<path id="path800" d="M743.505 189.187H735.263V190.704H743.505V189.187Z" fill="white"/>
<path id="path802" d="M743.505 185.848H735.263V187.366H743.505V185.848Z" fill="white"/>
<path id="path804" d="M743.505 182.51H735.263V184.027H743.505V182.51Z" fill="white"/>
<path id="path806" d="M743.505 177.502H727.496V179.019H743.505V177.502Z" fill="white"/>
<path id="path808" d="M743.505 173.556H735.263V175.074H743.505V173.556Z" fill="white"/>
<path id="path810" d="M743.505 170.218H735.263V171.735H743.505V170.218Z" fill="white"/>
<path id="path812" d="M743.505 166.879H735.263V168.397H743.505V166.879Z" fill="white"/>
<path id="path814" d="M743.505 163.54H735.263V165.058H743.505V163.54Z" fill="white"/>
<path id="path816" d="M743.505 160.203H735.263V161.72H743.505V160.203Z" fill="white"/>
<path id="path856" opacity="0.5" d="M601.148 254.162C597.353 255.686 593.599 257.979 590.207 260.491C586.807 263.054 583.671 265.954 580.887 269.151C575.289 275.539 571.233 283.142 568.688 291.187C566.132 299.25 565.16 307.765 565.259 316.258C565.34 324.762 566.552 333.266 568.453 341.614C568.905 343.598 567.665 345.573 565.681 346.025C563.699 346.478 561.724 345.237 561.272 343.254C561.261 343.21 561.249 343.15 561.24 343.106C559.603 334.275 558.681 325.257 558.961 316.205C559.221 307.17 560.629 298.082 563.733 289.509C566.823 280.955 571.541 272.938 577.799 266.354C580.915 263.055 584.379 260.107 588.093 257.537C591.861 254.998 595.732 252.799 600.157 251.226C600.963 250.939 601.847 251.359 602.133 252.165C602.412 252.95 602.02 253.81 601.256 254.118L601.148 254.162Z" fill="#EDFAFF"/>
<path id="path872" opacity="0.5" d="M706.425 116.45C703.473 117.636 700.551 119.421 697.911 121.374C695.267 123.369 692.825 125.625 690.659 128.114C686.304 133.084 683.148 139.001 681.168 145.26C679.179 151.534 678.421 158.16 678.5 164.769C678.563 171.386 679.505 178.004 680.984 184.5C681.337 186.042 680.371 187.58 678.828 187.932C677.285 188.284 675.748 187.318 675.397 185.776C675.389 185.741 675.38 185.694 675.373 185.66C674.099 178.789 673.381 171.772 673.599 164.728C673.8 157.697 674.897 150.625 677.312 143.954C679.716 137.3 683.388 131.061 688.257 125.937C693.155 120.834 698.905 116.661 705.655 114.165C706.279 113.934 706.971 114.253 707.201 114.877C707.428 115.489 707.124 116.169 706.523 116.41L706.425 116.45Z" fill="#EDFAFF"/>
<path id="path888" opacity="0.5" d="M878.539 156.573C876.271 157.498 874.037 158.879 871.993 160.362C871.021 161.187 869.963 161.905 869.081 162.827L867.707 164.146C867.251 164.587 866.868 165.099 866.445 165.571C863.113 169.403 860.692 173.938 859.128 178.737L858.159 182.403C857.832 183.622 857.765 184.907 857.553 186.153C857.063 188.639 857.205 191.213 857.083 193.741C857.039 194.373 857.081 195.009 857.145 195.646L857.3 197.553L857.605 201.362L858.971 208.914L859.007 209.11C859.223 210.309 858.427 211.455 857.229 211.671C856.031 211.889 854.885 211.093 854.668 209.895C854.664 209.869 854.659 209.833 854.655 209.806L853.54 201.807L853.377 197.755L853.297 195.733C853.259 195.059 853.241 194.385 853.313 193.706C853.545 191.001 853.517 188.287 854.144 185.622C854.423 184.291 854.557 182.935 854.959 181.633L856.164 177.731C858.053 172.626 860.869 167.847 864.597 163.897C868.329 159.939 872.768 156.754 877.947 154.815C878.425 154.635 878.957 154.878 879.137 155.358C879.313 155.827 879.083 156.35 878.621 156.539L878.539 156.573Z" fill="#EDFAFF"/>
<path id="path914" d="M730.187 504.945C734.222 484.082 729.239 463.574 717.979 447.416L822.447 362.424C849.359 393.857 895.557 402.986 932.995 381.936C975.603 357.98 990.721 304.022 966.766 261.416C942.81 218.809 888.851 203.69 846.245 227.645C803.638 251.601 788.519 305.56 812.475 348.166C812.843 348.821 813.241 349.45 813.623 350.092L781.19 376.981L781.246 377.052L708.53 436.306C698.355 426.449 685.31 419.322 670.363 416.432C638.517 410.273 607.483 425.098 591.522 451.25L552.194 430.253L552.163 430.308L494.782 399.046C498.454 389.89 499.626 379.612 497.549 369.214C491.858 340.722 464.146 322.24 435.654 327.932C407.161 333.622 388.678 361.334 394.37 389.826C397.661 406.305 408.338 419.394 422.251 426.437L414.079 460.173L414.141 460.189L398.221 523.565C388.438 522.3 378.191 523.734 368.645 528.345C342.481 540.98 331.514 572.433 344.15 598.597C356.785 624.761 388.238 635.729 414.402 623.092C440.566 610.457 451.533 579.004 438.898 552.841C432.462 539.514 421.135 530.16 408.122 525.829L432.211 430.254C439.825 432.324 448.003 432.761 456.266 431.11C470.777 428.212 482.667 419.584 490.114 408.068L586.627 460.748C584.529 465.638 582.902 470.817 581.85 476.257C573.929 517.22 600.714 556.848 641.675 564.769C682.638 572.692 722.266 545.908 730.187 504.945Z" fill="#9FDAF6"/>
<path id="path1004" d="M451.392 341.83L432.904 341.936C431.365 341.946 430.279 343.442 430.745 344.907L433.869 354.72L450.599 354.624L453.587 344.77C454.032 343.304 452.933 341.83 451.404 341.828C451.4 341.828 451.396 341.828 451.392 341.83" fill="url(#paint6_linear)"/>
<path id="path1022" opacity="0.899994" d="M454.783 352.659V348.991H429.549V352.659H428.027V406.029H456.305V352.659H454.783Z" fill="#EDFAFF"/>
<path id="path1054" d="M429.375 405.436H454.956V361.802H429.375V405.436Z" fill="url(#paint7_linear)"/>
<path id="path1066" d="M456.873 349H427.459C426.965 349 426.561 348.596 426.561 348.102C426.561 347.61 426.965 347.206 427.459 347.206H456.873C457.367 347.206 457.771 347.61 457.771 348.102C457.771 348.596 457.367 349 456.873 349Z" fill="#EDFAFF"/>
<path id="path1070" d="M443.753 371.666C443.877 372.541 443.267 373.353 442.391 373.477C441.515 373.601 440.705 372.993 440.581 372.117C440.455 371.241 441.065 370.429 441.941 370.305C442.817 370.181 443.629 370.79 443.753 371.666Z" fill="#FFB650"/>
<path id="path1074" d="M442.801 366.11C442.577 364.534 443.673 363.076 445.249 362.852C446.825 362.628 448.284 363.724 448.508 365.301C448.733 366.876 447.636 368.336 446.06 368.56C444.484 368.784 443.025 367.688 442.801 366.11Z" fill="#DE6422"/>
<path id="path1078" d="M434.705 386.189C434.481 384.613 435.577 383.154 437.153 382.93C438.731 382.706 440.189 383.802 440.413 385.378C440.637 386.954 439.54 388.413 437.965 388.637C436.389 388.861 434.929 387.766 434.705 386.189Z" fill="#DE6422"/>
<path id="path1082" d="M446.22 359.273C446.069 358.211 446.808 357.229 447.869 357.079C448.932 356.927 449.914 357.665 450.065 358.727C450.216 359.789 449.477 360.772 448.416 360.921C447.354 361.073 446.37 360.335 446.22 359.273Z" fill="#DE6422"/>
<path id="path1086" d="M436.947 378.39C436.841 377.642 437.361 376.953 438.107 376.846C438.853 376.741 439.543 377.258 439.65 378.006C439.755 378.752 439.237 379.442 438.491 379.549C437.745 379.654 437.054 379.137 436.947 378.39Z" fill="#FFB650"/>
<path id="path1090" d="M434.985 368.677C434.834 367.615 435.571 366.633 436.634 366.482C437.695 366.33 438.679 367.069 438.83 368.131C438.981 369.193 438.242 370.175 437.181 370.326C436.119 370.478 435.135 369.739 434.985 368.677Z" fill="#DE6422"/>
<path id="path1094" d="M442.543 395.959C442.393 394.898 443.131 393.915 444.193 393.765C445.254 393.613 446.238 394.351 446.389 395.414C446.539 396.475 445.801 397.458 444.739 397.609C443.678 397.761 442.694 397.022 442.543 395.959Z" fill="#FFB650"/>
<path id="path1098" d="M438.741 355.603C438.591 354.541 439.329 353.559 440.391 353.408C441.452 353.256 442.436 353.995 442.587 355.057C442.737 356.119 441.999 357.101 440.937 357.252C439.876 357.404 438.892 356.665 438.741 355.603Z" fill="#FFB650"/>
<path id="path1102" d="M433.726 372.619C434.006 372.246 434.537 372.17 434.91 372.451C435.283 372.731 435.358 373.261 435.078 373.635C434.798 374.009 434.267 374.083 433.894 373.803C433.521 373.523 433.446 372.993 433.726 372.619Z" fill="#DE6422"/>
<path id="path1106" d="M446.411 387.709C446.691 387.336 447.22 387.261 447.595 387.541C447.967 387.821 448.043 388.351 447.763 388.725C447.482 389.099 446.952 389.173 446.579 388.893C446.206 388.613 446.131 388.083 446.411 387.709Z" fill="#DE6422"/>
<path id="path1110" d="M444.719 376.303C444.999 375.93 445.53 375.854 445.903 376.135C446.275 376.415 446.351 376.944 446.071 377.319C445.791 377.691 445.26 377.767 444.887 377.487C444.514 377.206 444.439 376.675 444.719 376.303Z" fill="#DE6422"/>
<path id="path1120" opacity="0.220001" d="M442.384 406.169V352.829C442.384 352.829 457.573 352.8 456.326 352.8L456.362 353.997V406.169H442.384Z" fill="white"/>
<path id="path1150" d="M469.231 361.223L450.741 361.33C449.204 361.34 448.115 362.838 448.583 364.302L451.707 374.115L468.436 374.018L471.425 364.164C471.869 362.7 470.772 361.223 469.244 361.223C469.239 361.223 469.235 361.223 469.231 361.223" fill="url(#paint8_linear)"/>
<path id="path1168" opacity="0.899994" d="M472.621 372.052V368.384H447.386V372.052H445.865V409.325H474.142V372.052H472.621Z" fill="#EDFAFF"/>
<path id="path1200" d="M447.213 408.732H472.793V381.195H447.213V408.732Z" fill="url(#paint9_linear)"/>
<path id="path1212" d="M474.71 368.394H445.296C444.802 368.394 444.398 367.99 444.398 367.497C444.398 367.004 444.802 366.6 445.296 366.6H474.71C475.204 366.6 475.608 367.004 475.608 367.497C475.608 367.99 475.204 368.394 474.71 368.394Z" fill="#EDFAFF"/>
<path id="path1216" d="M461.59 391.06C461.714 391.936 461.105 392.748 460.229 392.872C459.354 392.996 458.542 392.386 458.418 391.512C458.294 390.636 458.902 389.824 459.779 389.7C460.654 389.576 461.466 390.185 461.59 391.06Z" fill="#EE2C90"/>
<path id="path1220" d="M460.638 385.505C460.414 383.929 461.51 382.47 463.086 382.246C464.662 382.022 466.122 383.118 466.346 384.694C466.57 386.27 465.473 387.729 463.897 387.953C462.322 388.177 460.862 387.082 460.638 385.505Z" fill="#FF98D6"/>
<path id="path1224" d="M449.005 381.864C448.781 380.288 449.877 378.83 451.453 378.606C453.029 378.382 454.489 379.478 454.713 381.055C454.937 382.63 453.84 384.09 452.264 384.314C450.688 384.538 449.229 383.442 449.005 381.864Z" fill="#FF98D6"/>
<path id="path1228" d="M464.058 378.668C463.907 377.605 464.644 376.622 465.707 376.472C466.768 376.32 467.752 377.06 467.902 378.121C468.054 379.182 467.315 380.165 466.252 380.316C465.191 380.468 464.208 379.729 464.058 378.668Z" fill="#FF98D6"/>
<path id="path1232" d="M454.785 397.784C454.678 397.037 455.198 396.346 455.945 396.241C456.69 396.134 457.382 396.653 457.488 397.4C457.594 398.145 457.074 398.837 456.329 398.944C455.582 399.049 454.892 398.53 454.785 397.784Z" fill="#EE2C90"/>
<path id="path1236" d="M452.822 388.071C452.671 387.01 453.41 386.027 454.471 385.877C455.532 385.725 456.516 386.463 456.667 387.526C456.818 388.587 456.079 389.57 455.018 389.721C453.956 389.873 452.972 389.134 452.822 388.071Z" fill="#EE2C90"/>
<path id="path1240" d="M456.578 374.997C456.428 373.936 457.166 372.953 458.228 372.802C459.289 372.65 460.273 373.389 460.424 374.45C460.574 375.513 459.836 376.496 458.774 376.646C457.713 376.797 456.729 376.058 456.578 374.997Z" fill="#EE2C90"/>
<path id="path1244" d="M451.563 392.014C451.843 391.641 452.374 391.565 452.747 391.846C453.121 392.126 453.197 392.655 452.915 393.03C452.635 393.402 452.105 393.478 451.731 393.198C451.358 392.917 451.283 392.386 451.563 392.014Z" fill="#FF98D6"/>
<path id="path1248" d="M462.556 395.696C462.836 395.324 463.367 395.248 463.74 395.528C464.114 395.81 464.188 396.339 463.908 396.712C463.628 397.086 463.098 397.162 462.724 396.88C462.351 396.6 462.276 396.07 462.556 395.696Z" fill="#EE2C90"/>
<path id="path1258" opacity="0.220001" d="M460.025 409.466V372.223C460.025 372.223 475.213 372.193 473.968 372.193L474.004 373.39V409.466H460.025Z" fill="white"/>
<path id="path1288" d="M437.289 375.787L418.189 375.896C416.601 375.904 415.477 377.451 415.959 378.964L419.188 389.103L436.469 389.003L439.557 378.824C440.016 377.311 438.883 375.787 437.304 375.787C437.299 375.787 437.293 375.787 437.289 375.787" fill="url(#paint10_linear)"/>
<path id="path1306" opacity="0.899994" d="M440.847 386.563V382.742H414.559V386.563H412.973V409.319H442.431V386.563H440.847Z" fill="#EDFAFF"/>
<path id="path1338" d="M414.377 408.702H441.027V396.088H414.377V408.702Z" fill="url(#paint11_linear)"/>
<path id="path1350" d="M443.024 382.752H412.381C411.868 382.752 411.446 382.332 411.446 381.819C411.446 381.304 411.868 380.884 412.381 380.884H443.024C443.537 380.884 443.958 381.304 443.958 381.819C443.958 382.332 443.537 382.752 443.024 382.752Z" fill="#EDFAFF"/>
<path id="path1354" d="M425.17 386.237C424.915 385.277 425.486 384.294 426.446 384.039C427.404 383.785 428.388 384.357 428.643 385.315C428.898 386.274 428.327 387.259 427.367 387.513C426.408 387.767 425.424 387.197 425.17 386.237Z" fill="#40B8E7"/>
<path id="path1358" d="M426.965 392.299C427.422 394.026 426.394 395.797 424.669 396.254C422.942 396.713 421.173 395.685 420.714 393.958C420.257 392.231 421.285 390.462 423.01 390.003C424.737 389.546 426.507 390.574 426.965 392.299Z" fill="#3B4295"/>
<path id="path1362" d="M437.614 388.69C437.945 389.935 437.204 391.213 435.958 391.543C434.713 391.874 433.436 391.131 433.106 389.886C432.776 388.642 433.517 387.365 434.762 387.034C436.006 386.705 437.284 387.445 437.614 388.69Z" fill="#3B4295"/>
<path id="path1366" d="M424.06 400.369C424.368 401.532 423.676 402.725 422.514 403.033C421.351 403.341 420.158 402.649 419.85 401.487C419.54 400.324 420.234 399.131 421.396 398.823C422.559 398.513 423.752 399.207 424.06 400.369Z" fill="#40B8E7"/>
<path id="path1370" d="M434.113 400.531C434.348 401.415 433.821 402.322 432.938 402.556C432.054 402.79 431.146 402.264 430.913 401.38C430.678 400.496 431.204 399.59 432.088 399.355C432.973 399.12 433.878 399.647 434.113 400.531Z" fill="#3B4295"/>
<path id="path1374" d="M432.541 394.333C432.619 394.628 432.445 394.928 432.151 395.006C431.857 395.082 431.557 394.909 431.478 394.616C431.401 394.321 431.575 394.021 431.869 393.944C432.162 393.865 432.463 394.04 432.541 394.333Z" fill="#40B8E7"/>
<path id="path1378" d="M431.149 390.026C431.265 390.466 431.004 390.916 430.564 391.034C430.124 391.15 429.673 390.887 429.556 390.447C429.44 390.007 429.701 389.556 430.141 389.44C430.581 389.324 431.033 389.586 431.149 390.026Z" fill="#40B8E7"/>
<path id="path1388" opacity="0.220001" d="M427.725 409.466V382.742C427.725 382.742 436.598 382.795 440.509 382.786C440.664 382.786 440.809 386.715 440.946 386.714C441.982 386.713 442.537 386.71 442.25 386.71L442.286 387.958V409.466H427.725Z" fill="white"/>
<path id="path1404" opacity="0.5" d="M856.912 234.737C852.78 236.397 848.69 238.896 844.995 241.631C841.292 244.423 837.876 247.581 834.843 251.064C828.748 258.021 824.33 266.304 821.558 275.065C820.108 279.435 819.268 283.989 818.599 288.543C818.339 290.839 818.046 293.124 817.974 295.439C817.794 297.741 817.815 300.06 817.823 302.373C817.91 311.636 819.23 320.899 821.3 329.992C821.794 332.153 820.442 334.303 818.282 334.796C816.122 335.289 813.972 333.937 813.479 331.777C813.468 331.731 813.454 331.665 813.446 331.617C811.662 321.999 810.659 312.175 810.962 302.316C811.052 299.851 811.134 297.391 811.424 294.933C811.604 292.472 812.012 290.029 812.392 287.588C813.304 282.731 814.412 277.887 816.16 273.237C819.524 263.921 824.663 255.188 831.482 248.017C834.875 244.425 838.648 241.213 842.694 238.412C846.798 235.648 851.014 233.253 855.834 231.539C856.711 231.227 857.675 231.685 857.987 232.563C858.291 233.417 857.864 234.353 857.031 234.689L856.912 234.737Z" fill="#EDFAFF"/>
<path id="path1420" opacity="0.5" d="M631.148 430.607C627.353 432.131 623.599 434.424 620.207 436.936C616.807 439.499 613.671 442.399 610.887 445.596C605.289 451.983 601.233 459.587 598.688 467.632C596.132 475.695 595.16 484.209 595.259 492.703C595.34 501.207 596.552 509.711 598.453 518.06C598.905 520.043 597.665 522.017 595.681 522.469C593.699 522.921 591.724 521.681 591.272 519.697C591.261 519.655 591.249 519.595 591.24 519.551C589.603 510.72 588.681 501.701 588.961 492.649C589.221 483.615 590.629 474.525 593.733 465.953C596.823 457.4 601.541 449.383 607.799 442.799C610.915 439.501 614.379 436.552 618.093 433.98C621.861 431.443 625.732 429.245 630.157 427.671C630.963 427.384 631.847 427.804 632.133 428.609C632.412 429.395 632.02 430.255 631.256 430.564L631.148 430.607Z" fill="#EDFAFF"/>
<path id="path1436" opacity="0.5" d="M424.761 341.462C422.493 342.386 420.261 343.767 418.215 345.251C417.243 346.075 416.185 346.793 415.303 347.715L413.929 349.035C413.473 349.477 413.09 349.989 412.667 350.459C409.335 354.291 406.914 358.826 405.351 363.626L404.381 367.293C404.053 368.511 403.987 369.797 403.775 371.042C403.285 373.529 403.427 376.101 403.305 378.629C403.261 379.262 403.303 379.898 403.369 380.535L403.523 382.442L403.827 386.251L405.193 393.803L405.229 393.999C405.445 395.198 404.65 396.343 403.451 396.561C402.254 396.777 401.107 395.982 400.89 394.783C400.886 394.758 400.879 394.722 400.877 394.695L399.762 386.697L399.599 382.645L399.519 380.621C399.482 379.947 399.465 379.273 399.535 378.595C399.767 375.89 399.739 373.175 400.366 370.51C400.646 369.179 400.779 367.823 401.182 366.522L402.386 362.619C404.275 357.515 407.093 352.735 410.819 348.785C414.551 344.827 418.989 341.643 424.169 339.705C424.647 339.525 425.181 339.767 425.359 340.246C425.535 340.715 425.305 341.239 424.843 341.429L424.761 341.462Z" fill="#EDFAFF"/>
<path id="path1470" d="M475.629 558.118C473.616 605.696 433.413 642.632 385.837 640.617C338.261 638.602 301.325 598.401 303.34 550.824C305.353 503.249 345.555 466.313 393.132 468.326C440.708 470.341 477.644 510.541 475.629 558.118Z" fill="#9FDAF6"/>
<path id="path1480" opacity="0.5" d="M358.036 494.353C354.744 495.239 351.407 496.767 348.349 498.511C345.283 500.298 342.397 502.387 339.775 504.761C334.509 509.495 330.397 515.391 327.496 521.801C324.581 528.225 322.933 535.179 322.175 542.222C321.4 549.271 321.563 556.434 322.312 563.535C322.491 565.222 321.268 566.734 319.581 566.913C317.895 567.091 316.381 565.869 316.203 564.182C316.199 564.145 316.195 564.094 316.192 564.055C315.709 556.583 315.84 549.023 316.965 541.554C318.075 534.099 320.14 526.714 323.559 519.921C326.961 513.145 331.663 506.971 337.496 502.139C340.401 499.715 343.563 497.617 346.893 495.855C350.264 494.126 353.687 492.689 357.507 491.823C358.201 491.665 358.893 492.102 359.051 492.797C359.204 493.474 358.793 494.147 358.129 494.327L358.036 494.353Z" fill="#EDFAFF"/>
<path id="path1578" d="M644.091 451.43C608.573 466.05 608.573 518.326 644.091 532.946C645.12 533.372 646.153 533.632 647.144 533.763C662.148 538.475 679.316 534.891 691.117 524.432H673.572C659.129 529.716 641.42 526.004 631.832 511.178C631.827 511.17 631.82 511.16 631.815 511.154C621.261 494.019 626.563 468.499 647.719 459.79C651.165 458.34 654.131 455.722 653.711 453.238C653.447 451.599 651.307 450.512 648.571 450.512C647.176 450.512 645.627 450.794 644.091 451.43" fill="url(#paint12_linear)"/>
<path id="path1602" d="M628.496 460.603C628.496 464.964 632.032 468.502 636.395 468.502C640.757 468.502 644.293 464.964 644.293 460.603C644.293 456.239 640.757 452.703 636.395 452.703C632.032 452.703 628.496 456.239 628.496 460.603Z" fill="url(#paint13_linear)"/>
<path id="path1614" d="M641.036 460.603C641.036 463.167 638.958 465.244 636.395 465.244C633.832 465.244 631.752 463.167 631.752 460.603C631.752 458.039 633.832 455.961 636.395 455.961C638.958 455.961 641.036 458.039 641.036 460.603Z" fill="white"/>
<path id="path1638" d="M665.569 525.46H697.125V521.784H665.569V525.46Z" fill="url(#paint14_linear)"/>
<path id="path1662" d="M638.204 433.438L646.027 445.546L649.204 443.494L641.383 431.386L638.204 433.438Z" fill="url(#paint15_linear)"/>
<path id="path1674" d="M645.239 433.135L639.057 437.128C638.038 437.787 636.677 437.496 636.018 436.475C635.359 435.455 635.651 434.095 636.671 433.436L642.854 429.442C643.874 428.783 645.234 429.076 645.893 430.096C646.551 431.115 646.259 432.476 645.239 433.135Z" fill="#EDFAFF"/>
<path id="path1678" d="M674.813 473.916L663.747 481.066L661.36 477.374L672.428 470.224L674.813 473.916Z" fill="#EDFAFF"/>
<path id="path1704" d="M640.907 444.434L662.225 476.767L671.613 470.7L650.293 438.368L640.907 444.434Z" fill="url(#paint16_linear)"/>
<path id="path1730" d="M633.407 548.542H676.092C672.731 540.043 664.445 534.028 654.749 534.028C645.055 534.028 636.769 540.043 633.407 548.542Z" fill="url(#paint17_linear)"/>
<path id="path1740" d="M679.415 552.366H630.084V548.504H679.415V552.366Z" fill="#EDFAFF"/>
<path id="path1890" d="M699.196 521.923H663.385V506.331H699.196V521.923Z" fill="#EDFAFF"/>
<path id="path1916" d="M664.537 520.315H698.045V512.416H664.537V520.315Z" fill="url(#paint18_linear)"/>
</g>
<g id="bottleBubbles">
<g id="bubbles">
<path id="5" d="M896.221 160.443C896.221 162.896 894.232 164.885 891.779 164.885C889.325 164.885 887.336 162.896 887.336 160.443C887.336 157.989 889.325 156 891.779 156C894.232 156 896.221 157.989 896.221 160.443Z" fill="#FFCF47"/>
<path id="4" d="M897.516 184.812C897.516 186.449 896.188 187.776 894.552 187.776C892.916 187.776 891.589 186.449 891.589 184.812C891.589 183.174 892.916 181.849 894.552 181.849C896.188 181.849 897.516 183.174 897.516 184.812Z" fill="#E69200"/>
<path id="3" d="M924.038 195.776C924.038 200.705 920.042 204.701 915.112 204.701C910.182 204.701 906.186 200.705 906.186 195.776C906.186 190.847 910.182 186.851 915.112 186.851C920.042 186.851 924.038 190.847 924.038 195.776Z" fill="#FFE5AC"/>
<path id="2" d="M897.139 219.275C897.139 224.205 893.143 228.199 888.214 228.199C883.283 228.199 879.287 224.205 879.287 219.275C879.287 214.346 883.283 210.35 888.214 210.35C893.143 210.35 897.139 214.346 897.139 219.275Z" fill="#FFCF47"/>
<path id="1" d="M896.186 235.962C894.19 237.959 890.953 237.959 888.955 235.962C886.959 233.966 886.959 230.728 888.955 228.732C890.953 226.736 894.19 226.736 896.186 228.732C898.182 230.728 898.182 233.966 896.186 235.962Z" fill="#E69200"/>
</g>
<g id="flask">
<path id="path1810" d="M900.366 266.212L900.279 266.043V234.944H881.961V266.043L881.874 266.212C858.29 270.565 840.419 291.241 840.419 316.111C840.419 344.143 863.118 366.868 891.119 366.868C919.121 366.868 941.821 344.143 941.821 316.111C941.821 291.241 923.949 270.565 900.366 266.212Z" fill="#EDFAFF"/>
<path id="path1836" d="M845.922 310.308C845.542 312.695 845.344 315.14 845.344 317.632C845.344 343.249 866.111 364.019 891.73 364.019C917.346 364.019 938.115 343.249 938.115 317.632C938.115 315.14 937.915 312.695 937.536 310.308H845.922Z" fill="url(#paint19_linear)"/>
<path id="path1854" opacity="0.570007" d="M905.789 325.525C896.476 341.658 877.735 348.274 863.931 340.305C850.128 332.334 846.487 312.797 855.801 296.663C865.115 280.531 883.856 273.914 897.66 281.885C911.464 289.854 915.103 309.393 905.789 325.525Z" fill="white"/>
<path id="path1870" opacity="0.520004" d="M878.616 327.334C875.54 332.661 869.353 334.845 864.796 332.214C860.239 329.582 859.036 323.131 862.112 317.805C865.187 312.478 871.373 310.294 875.932 312.925C880.489 315.557 881.692 322.007 878.616 327.334Z" fill="white"/>
<path id="path1880" d="M900.118 236.509H882.123C880.755 236.509 879.646 235.4 879.646 234.032C879.646 232.662 880.755 231.554 882.123 231.554H900.118C901.486 231.554 902.595 232.662 902.595 234.032C902.595 235.4 901.486 236.509 900.118 236.509Z" fill="#EDFAFF"/>
</g>
</g>
<g id="virus">
<path id="path2050" d="M387.115 513.581V519.969C387.115 520.851 387.829 521.565 388.712 521.565C389.593 521.565 390.309 520.851 390.309 519.969V513.581C390.309 512.7 389.593 511.984 388.712 511.984C387.829 511.984 387.115 512.7 387.115 513.581Z" fill="url(#paint20_linear)"/>
<path id="path2076" d="M360.503 522.1C359.887 522.715 359.879 523.711 360.483 524.339L366.129 529.984C366.429 530.284 366.836 530.452 367.259 530.453C367.905 530.452 368.487 530.064 368.733 529.465C368.98 528.869 368.844 528.183 368.388 527.727L362.741 522.08C362.432 521.781 362.032 521.632 361.632 521.632C361.223 521.632 360.815 521.788 360.503 522.1Z" fill="url(#paint21_linear)"/>
<path id="path2102" d="M351.984 548.712C351.103 548.712 350.388 549.427 350.388 550.309C350.388 551.192 351.103 551.905 351.984 551.905H358.372C359.255 551.905 359.969 551.192 359.969 550.309C359.969 549.427 359.255 548.712 358.372 548.712H351.984Z" fill="url(#paint22_linear)"/>
<path id="path2128" d="M366.129 570.635L360.483 576.28C360.025 576.737 359.889 577.425 360.137 578.02C360.384 578.617 360.965 579.007 361.612 579.007C362.036 579.007 362.441 578.839 362.741 578.539L368.388 572.892C368.992 572.265 368.984 571.269 368.368 570.653C368.056 570.343 367.647 570.185 367.237 570.185C366.839 570.185 366.439 570.335 366.129 570.635" fill="url(#paint23_linear)"/>
<path id="path2154" d="M387.115 580.649V587.039C387.115 587.919 387.829 588.635 388.712 588.635C389.593 588.635 390.309 587.919 390.309 587.039V580.649C390.309 579.768 389.593 579.053 388.712 579.053C387.829 579.053 387.115 579.768 387.115 580.649Z" fill="url(#paint24_linear)"/>
<path id="path2180" d="M409.056 570.653C408.44 571.269 408.432 572.265 409.037 572.892L414.684 578.539C414.982 578.839 415.389 579.007 415.812 579.007C416.458 579.007 417.04 578.617 417.288 578.02C417.533 577.425 417.397 576.737 416.941 576.28L411.294 570.635C410.985 570.335 410.585 570.185 410.185 570.185C409.777 570.185 409.368 570.343 409.056 570.653" fill="url(#paint25_linear)"/>
<path id="path2206" d="M419.052 548.712C418.171 548.712 417.456 549.427 417.456 550.309C417.456 551.192 418.171 551.905 419.052 551.905H427.036C427.919 551.905 428.633 551.192 428.633 550.309C428.633 549.427 427.919 548.712 427.036 548.712H419.052Z" fill="url(#paint26_linear)"/>
<path id="path2232" d="M414.684 522.08L409.037 527.727C408.581 528.183 408.444 528.869 408.69 529.465C408.937 530.064 409.52 530.452 410.165 530.453C410.589 530.452 410.994 530.284 411.294 529.984L416.941 524.339C417.356 523.937 417.522 523.344 417.376 522.785C417.23 522.227 416.794 521.791 416.236 521.644C416.102 521.609 415.968 521.593 415.833 521.593C415.405 521.593 414.988 521.764 414.684 522.08" fill="url(#paint27_linear)"/>
<path id="path2258" d="M358.372 550.309C358.372 567.067 371.955 580.649 388.712 580.649C405.468 580.649 419.052 567.067 419.052 550.309C419.052 533.552 405.468 519.969 388.712 519.969C371.955 519.969 358.372 533.552 358.372 550.309Z" fill="url(#paint28_linear)"/>
<path id="path2276" opacity="0.470001" d="M401.487 539.131C401.487 542.659 398.627 545.518 395.099 545.518C391.571 545.518 388.711 542.659 388.711 539.131C388.711 535.603 391.571 532.745 395.099 532.745C398.627 532.745 401.487 535.603 401.487 539.131Z" fill="white"/>
<path id="path2292" opacity="0.470001" d="M379.131 543.922C379.131 546.567 376.987 548.712 374.34 548.712C371.695 548.712 369.55 546.567 369.55 543.922C369.55 541.276 371.695 539.131 374.34 539.131C376.987 539.131 379.131 541.276 379.131 543.922Z" fill="white"/>
<path id="path2308" opacity="0.470001" d="M393.503 558.293C393.503 560.94 391.357 563.085 388.712 563.085C386.067 563.085 383.921 560.94 383.921 558.293C383.921 555.649 386.067 553.502 388.712 553.502C391.357 553.502 393.503 555.649 393.503 558.293Z" fill="white"/>
<path id="path2324" opacity="0.470001" d="M409.764 556.279C409.764 558.924 407.619 561.069 404.974 561.069C402.328 561.069 400.183 558.924 400.183 556.279C400.183 553.633 402.328 551.488 404.974 551.488C407.619 551.488 409.764 553.633 409.764 556.279Z" fill="white"/>
<path id="path2340" opacity="0.470001" d="M371.147 559.891C370.937 559.888 370.732 559.845 370.54 559.763C370.347 559.683 370.168 559.568 370.012 559.427C369.869 559.275 369.755 559.096 369.677 558.9C369.596 558.708 369.552 558.503 369.551 558.293C369.556 557.871 369.721 557.467 370.012 557.16C370.168 557.019 370.347 556.905 370.54 556.824C371.136 556.584 371.816 556.715 372.28 557.16C372.572 557.467 372.737 557.871 372.744 558.293C372.741 558.503 372.699 558.708 372.616 558.9C372.539 559.096 372.424 559.275 372.28 559.427C371.975 559.719 371.569 559.884 371.147 559.891Z" fill="white"/>
<path id="path2356" opacity="0.470001" d="M379.131 569.471C378.923 569.469 378.716 569.426 378.524 569.343C378.33 569.263 378.152 569.15 377.996 569.009C377.854 568.855 377.739 568.677 377.662 568.482C377.58 568.29 377.536 568.083 377.534 567.875C377.54 567.451 377.706 567.047 377.996 566.741C378.152 566.601 378.33 566.487 378.524 566.405C379.12 566.165 379.802 566.295 380.264 566.741C380.556 567.047 380.722 567.451 380.728 567.875C380.726 568.083 380.682 568.29 380.6 568.482C380.523 568.677 380.408 568.855 380.264 569.009C379.959 569.301 379.554 569.466 379.131 569.471Z" fill="white"/>
<path id="path2372" opacity="0.470001" d="M384.6 535.652C384.39 535.651 384.185 535.607 383.992 535.526C383.798 535.444 383.621 535.331 383.465 535.19C383.321 535.038 383.208 534.858 383.13 534.663C383.048 534.471 383.005 534.264 383.002 534.056C383.009 533.632 383.174 533.228 383.465 532.922C383.621 532.782 383.798 532.668 383.992 532.587C384.588 532.347 385.27 532.478 385.733 532.922C386.025 533.228 386.19 533.632 386.197 534.056C386.193 534.264 386.15 534.471 386.069 534.663C385.992 534.858 385.877 535.038 385.733 535.19C385.428 535.482 385.022 535.647 384.6 535.652Z" fill="white"/>
<path id="path2404" d="M383.921 508.792C383.921 511.437 386.067 513.581 388.712 513.581C391.357 513.581 393.503 511.437 393.503 508.792C393.503 506.145 391.357 504 388.712 504C386.067 504 383.921 506.145 383.921 508.792Z" fill="url(#paint29_linear)"/>
<path id="path2430" d="M350.709 518.692C350.709 522.22 353.569 525.081 357.096 525.081C360.624 525.081 363.484 522.22 363.484 518.692C363.484 515.165 360.624 512.305 357.096 512.305C353.569 512.305 350.709 515.165 350.709 518.692Z" fill="url(#paint30_linear)"/>
<path id="path2456" d="M344 550.309C344 552.515 345.788 554.303 347.992 554.303C350.197 554.303 351.984 552.515 351.984 550.309C351.984 548.104 350.197 546.316 347.992 546.316C345.788 546.316 344 548.104 344 550.309Z" fill="url(#paint31_linear)"/>
<path id="path2482" d="M350.709 581.927C350.709 585.453 353.569 588.313 357.096 588.313C360.624 588.313 363.484 585.453 363.484 581.927C363.484 578.399 360.624 575.537 357.096 575.537C353.569 575.537 350.709 578.399 350.709 581.927" fill="url(#paint32_linear)"/>
<path id="path2508" d="M383.921 591.827C383.921 594.473 386.067 596.619 388.712 596.619C391.357 596.619 393.503 594.473 393.503 591.827C393.503 589.183 391.357 587.039 388.712 587.039C386.067 587.039 383.921 589.183 383.921 591.827Z" fill="url(#paint33_linear)"/>
<path id="path2534" d="M413.94 581.927C413.94 585.453 416.801 588.313 420.328 588.313C423.855 588.313 426.716 585.453 426.716 581.927C426.716 578.399 423.855 575.537 420.328 575.537C416.801 575.537 413.94 578.399 413.94 581.927" fill="url(#paint34_linear)"/>
<path id="path2560" d="M427.036 550.309C427.036 552.955 429.18 555.1 431.827 555.1C434.473 555.1 436.619 552.955 436.619 550.309C436.619 547.664 434.473 545.519 431.827 545.519C429.18 545.519 427.036 547.664 427.036 550.309Z" fill="url(#paint35_linear)"/>
<path id="path2586" d="M413.94 518.692C413.94 522.22 416.801 525.081 420.328 525.081C423.855 525.081 426.716 522.22 426.716 518.692C426.716 515.165 423.855 512.305 420.328 512.305C416.801 512.305 413.94 515.165 413.94 518.692Z" fill="url(#paint36_linear)"/>
</g>
</g>
<defs>
<linearGradient id="paint0_linear" x1="600.834" y1="363.415" x2="600.834" y2="304.68" gradientUnits="userSpaceOnUse">
<stop stop-color="#3B4295"/>
<stop offset="0.00138972" stop-color="#3B4295"/>
<stop offset="0.987076" stop-color="#40B8E7"/>
<stop offset="0.98815" stop-color="#40B8E7"/>
<stop offset="1" stop-color="#40B8E7"/>
</linearGradient>
<linearGradient id="paint1_linear" x1="622.487" y1="363.415" x2="622.487" y2="304.68" gradientUnits="userSpaceOnUse">
<stop stop-color="#ED4B36"/>
<stop offset="0.00550255" stop-color="#ED4B36"/>
<stop offset="0.90171" stop-color="#FBBE41"/>
<stop offset="0.991474" stop-color="#FBBE41"/>
<stop offset="1" stop-color="#FBBE41"/>
</linearGradient>
<linearGradient id="paint2_linear" x1="643.689" y1="363.415" x2="643.689" y2="304.68" gradientUnits="userSpaceOnUse">
<stop stop-color="#8D2091"/>
<stop offset="0.00221605" stop-color="#8D2091"/>
<stop offset="0.906412" stop-color="#EE2C90"/>
<stop offset="0.996976" stop-color="#EE2C90"/>
<stop offset="1" stop-color="#EE2C90"/>
</linearGradient>
<linearGradient id="paint3_linear" x1="641.585" y1="338.645" x2="647.303" y2="338.645" gradientUnits="userSpaceOnUse">
<stop stop-color="#EE2C90"/>
<stop offset="0.324473" stop-color="#EE2C90"/>
<stop offset="0.996976" stop-color="#EE2C90"/>
<stop offset="1" stop-color="#EE2C90"/>
</linearGradient>
<linearGradient id="paint4_linear" x1="642.757" y1="323.112" x2="645.685" y2="323.112" gradientUnits="userSpaceOnUse">
<stop stop-color="#EE2C90"/>
<stop offset="0.324473" stop-color="#EE2C90"/>
<stop offset="0.996976" stop-color="#EE2C90"/>
<stop offset="1" stop-color="#EE2C90"/>
</linearGradient>
<linearGradient id="paint5_linear" x1="726.343" y1="208.712" x2="726.343" y2="150.088" gradientUnits="userSpaceOnUse">
<stop stop-color="#8D2091"/>
<stop offset="0.00221605" stop-color="#8D2091"/>
<stop offset="0.906412" stop-color="#EE2C90"/>
<stop offset="0.996976" stop-color="#EE2C90"/>
<stop offset="1" stop-color="#EE2C90"/>
</linearGradient>
<linearGradient id="paint6_linear" x1="430.659" y1="348.345" x2="453.711" y2="348.211" gradientUnits="userSpaceOnUse">
<stop stop-color="#D1D0D1"/>
<stop offset="0.0904908" stop-color="#D1D0D1"/>
<stop offset="0.993953" stop-color="#ADADAC"/>
<stop offset="1" stop-color="#ADADAC"/>
</linearGradient>
<linearGradient id="paint7_linear" x1="442.166" y1="405.437" x2="442.166" y2="361.801" gradientUnits="userSpaceOnUse">
<stop stop-color="#ED4B36"/>
<stop offset="0.00550255" stop-color="#ED4B36"/>
<stop offset="0.90171" stop-color="#FBBE41"/>
<stop offset="0.991474" stop-color="#FBBE41"/>
<stop offset="1" stop-color="#FBBE41"/>
</linearGradient>
<linearGradient id="paint8_linear" x1="448.497" y1="367.739" x2="471.549" y2="367.605" gradientUnits="userSpaceOnUse">
<stop stop-color="#D1D0D1"/>
<stop offset="0.0904908" stop-color="#D1D0D1"/>
<stop offset="0.993953" stop-color="#ADADAC"/>
<stop offset="1" stop-color="#ADADAC"/>
</linearGradient>
<linearGradient id="paint9_linear" x1="460.003" y1="408.733" x2="460.003" y2="381.196" gradientUnits="userSpaceOnUse">
<stop stop-color="#8D2091"/>
<stop offset="0.00221605" stop-color="#8D2091"/>
<stop offset="0.906412" stop-color="#EE2C90"/>
<stop offset="0.996976" stop-color="#EE2C90"/>
<stop offset="1" stop-color="#EE2C90"/>
</linearGradient>
<linearGradient id="paint10_linear" x1="415.871" y1="382.516" x2="439.684" y2="382.378" gradientUnits="userSpaceOnUse">
<stop stop-color="#D1D0D1"/>
<stop offset="0.0904908" stop-color="#D1D0D1"/>
<stop offset="0.993953" stop-color="#ADADAC"/>
<stop offset="1" stop-color="#ADADAC"/>
</linearGradient>
<linearGradient id="paint11_linear" x1="427.702" y1="408.702" x2="427.702" y2="396.088" gradientUnits="userSpaceOnUse">
<stop stop-color="#3B4295"/>
<stop offset="0.00138972" stop-color="#3B4295"/>
<stop offset="0.987076" stop-color="#40B8E7"/>
<stop offset="0.98815" stop-color="#40B8E7"/>
<stop offset="1" stop-color="#40B8E7"/>
</linearGradient>
<linearGradient id="paint12_linear" x1="617.454" y1="493.158" x2="691.118" y2="493.158" gradientUnits="userSpaceOnUse">
<stop stop-color="#3B4295"/>
<stop offset="0.00138972" stop-color="#3B4295"/>
<stop offset="0.987076" stop-color="#40B8E7"/>
<stop offset="0.98815" stop-color="#40B8E7"/>
<stop offset="1" stop-color="#40B8E7"/>
</linearGradient>
<linearGradient id="paint13_linear" x1="628.496" y1="460.602" x2="644.294" y2="460.602" gradientUnits="userSpaceOnUse">
<stop stop-color="#D1D0D1"/>
<stop offset="0.0904908" stop-color="#D1D0D1"/>
<stop offset="0.993953" stop-color="#ADADAC"/>
<stop offset="1" stop-color="#ADADAC"/>
</linearGradient>
<linearGradient id="paint14_linear" x1="665.57" y1="523.623" x2="697.126" y2="523.623" gradientUnits="userSpaceOnUse">
<stop stop-color="#D1D0D1"/>
<stop offset="0.0904908" stop-color="#D1D0D1"/>
<stop offset="0.993953" stop-color="#ADADAC"/>
<stop offset="1" stop-color="#ADADAC"/>
</linearGradient>
<linearGradient id="paint15_linear" x1="638.205" y1="438.467" x2="649.204" y2="438.467" gradientUnits="userSpaceOnUse">
<stop stop-color="#D1D0D1"/>
<stop offset="0.0904908" stop-color="#D1D0D1"/>
<stop offset="0.993953" stop-color="#ADADAC"/>
<stop offset="1" stop-color="#ADADAC"/>
</linearGradient>
<linearGradient id="paint16_linear" x1="640.905" y1="457.567" x2="671.613" y2="457.567" gradientUnits="userSpaceOnUse">
<stop stop-color="#3B4295"/>
<stop offset="0.00138972" stop-color="#3B4295"/>
<stop offset="0.987076" stop-color="#40B8E7"/>
<stop offset="0.98815" stop-color="#40B8E7"/>
<stop offset="1" stop-color="#40B8E7"/>
</linearGradient>
<linearGradient id="paint17_linear" x1="633.407" y1="541.285" x2="676.092" y2="541.285" gradientUnits="userSpaceOnUse">
<stop stop-color="#3B4295"/>
<stop offset="0.00138972" stop-color="#3B4295"/>
<stop offset="0.987076" stop-color="#40B8E7"/>
<stop offset="0.98815" stop-color="#40B8E7"/>
<stop offset="1" stop-color="#40B8E7"/>
</linearGradient>
<linearGradient id="paint18_linear" x1="681.291" y1="520.315" x2="681.291" y2="512.416" gradientUnits="userSpaceOnUse">
<stop stop-color="#ED4B36"/>
<stop offset="0.00550255" stop-color="#ED4B36"/>
<stop offset="0.90171" stop-color="#FBBE41"/>
<stop offset="0.991474" stop-color="#FBBE41"/>
<stop offset="1" stop-color="#FBBE41"/>
</linearGradient>
<linearGradient id="paint19_linear" x1="891.729" y1="364.018" x2="891.729" y2="310.308" gradientUnits="userSpaceOnUse">
<stop stop-color="#ED4B36"/>
<stop offset="0.00550255" stop-color="#ED4B36"/>
<stop offset="0.90171" stop-color="#FBBE41"/>
<stop offset="0.991474" stop-color="#FBBE41"/>
<stop offset="1" stop-color="#FBBE41"/>
</linearGradient>
<linearGradient id="paint20_linear" x1="388.712" y1="521.566" x2="388.712" y2="511.985" gradientUnits="userSpaceOnUse">
<stop stop-color="#44B544"/>
<stop offset="0.00193434" stop-color="#44B544"/>
<stop offset="0.0925482" stop-color="#44B544"/>
<stop offset="0.997239" stop-color="#A4C928"/>
<stop offset="1" stop-color="#A4C928"/>
</linearGradient>
<linearGradient id="paint21_linear" x1="364.445" y1="530.453" x2="364.445" y2="521.632" gradientUnits="userSpaceOnUse">
<stop stop-color="#44B544"/>
<stop offset="0.00193434" stop-color="#44B544"/>
<stop offset="0.0925482" stop-color="#44B544"/>
<stop offset="0.997239" stop-color="#A4C928"/>
<stop offset="1" stop-color="#A4C928"/>
</linearGradient>
<linearGradient id="paint22_linear" x1="350.387" y1="550.309" x2="359.969" y2="550.309" gradientUnits="userSpaceOnUse">
<stop stop-color="#A4C928"/>
<stop offset="0.002761" stop-color="#A4C928"/>
<stop offset="0.907452" stop-color="#44B544"/>
<stop offset="0.998066" stop-color="#44B544"/>
<stop offset="1" stop-color="#44B544"/>
</linearGradient>
<linearGradient id="paint23_linear" x1="364.425" y1="579.006" x2="364.425" y2="570.186" gradientUnits="userSpaceOnUse">
<stop stop-color="#A4C928"/>
<stop offset="0.002761" stop-color="#A4C928"/>
<stop offset="0.907452" stop-color="#44B544"/>
<stop offset="0.998066" stop-color="#44B544"/>
<stop offset="1" stop-color="#44B544"/>
</linearGradient>
<linearGradient id="paint24_linear" x1="388.712" y1="588.634" x2="388.712" y2="579.053" gradientUnits="userSpaceOnUse">
<stop stop-color="#A4C928"/>
<stop offset="0.002761" stop-color="#A4C928"/>
<stop offset="0.907452" stop-color="#44B544"/>
<stop offset="0.998066" stop-color="#44B544"/>
<stop offset="1" stop-color="#44B544"/>
</linearGradient>
<linearGradient id="paint25_linear" x1="412.998" y1="579.006" x2="412.998" y2="570.186" gradientUnits="userSpaceOnUse">
<stop stop-color="#A4C928"/>
<stop offset="0.002761" stop-color="#A4C928"/>
<stop offset="0.907452" stop-color="#44B544"/>
<stop offset="0.998066" stop-color="#44B544"/>
<stop offset="1" stop-color="#44B544"/>
</linearGradient>
<linearGradient id="paint26_linear" x1="417.456" y1="550.309" x2="428.634" y2="550.309" gradientUnits="userSpaceOnUse">
<stop stop-color="#44B544"/>
<stop offset="0.00193434" stop-color="#44B544"/>
<stop offset="0.0925482" stop-color="#44B544"/>
<stop offset="0.997239" stop-color="#A4C928"/>
<stop offset="1" stop-color="#A4C928"/>
</linearGradient>
<linearGradient id="paint27_linear" x1="412.999" y1="530.453" x2="412.999" y2="521.593" gradientUnits="userSpaceOnUse">
<stop stop-color="#44B544"/>
<stop offset="0.00193434" stop-color="#44B544"/>
<stop offset="0.0925482" stop-color="#44B544"/>
<stop offset="0.997239" stop-color="#A4C928"/>
<stop offset="1" stop-color="#A4C928"/>
</linearGradient>
<linearGradient id="paint28_linear" x1="358.372" y1="550.309" x2="419.053" y2="550.309" gradientUnits="userSpaceOnUse">
<stop stop-color="#44B544"/>
<stop offset="0.00193434" stop-color="#44B544"/>
<stop offset="0.0925482" stop-color="#44B544"/>
<stop offset="0.997239" stop-color="#A4C928"/>
<stop offset="1" stop-color="#A4C928"/>
</linearGradient>
<linearGradient id="paint29_linear" x1="383.922" y1="508.791" x2="393.503" y2="508.791" gradientUnits="userSpaceOnUse">
<stop stop-color="#44B544"/>
<stop offset="0.00193434" stop-color="#44B544"/>
<stop offset="0.0925482" stop-color="#44B544"/>
<stop offset="0.997239" stop-color="#A4C928"/>
<stop offset="1" stop-color="#A4C928"/>
</linearGradient>
<linearGradient id="paint30_linear" x1="350.709" y1="518.693" x2="363.484" y2="518.693" gradientUnits="userSpaceOnUse">
<stop stop-color="#44B544"/>
<stop offset="0.00193434" stop-color="#44B544"/>
<stop offset="0.0925482" stop-color="#44B544"/>
<stop offset="0.997239" stop-color="#A4C928"/>
<stop offset="1" stop-color="#A4C928"/>
</linearGradient>
<linearGradient id="paint31_linear" x1="344" y1="550.309" x2="351.984" y2="550.309" gradientUnits="userSpaceOnUse">
<stop stop-color="#44B544"/>
<stop offset="0.00193434" stop-color="#44B544"/>
<stop offset="0.0925482" stop-color="#44B544"/>
<stop offset="0.997239" stop-color="#A4C928"/>
<stop offset="1" stop-color="#A4C928"/>
</linearGradient>
<linearGradient id="paint32_linear" x1="350.709" y1="581.925" x2="363.484" y2="581.925" gradientUnits="userSpaceOnUse">
<stop stop-color="#44B544"/>
<stop offset="0.00193434" stop-color="#44B544"/>
<stop offset="0.0925482" stop-color="#44B544"/>
<stop offset="0.997239" stop-color="#A4C928"/>
<stop offset="1" stop-color="#A4C928"/>
</linearGradient>
<linearGradient id="paint33_linear" x1="383.922" y1="591.828" x2="393.503" y2="591.828" gradientUnits="userSpaceOnUse">
<stop stop-color="#44B544"/>
<stop offset="0.00193434" stop-color="#44B544"/>
<stop offset="0.0925482" stop-color="#44B544"/>
<stop offset="0.997239" stop-color="#A4C928"/>
<stop offset="1" stop-color="#A4C928"/>
</linearGradient>
<linearGradient id="paint34_linear" x1="413.941" y1="581.925" x2="426.716" y2="581.925" gradientUnits="userSpaceOnUse">
<stop stop-color="#44B544"/>
<stop offset="0.00193434" stop-color="#44B544"/>
<stop offset="0.0925482" stop-color="#44B544"/>
<stop offset="0.997239" stop-color="#A4C928"/>
<stop offset="1" stop-color="#A4C928"/>
</linearGradient>
<linearGradient id="paint35_linear" x1="427.037" y1="550.309" x2="436.618" y2="550.309" gradientUnits="userSpaceOnUse">
<stop stop-color="#44B544"/>
<stop offset="0.00193434" stop-color="#44B544"/>
<stop offset="0.0925482" stop-color="#44B544"/>
<stop offset="0.997239" stop-color="#A4C928"/>
<stop offset="1" stop-color="#A4C928"/>
</linearGradient>
<linearGradient id="paint36_linear" x1="413.941" y1="518.693" x2="426.716" y2="518.693" gradientUnits="userSpaceOnUse">
<stop stop-color="#44B544"/>
<stop offset="0.00193434" stop-color="#44B544"/>
<stop offset="0.0925482" stop-color="#44B544"/>
<stop offset="0.997239" stop-color="#A4C928"/>
<stop offset="1" stop-color="#A4C928"/>
</linearGradient>
</defs>
</svg>
