<svg width="94" height="94" viewBox="0 0 94 94" fill="none" xmlns="http://www.w3.org/2000/svg">
<path d="M43.8132 10.3858V16.7738C43.8132 17.6551 44.5279 18.3698 45.4106 18.3698C46.2919 18.3698 47.0079 17.6551 47.0079 16.7738V10.3858C47.0079 9.50447 46.2919 8.78847 45.4106 8.78847C44.5279 8.78847 43.8132 9.50447 43.8132 10.3858Z" fill="url(#paint0_linear)"/>
<path d="M17.2015 18.9044C16.5855 19.5191 16.5774 20.5151 17.1814 21.1431L22.8281 26.7884C23.1281 27.0884 23.5348 27.2564 23.9574 27.2578C24.6041 27.2564 25.1855 26.8684 25.4321 26.2698C25.6788 25.6738 25.5428 24.9871 25.0868 24.5311L19.4401 18.8844C19.1308 18.5858 18.7308 18.4364 18.3308 18.4364C17.9214 18.4364 17.5135 18.5924 17.2015 18.9044Z" fill="url(#paint1_linear)"/>
<path d="M8.68266 45.5164C7.80132 45.5164 7.08667 46.2311 7.08667 47.1137C7.08667 47.9964 7.80132 48.7097 8.68266 48.7097H15.0707C15.9533 48.7097 16.668 47.9964 16.668 47.1137C16.668 46.2311 15.9533 45.5164 15.0707 45.5164H8.68266Z" fill="url(#paint2_linear)"/>
<path d="M22.828 67.4391L17.1813 73.0844C16.7239 73.5417 16.5879 74.2297 16.8359 74.8244C17.0826 75.4217 17.664 75.8111 18.3106 75.8111C18.7346 75.8111 19.1399 75.6431 19.4399 75.3431L25.0866 69.6964C25.6906 69.0697 25.6826 68.0737 25.0666 67.4577C24.7546 67.1471 24.3453 66.9897 23.936 66.9897C23.5373 66.9897 23.1373 67.1391 22.828 67.4391" fill="url(#paint3_linear)"/>
<path d="M43.8132 77.4537V83.843C43.8132 84.723 44.5279 85.439 45.4106 85.439C46.2919 85.439 47.0079 84.723 47.0079 83.843V77.4537C47.0079 76.5723 46.2919 75.8577 45.4106 75.8577C44.5279 75.8577 43.8132 76.5723 43.8132 77.4537Z" fill="url(#paint4_linear)"/>
<path d="M65.7545 67.4577C65.1385 68.0737 65.1305 69.0697 65.7358 69.6964L71.3825 75.3431C71.6811 75.6431 72.0878 75.8111 72.5105 75.8111C73.1572 75.8111 73.7385 75.4217 73.9865 74.8244C74.2318 74.2297 74.0958 73.5417 73.6398 73.0844L67.9931 67.4391C67.6838 67.1391 67.2838 66.9897 66.8838 66.9897C66.4758 66.9897 66.0665 67.1471 65.7545 67.4577" fill="url(#paint5_linear)"/>
<path d="M75.7508 45.5164C74.8694 45.5164 74.1548 46.2311 74.1548 47.1137C74.1548 47.9964 74.8694 48.7097 75.7508 48.7097H83.7348C84.6174 48.7097 85.3321 47.9964 85.3321 47.1137C85.3321 46.2311 84.6174 45.5164 83.7348 45.5164H75.7508Z" fill="url(#paint6_linear)"/>
<path d="M71.3825 18.8844L65.7358 24.5311C65.2798 24.9871 65.1425 25.6738 65.3892 26.2698C65.6358 26.8684 66.2185 27.2564 66.8638 27.2578C67.2878 27.2564 67.6932 27.0884 67.9932 26.7884L73.6399 21.1431C74.0545 20.7418 74.2212 20.1484 74.0745 19.5898C73.9292 19.0311 73.4932 18.5951 72.9345 18.4484C72.8012 18.4138 72.6665 18.3978 72.5318 18.3978C72.1038 18.3978 71.6865 18.5684 71.3825 18.8844" fill="url(#paint7_linear)"/>
<path d="M15.0708 47.1138C15.0708 63.8711 28.6535 77.4538 45.4108 77.4538C62.1668 77.4538 75.7508 63.8711 75.7508 47.1138C75.7508 30.3564 62.1668 16.7738 45.4108 16.7738C28.6535 16.7738 15.0708 30.3564 15.0708 47.1138Z" fill="url(#paint8_linear)"/>
<path opacity="0.470001" d="M58.1857 35.9358C58.1857 39.4638 55.3257 42.3225 51.7977 42.3225C48.2697 42.3225 45.4097 39.4638 45.4097 35.9358C45.4097 32.4078 48.2697 29.5491 51.7977 29.5491C55.3257 29.5491 58.1857 32.4078 58.1857 35.9358Z" fill="white"/>
<path opacity="0.470001" d="M35.8296 40.7262C35.8296 43.3716 33.6856 45.5169 31.039 45.5169C28.3936 45.5169 26.2483 43.3716 26.2483 40.7262C26.2483 38.0809 28.3936 35.9356 31.039 35.9356C33.6856 35.9356 35.8296 38.0809 35.8296 40.7262Z" fill="white"/>
<path opacity="0.470001" d="M50.2015 55.0973C50.2015 57.7439 48.0561 59.8893 45.4108 59.8893C42.7655 59.8893 40.6201 57.7439 40.6201 55.0973C40.6201 52.4533 42.7655 50.3066 45.4108 50.3066C48.0561 50.3066 50.2015 52.4533 50.2015 55.0973Z" fill="white"/>
<path opacity="0.470001" d="M66.4632 53.083C66.4632 55.7284 64.3178 57.8737 61.6725 57.8737C59.0272 57.8737 56.8818 55.7284 56.8818 53.083C56.8818 50.4377 59.0272 48.2924 61.6725 48.2924C64.3178 48.2924 66.4632 50.4377 66.4632 53.083Z" fill="white"/>
<path opacity="0.470001" d="M27.8453 56.695C27.6359 56.6924 27.4306 56.6497 27.2386 56.567C27.0453 56.487 26.8666 56.3724 26.7106 56.231C26.5679 56.079 26.4533 55.9004 26.3759 55.7044C26.2946 55.5124 26.2506 55.307 26.2493 55.0977C26.2546 54.675 26.4199 54.271 26.7106 53.9644C26.8666 53.823 27.0453 53.7097 27.2386 53.6284C27.8346 53.3884 28.5146 53.519 28.9786 53.9644C29.2706 54.271 29.4359 54.675 29.4426 55.0977C29.4399 55.307 29.3973 55.5124 29.3146 55.7044C29.2373 55.9004 29.1226 56.079 28.9786 56.231C28.6733 56.523 28.2679 56.6884 27.8453 56.695Z" fill="white"/>
<path opacity="0.470001" d="M35.8298 66.2757C35.6218 66.273 35.4151 66.2303 35.2231 66.1477C35.0284 66.0677 34.8511 65.9543 34.6951 65.813C34.5524 65.6597 34.4378 65.481 34.3604 65.2863C34.2791 65.0943 34.2351 64.8877 34.2324 64.6797C34.2391 64.2557 34.4044 63.8517 34.6951 63.545C34.8511 63.405 35.0284 63.2917 35.2231 63.209C35.8191 62.969 36.5004 63.0997 36.9631 63.545C37.2551 63.8517 37.4204 64.2557 37.4271 64.6797C37.4244 64.8877 37.3804 65.0943 37.2991 65.2863C37.2218 65.481 37.1071 65.6597 36.9631 65.813C36.6578 66.105 36.2524 66.2703 35.8298 66.2757Z" fill="white"/>
<path opacity="0.470001" d="M41.2983 32.4567C41.0889 32.4554 40.8836 32.4114 40.6903 32.33C40.4969 32.2487 40.3196 32.1354 40.1636 31.994C40.0196 31.842 39.9063 31.662 39.8289 31.4674C39.7463 31.2754 39.7036 31.0687 39.7009 30.8607C39.7076 30.4367 39.8729 30.0327 40.1636 29.726C40.3196 29.586 40.4969 29.4727 40.6903 29.3914C41.2863 29.1514 41.9689 29.282 42.4316 29.726C42.7236 30.0327 42.8889 30.4367 42.8956 30.8607C42.8916 31.0687 42.8489 31.2754 42.7676 31.4674C42.6903 31.662 42.5756 31.842 42.4316 31.994C42.1263 32.286 41.7209 32.4514 41.2983 32.4567Z" fill="white"/>
<path d="M40.6201 5.59642C40.6201 8.24175 42.7655 10.3857 45.4108 10.3857C48.0561 10.3857 50.2015 8.24175 50.2015 5.59642C50.2015 2.94975 48.0561 0.804413 45.4108 0.804413C42.7655 0.804413 40.6201 2.94975 40.6201 5.59642Z" fill="url(#paint9_linear)"/>
<path d="M7.40796 15.4965C7.40796 19.0245 10.268 21.8858 13.7946 21.8858C17.3226 21.8858 20.1826 19.0245 20.1826 15.4965C20.1826 11.9698 17.3226 9.1098 13.7946 9.1098C10.268 9.1098 7.40796 11.9698 7.40796 15.4965Z" fill="url(#paint10_linear)"/>
<path d="M0.69873 47.1136C0.69873 49.319 2.48676 51.107 4.69076 51.107C6.89609 51.107 8.68274 49.319 8.68274 47.1136C8.68274 44.9083 6.89609 43.1203 4.69076 43.1203C2.48676 43.1203 0.69873 44.9083 0.69873 47.1136Z" fill="url(#paint11_linear)"/>
<path d="M7.40796 78.731C7.40796 82.2577 10.268 85.1177 13.7946 85.1177C17.3226 85.1177 20.1826 82.2577 20.1826 78.731C20.1826 75.203 17.3226 72.3417 13.7946 72.3417C10.268 72.3417 7.40796 75.203 7.40796 78.731" fill="url(#paint12_linear)"/>
<path d="M40.6201 88.631C40.6201 91.2777 42.7655 93.423 45.4108 93.423C48.0561 93.423 50.2015 91.2777 50.2015 88.631C50.2015 85.987 48.0561 83.843 45.4108 83.843C42.7655 83.843 40.6201 85.987 40.6201 88.631Z" fill="url(#paint13_linear)"/>
<path d="M70.6387 78.731C70.6387 82.2577 73.5 85.1177 77.0267 85.1177C80.5533 85.1177 83.4147 82.2577 83.4147 78.731C83.4147 75.203 80.5533 72.3417 77.0267 72.3417C73.5 72.3417 70.6387 75.203 70.6387 78.731" fill="url(#paint14_linear)"/>
<path d="M83.7346 47.1137C83.7346 49.759 85.8786 51.9043 88.5253 51.9043C91.172 51.9043 93.3173 49.759 93.3173 47.1137C93.3173 44.4683 91.172 42.323 88.5253 42.323C85.8786 42.323 83.7346 44.4683 83.7346 47.1137Z" fill="url(#paint15_linear)"/>
<path d="M70.6387 15.4965C70.6387 19.0245 73.5 21.8858 77.0267 21.8858C80.5533 21.8858 83.4147 19.0245 83.4147 15.4965C83.4147 11.9698 80.5533 9.1098 77.0267 9.1098C73.5 9.1098 70.6387 11.9698 70.6387 15.4965Z" fill="url(#paint16_linear)"/>
<defs>
<linearGradient id="paint0_linear" x1="45.4107" y1="18.37" x2="45.4107" y2="8.78899" gradientUnits="userSpaceOnUse">
<stop stop-color="#44B544"/>
<stop offset="0.00193434" stop-color="#44B544"/>
<stop offset="0.0925482" stop-color="#44B544"/>
<stop offset="0.997239" stop-color="#A4C928"/>
<stop offset="1" stop-color="#A4C928"/>
</linearGradient>
<linearGradient id="paint1_linear" x1="21.1436" y1="27.2571" x2="21.1436" y2="18.4363" gradientUnits="userSpaceOnUse">
<stop stop-color="#44B544"/>
<stop offset="0.00193434" stop-color="#44B544"/>
<stop offset="0.0925482" stop-color="#44B544"/>
<stop offset="0.997239" stop-color="#A4C928"/>
<stop offset="1" stop-color="#A4C928"/>
</linearGradient>
<linearGradient id="paint2_linear" x1="7.0859" y1="47.1137" x2="16.6676" y2="47.1137" gradientUnits="userSpaceOnUse">
<stop stop-color="#A4C928"/>
<stop offset="0.002761" stop-color="#A4C928"/>
<stop offset="0.907452" stop-color="#44B544"/>
<stop offset="0.998066" stop-color="#44B544"/>
<stop offset="1" stop-color="#44B544"/>
</linearGradient>
<linearGradient id="paint3_linear" x1="21.1241" y1="75.8109" x2="21.1241" y2="66.9902" gradientUnits="userSpaceOnUse">
<stop stop-color="#A4C928"/>
<stop offset="0.002761" stop-color="#A4C928"/>
<stop offset="0.907452" stop-color="#44B544"/>
<stop offset="0.998066" stop-color="#44B544"/>
<stop offset="1" stop-color="#44B544"/>
</linearGradient>
<linearGradient id="paint4_linear" x1="45.4107" y1="85.4385" x2="45.4107" y2="75.8575" gradientUnits="userSpaceOnUse">
<stop stop-color="#A4C928"/>
<stop offset="0.002761" stop-color="#A4C928"/>
<stop offset="0.907452" stop-color="#44B544"/>
<stop offset="0.998066" stop-color="#44B544"/>
<stop offset="1" stop-color="#44B544"/>
</linearGradient>
<linearGradient id="paint5_linear" x1="69.6972" y1="75.8109" x2="69.6972" y2="66.9902" gradientUnits="userSpaceOnUse">
<stop stop-color="#A4C928"/>
<stop offset="0.002761" stop-color="#A4C928"/>
<stop offset="0.907452" stop-color="#44B544"/>
<stop offset="0.998066" stop-color="#44B544"/>
<stop offset="1" stop-color="#44B544"/>
</linearGradient>
<linearGradient id="paint6_linear" x1="74.1546" y1="47.1137" x2="85.3326" y2="47.1137" gradientUnits="userSpaceOnUse">
<stop stop-color="#44B544"/>
<stop offset="0.00193434" stop-color="#44B544"/>
<stop offset="0.0925482" stop-color="#44B544"/>
<stop offset="0.997239" stop-color="#A4C928"/>
<stop offset="1" stop-color="#A4C928"/>
</linearGradient>
<linearGradient id="paint7_linear" x1="69.6976" y1="27.2571" x2="69.6976" y2="18.397" gradientUnits="userSpaceOnUse">
<stop stop-color="#44B544"/>
<stop offset="0.00193434" stop-color="#44B544"/>
<stop offset="0.0925482" stop-color="#44B544"/>
<stop offset="0.997239" stop-color="#A4C928"/>
<stop offset="1" stop-color="#A4C928"/>
</linearGradient>
<linearGradient id="paint8_linear" x1="15.0708" y1="47.1138" x2="75.7516" y2="47.1138" gradientUnits="userSpaceOnUse">
<stop stop-color="#44B544"/>
<stop offset="0.00193434" stop-color="#44B544"/>
<stop offset="0.0925482" stop-color="#44B544"/>
<stop offset="0.997239" stop-color="#A4C928"/>
<stop offset="1" stop-color="#A4C928"/>
</linearGradient>
<linearGradient id="paint9_linear" x1="40.6207" y1="5.59537" x2="50.2017" y2="5.59537" gradientUnits="userSpaceOnUse">
<stop stop-color="#44B544"/>
<stop offset="0.00193434" stop-color="#44B544"/>
<stop offset="0.0925482" stop-color="#44B544"/>
<stop offset="0.997239" stop-color="#A4C928"/>
<stop offset="1" stop-color="#A4C928"/>
</linearGradient>
<linearGradient id="paint10_linear" x1="7.40739" y1="15.4976" x2="20.1823" y2="15.4976" gradientUnits="userSpaceOnUse">
<stop stop-color="#44B544"/>
<stop offset="0.00193434" stop-color="#44B544"/>
<stop offset="0.0925482" stop-color="#44B544"/>
<stop offset="0.997239" stop-color="#A4C928"/>
<stop offset="1" stop-color="#A4C928"/>
</linearGradient>
<linearGradient id="paint11_linear" x1="0.698837" y1="47.1136" x2="8.68292" y2="47.1136" gradientUnits="userSpaceOnUse">
<stop stop-color="#44B544"/>
<stop offset="0.00193434" stop-color="#44B544"/>
<stop offset="0.0925482" stop-color="#44B544"/>
<stop offset="0.997239" stop-color="#A4C928"/>
<stop offset="1" stop-color="#A4C928"/>
</linearGradient>
<linearGradient id="paint12_linear" x1="7.40739" y1="78.7299" x2="20.1823" y2="78.7299" gradientUnits="userSpaceOnUse">
<stop stop-color="#44B544"/>
<stop offset="0.00193434" stop-color="#44B544"/>
<stop offset="0.0925482" stop-color="#44B544"/>
<stop offset="0.997239" stop-color="#A4C928"/>
<stop offset="1" stop-color="#A4C928"/>
</linearGradient>
<linearGradient id="paint13_linear" x1="40.6207" y1="88.632" x2="50.2017" y2="88.632" gradientUnits="userSpaceOnUse">
<stop stop-color="#44B544"/>
<stop offset="0.00193434" stop-color="#44B544"/>
<stop offset="0.0925482" stop-color="#44B544"/>
<stop offset="0.997239" stop-color="#A4C928"/>
<stop offset="1" stop-color="#A4C928"/>
</linearGradient>
<linearGradient id="paint14_linear" x1="70.6398" y1="78.7299" x2="83.4147" y2="78.7299" gradientUnits="userSpaceOnUse">
<stop stop-color="#44B544"/>
<stop offset="0.00193434" stop-color="#44B544"/>
<stop offset="0.0925482" stop-color="#44B544"/>
<stop offset="0.997239" stop-color="#A4C928"/>
<stop offset="1" stop-color="#A4C928"/>
</linearGradient>
<linearGradient id="paint15_linear" x1="83.7355" y1="47.1137" x2="93.3165" y2="47.1137" gradientUnits="userSpaceOnUse">
<stop stop-color="#44B544"/>
<stop offset="0.00193434" stop-color="#44B544"/>
<stop offset="0.0925482" stop-color="#44B544"/>
<stop offset="0.997239" stop-color="#A4C928"/>
<stop offset="1" stop-color="#A4C928"/>
</linearGradient>
<linearGradient id="paint16_linear" x1="70.6398" y1="15.4976" x2="83.4147" y2="15.4976" gradientUnits="userSpaceOnUse">
<stop stop-color="#44B544"/>
<stop offset="0.00193434" stop-color="#44B544"/>
<stop offset="0.0925482" stop-color="#44B544"/>
<stop offset="0.997239" stop-color="#A4C928"/>
<stop offset="1" stop-color="#A4C928"/>
</linearGradient>
</defs>
</svg>
